<svg width="301" height="301" viewBox="0 0 301 301" fill="none" xmlns="http://www.w3.org/2000/svg">
<rect width="300" height="300" fill="#C1A027"/>
<rect width="300" height="300" transform="translate(0.5 0.457275)" fill="#C1A027"/>
<g clip-path="url(#clip0_5807_109624)">
<path d="M193.514 125.147L271.569 110.483L199.811 144.47L277.114 162.852L197.691 164.683L260.867 212.917L187.561 182.26L225.69 252.031L171.147 194.183L177.624 273.417L151.278 198.395L125.021 273.386L131.419 194.161L76.9419 251.938L114.987 182.214L41.7068 212.792L104.829 164.62L25.4343 162.725L102.698 144.416L30.8996 110.363L108.961 125.099L57.1742 64.7917L122.554 110.019L99.7279 33.8589L141.087 101.765L151.19 22.9511L161.374 101.781L202.671 33.9135L179.939 110.051L245.24 64.8803L193.514 125.147Z" fill="#EEECE3"/>
</g>
<defs>
<clipPath id="clip0_5807_109624">
<rect width="231.21" height="261.834" fill="white" transform="translate(34.8945 19.5403)"/>
</clipPath>
</defs>
</svg>
