<svg width="301" height="301" viewBox="0 0 301 301" fill="none" xmlns="http://www.w3.org/2000/svg">
<rect width="300" height="300" fill="#C1A027"/>
<g clip-path="url(#clip0_5807_109752)">
<path d="M180.889 261.293H139.183C77.6089 261.293 27.6934 211.377 27.6934 149.803C27.6934 88.2293 77.6089 38.3137 139.183 38.3137H166.148" fill="#C69E35"/>
<path d="M32.3563 156.88C33.3341 172.545 37.8228 187.944 45.3765 201.675C47.2631 205.109 49.3343 208.441 51.5771 211.653C53.8188 214.867 56.2506 217.947 58.8288 220.898C61.4098 223.847 64.1461 226.66 67.0268 229.318C69.9138 231.969 72.9415 234.467 76.0935 236.798C82.3923 241.468 89.2099 245.435 96.3725 248.634C103.532 251.844 111.052 254.252 118.748 255.831C122.597 256.622 126.49 257.206 130.406 257.581C131.384 257.681 132.366 257.741 133.347 257.824C134.329 257.89 135.312 257.932 136.295 257.988L139.249 258.074L142.289 258.122C150.394 258.264 158.494 258.406 166.59 258.548C185.655 258.914 185.655 263.671 166.59 264.037C158.494 264.179 150.394 264.321 142.289 264.463L139.249 264.511L136.123 264.517C135.081 264.49 134.038 264.475 132.995 264.436C131.953 264.38 130.909 264.346 129.868 264.27C125.701 263.992 121.543 263.485 117.422 262.749C109.18 261.28 101.081 258.894 93.3431 255.615C85.6018 252.348 78.207 248.222 71.3593 243.311C67.9327 240.861 64.6374 238.222 61.4922 235.411C58.3532 232.593 55.3684 229.6 52.5505 226.455C49.7355 223.307 47.0788 220.012 44.6263 216.568C42.1726 213.124 39.9046 209.546 37.8374 205.852C29.5583 191.081 24.617 174.402 23.5275 157.456C22.9865 148.986 23.3567 140.464 24.6576 132.081C25.9699 123.702 28.2108 115.474 31.3208 107.597C34.4377 99.7227 38.4413 92.2135 43.1903 85.2281C47.9575 78.254 53.4805 71.8108 59.6286 66.0504C65.7894 60.3049 72.5553 55.2192 79.8001 50.9633C87.0455 46.7122 94.7402 43.2429 102.719 40.6979C110.696 38.1503 118.939 36.4943 127.242 35.7599C131.388 35.3858 135.575 35.2699 139.703 35.3462C143.753 35.4205 147.802 35.4948 151.85 35.5691C170.915 35.9348 170.915 40.6923 151.85 41.058C147.802 41.1322 143.753 41.2065 139.702 41.2809C135.731 41.3473 131.811 41.5887 127.895 42.0676C120.075 43.0121 112.37 44.7956 104.95 47.3792C97.5284 49.9606 90.4084 53.3751 83.7243 57.4835C77.0409 61.5969 70.8234 66.4524 65.174 71.8889C59.5377 77.3405 54.4897 83.3956 50.142 89.9153C45.8122 96.4465 42.172 103.435 39.3455 110.741C36.5263 118.05 34.5025 125.664 33.3245 133.413C32.1584 141.162 31.8409 149.05 32.3563 156.88Z" fill="#0B2C4A"/>
<path d="M79.6763 224.986C79.6807 224.963 79.6863 224.939 79.6907 224.916C99.6221 243.289 131.172 261.249 165.548 261.249C170.094 261.108 174.571 260.696 178.964 260.027C202.459 255.864 224.224 241.953 237.303 232.048C259.459 211.754 273.388 182.625 273.51 150.24C273.452 123.747 264.267 99.4013 248.936 80.1702C237.855 66.9089 210.983 40.9969 168.629 38.5085C168.481 38.4999 168.333 38.4912 168.185 38.4832C167.564 38.4492 166.941 38.4187 166.314 38.3949C166.28 38.3936 166.246 38.3929 166.212 38.3916C165.617 38.3696 165.019 38.3535 164.419 38.3408C164.254 38.3374 164.089 38.3342 163.924 38.3315C163.291 38.3209 162.656 38.3135 162.016 38.3135C161.438 38.3135 160.863 38.3193 160.29 38.328C160.112 38.3307 159.935 38.3346 159.758 38.3381C159.343 38.3463 158.931 38.3568 158.519 38.3695C158.34 38.375 158.161 38.3801 157.982 38.3865C157.438 38.4058 156.897 38.4281 156.358 38.455C156.335 38.4562 156.312 38.4569 156.289 38.4581C155.712 38.4873 155.138 38.522 154.566 38.5599C154.445 38.5679 154.324 38.5768 154.203 38.5852C153.701 38.6201 153.202 38.6576 152.705 38.699C152.641 38.7043 152.576 38.7095 152.512 38.7149C116.448 41.7836 92.0067 61.7972 79.3785 75.329C79.3766 75.2085 79.3742 75.088 79.3719 74.9674C61.4427 94.7535 50.5195 121.006 50.5195 149.81C50.5195 178.777 61.5666 205.162 79.6763 224.986Z" fill="#C69E35"/>
<path d="M218.673 54.0977L52.1113 220.659L58.3447 227.39L102.338 257.462L261.885 97.9151L245.909 73.6907L223.86 57.0279L218.673 54.0977Z" fill="#E7D5A8"/>
<path d="M159.232 257.975C163.166 258.022 167.084 258.302 170.982 259.234C172.13 259.508 172.13 263.077 170.982 263.351C167.083 264.282 163.166 264.563 159.232 264.61C155.298 264.563 151.381 264.283 147.482 263.351C146.334 263.076 146.334 259.508 147.482 259.234C151.381 258.302 155.299 258.022 159.232 257.975Z" fill="#0B2C4A"/>
<path d="M147.312 257.962C151.246 258.01 155.164 258.29 159.063 259.222C160.21 259.496 160.21 263.064 159.063 263.338C155.164 264.27 151.246 264.55 147.312 264.598C143.378 264.55 139.461 264.27 135.562 263.338C134.414 263.064 134.414 259.496 135.562 259.222C139.461 258.29 143.379 258.01 147.312 257.962Z" fill="#0B2C4A"/>
<path d="M132.719 256.797C136.653 256.845 140.57 257.125 144.469 258.056C145.617 258.331 145.617 261.899 144.469 262.173C140.57 263.105 136.652 263.385 132.719 263.433C128.785 263.385 124.867 263.105 120.968 262.173C119.82 261.899 119.82 258.331 120.968 258.056C124.867 257.125 128.785 256.844 132.719 256.797Z" fill="#0B2C4A"/>
<path d="M118.713 253.817C122.647 253.865 126.564 254.145 130.463 255.076C131.611 255.351 131.611 258.919 130.463 259.193C126.564 260.125 122.646 260.405 118.713 260.453C114.779 260.405 110.861 260.125 106.962 259.193C105.815 258.919 105.815 255.351 106.962 255.076C110.861 254.145 114.779 253.864 118.713 253.817Z" fill="#0B2C4A"/>
<path d="M105.418 249.143C109.352 249.19 113.269 249.47 117.168 250.402C118.316 250.676 118.316 254.244 117.168 254.519C113.269 255.45 109.352 255.731 105.418 255.778C101.484 255.731 97.5664 255.45 93.6674 254.519C92.5197 254.244 92.5197 250.676 93.6674 250.402C97.5665 249.47 101.484 249.19 105.418 249.143Z" fill="#0B2C4A"/>
<path d="M92.9529 242.895C96.8868 242.942 100.804 243.222 104.703 244.154C105.851 244.428 105.851 247.996 104.703 248.271C100.804 249.202 96.8867 249.483 92.9529 249.53C89.019 249.483 85.1016 249.202 81.2026 248.271C80.0549 247.996 80.0549 244.428 81.2026 244.154C85.1017 243.222 89.0192 242.942 92.9529 242.895Z" fill="#0B2C4A"/>
<path d="M81.4373 235.193C85.3712 235.241 89.2886 235.521 93.1876 236.453C94.3353 236.727 94.3353 240.295 93.1876 240.569C89.2885 241.501 85.371 241.781 81.4373 241.829C77.5034 241.781 73.5859 241.501 69.687 240.57C68.5392 240.295 68.5392 236.727 69.687 236.453C73.5859 235.521 77.5035 235.241 81.4373 235.193Z" fill="#0B2C4A"/>
<path d="M70.9939 226.159C74.9278 226.207 78.8453 226.487 82.7442 227.419C83.892 227.693 83.892 231.261 82.7442 231.535C78.8451 232.467 74.9276 232.747 70.9939 232.795C67.06 232.747 63.1426 232.467 59.2436 231.535C58.0959 231.261 58.0959 227.693 59.2436 227.419C63.1426 226.487 67.0601 226.207 70.9939 226.159Z" fill="#0B2C4A"/>
<path d="M61.742 215.913C65.6759 215.961 69.5932 216.241 73.4923 217.172C74.64 217.447 74.64 221.015 73.4923 221.289C69.5932 222.221 65.6756 222.501 61.742 222.549C57.8079 222.501 53.8906 222.221 49.9917 221.289C48.8439 221.015 48.8439 217.447 49.9917 217.172C53.8906 216.241 57.8082 215.96 61.742 215.913Z" fill="#0B2C4A"/>
<path d="M53.8025 204.575C57.7364 204.622 61.6537 204.902 65.5528 205.834C66.7005 206.108 66.7005 209.677 65.5528 209.951C61.6537 210.883 57.7362 211.163 53.8025 211.21C49.8685 211.163 45.9512 210.883 42.0522 209.951C40.9045 209.677 40.9045 206.108 42.0522 205.834C45.9512 204.902 49.8687 204.622 53.8025 204.575Z" fill="#0B2C4A"/>
<path d="M47.2947 192.265C51.2286 192.313 55.1459 192.593 59.045 193.525C60.1927 193.799 60.1927 197.367 59.045 197.641C55.1459 198.573 51.2284 198.853 47.2947 198.901C43.3607 198.853 39.4433 198.573 35.5444 197.641C34.3967 197.367 34.3967 193.799 35.5444 193.525C39.4433 192.593 43.361 192.313 47.2947 192.265Z" fill="#0B2C4A"/>
<path d="M42.3396 179.105C46.2735 179.152 50.191 179.432 54.0899 180.364C55.2377 180.639 55.2377 184.207 54.0899 184.481C50.1908 185.413 46.2733 185.693 42.3396 185.74C38.4057 185.693 34.4883 185.413 30.5893 184.481C29.4416 184.207 29.4416 180.639 30.5893 180.364C34.4883 179.433 38.4058 179.152 42.3396 179.105Z" fill="#0B2C4A"/>
<path d="M39.0584 165.214C42.9923 165.262 46.9097 165.542 50.8087 166.473C51.9564 166.748 51.9564 170.316 50.8087 170.59C46.9096 171.522 42.992 171.802 39.0584 171.849C35.1245 171.802 31.207 171.522 27.3081 170.59C26.1603 170.316 26.1603 166.748 27.3081 166.473C31.207 165.542 35.1246 165.261 39.0584 165.214Z" fill="#0B2C4A"/>
<path d="M37.5701 150.713C41.5041 150.761 45.4214 151.041 49.3204 151.972C50.4681 152.247 50.4681 155.815 49.3204 156.089C45.4214 157.021 41.5039 157.301 37.5701 157.349C33.6362 157.301 29.7189 157.021 25.8198 156.089C24.6721 155.815 24.6721 152.247 25.8198 151.972C29.7189 151.041 33.6364 150.76 37.5701 150.713Z" fill="#0B2C4A"/>
<path d="M37.9822 135.955C41.9161 136.003 45.8335 136.283 49.7325 137.215C50.8802 137.489 50.8802 141.057 49.7325 141.331C45.8335 142.263 41.916 142.543 37.9822 142.591C34.0483 142.543 30.1308 142.263 26.2319 141.331C25.0842 141.057 25.0842 137.489 26.2319 137.215C30.131 136.283 34.0485 136.003 37.9822 135.955Z" fill="#0B2C4A"/>
<path d="M40.2556 121.702C44.1895 121.75 48.107 122.03 52.0059 122.961C53.1537 123.236 53.1537 126.804 52.0059 127.078C48.1069 128.01 44.1893 128.29 40.2556 128.338C36.3217 128.29 32.4043 128.01 28.5053 127.078C27.3576 126.804 27.3576 123.236 28.5053 122.961C32.4043 122.03 36.3218 121.749 40.2556 121.702Z" fill="#0B2C4A"/>
<path d="M44.2713 108.11C48.2052 108.158 52.1226 108.438 56.0216 109.37C57.1693 109.644 57.1693 113.212 56.0216 113.486C52.1225 114.418 48.2049 114.698 44.2713 114.746C40.3373 114.698 36.4199 114.418 32.521 113.487C31.3732 113.212 31.3732 109.644 32.521 109.37C36.4199 108.438 40.3375 108.158 44.2713 108.11Z" fill="#0B2C4A"/>
<path d="M49.9099 95.301C53.8438 95.3487 57.7612 95.6287 61.6602 96.5605C62.808 96.8348 62.808 100.403 61.6602 100.677C57.7612 101.609 53.8436 101.889 49.9099 101.937C45.9759 101.889 42.0586 101.609 38.1596 100.677C37.0119 100.403 37.0119 96.8348 38.1596 96.5606C42.0586 95.6288 45.9761 95.3486 49.9099 95.301Z" fill="#0B2C4A"/>
<path d="M57.0466 83.3943C60.9806 83.442 64.898 83.722 68.7969 84.6538C69.9447 84.9281 69.9447 88.4962 68.7969 88.7704C64.8979 89.7021 60.9803 89.9824 57.0466 90.03C53.1127 89.9823 49.1953 89.7022 45.2963 88.7705C44.1486 88.4962 44.1486 84.9281 45.2963 84.6538C49.1953 83.7221 53.1129 83.4419 57.0466 83.3943Z" fill="#0B2C4A"/>
<path d="M65.5662 72.5107C69.5001 72.5584 73.4174 72.8385 77.3165 73.7702C78.4642 74.0445 78.4642 77.6126 77.3165 77.8869C73.4174 78.8186 69.4999 79.0988 65.5662 79.1464C61.6322 79.0987 57.7148 78.8187 53.8159 77.8869C52.6681 77.6126 52.6681 74.0445 53.8159 73.7703C57.7148 72.8385 61.6324 72.5583 65.5662 72.5107Z" fill="#0B2C4A"/>
<path d="M75.3455 62.771C79.2794 62.8187 83.1968 63.0987 87.0958 64.0305C88.2435 64.3047 88.2435 67.8729 87.0958 68.1471C83.1967 69.0789 79.2792 69.3591 75.3455 69.4066C71.4114 69.359 67.4941 69.0789 63.5952 68.1472C62.4474 67.8729 62.4474 64.3048 63.5952 64.0305C67.4941 63.0988 71.4117 62.8185 75.3455 62.771Z" fill="#0B2C4A"/>
<path d="M86.2634 54.2952C90.1974 54.3428 94.1147 54.6229 98.0137 55.5546C99.1615 55.8289 99.1615 59.397 98.0137 59.6713C94.1147 60.603 90.1971 60.8833 86.2634 60.9308C82.3294 60.8832 78.4121 60.6031 74.5131 59.6713C73.3654 59.3971 73.3654 55.829 74.5131 55.5547C78.4121 54.623 82.3298 54.3427 86.2634 54.2952Z" fill="#0B2C4A"/>
<path d="M98.2028 47.2039C102.137 47.2515 106.054 47.5316 109.953 48.4634C111.101 48.7376 111.101 52.3057 109.953 52.58C106.054 53.5117 102.137 53.7919 98.2029 53.8395C94.269 53.7919 90.3516 53.5118 86.4526 52.58C85.3049 52.3057 85.3049 48.7377 86.4526 48.4634C90.3516 47.5317 94.2691 47.2514 98.2028 47.2039Z" fill="#0B2C4A"/>
<path d="M111.039 41.6179C114.973 41.6656 118.89 41.9456 122.789 42.8774C123.937 43.1517 123.937 46.7198 122.789 46.9941C118.89 47.9258 114.973 48.206 111.039 48.2536C107.105 48.2059 103.187 47.9259 99.2885 46.9941C98.1408 46.7198 98.1408 43.1517 99.2885 42.8774C103.188 41.9457 107.105 41.6655 111.039 41.6179Z" fill="#0B2C4A"/>
<path d="M124.656 37.6572C128.59 37.7049 132.507 37.9849 136.406 38.9167C137.554 39.191 137.554 42.7591 136.406 43.0333C132.507 43.9651 128.59 44.2453 124.656 44.2929C120.722 44.2452 116.805 43.9651 112.906 43.0334C111.758 42.7591 111.758 39.191 112.906 38.9168C116.805 37.985 120.722 37.7048 124.656 37.6572Z" fill="#0B2C4A"/>
<path d="M138.928 35.4426C142.861 35.4903 146.779 35.7703 150.678 36.7021C151.826 36.9764 151.826 40.5445 150.678 40.8187C146.779 41.7505 142.861 42.0307 138.928 42.0783C134.994 42.0306 131.076 41.7505 127.177 40.8188C126.029 40.5445 126.029 36.9764 127.177 36.7022C131.076 35.7704 134.994 35.4902 138.928 35.4426Z" fill="#0B2C4A"/>
<path d="M144.49 34.9956C148.424 35.0432 152.341 35.3233 156.24 36.2551C157.388 36.5294 157.388 40.0975 156.24 40.3717C152.341 41.3035 148.424 41.5837 144.49 41.6312C140.556 41.5836 136.639 41.3035 132.74 40.3718C131.592 40.0975 131.592 36.5294 132.74 36.2551C136.639 35.3234 140.556 35.0432 144.49 34.9956Z" fill="#0B2C4A"/>
<path d="M236.658 73.0581C226.777 63.4152 215.047 55.693 202.296 50.4568C195.922 47.8352 189.297 45.8303 182.539 44.4741C175.781 43.1164 168.892 42.4082 161.99 42.3399C158.538 42.3179 155.087 42.4509 151.649 42.7393L150.36 42.854C149.93 42.8895 149.501 42.9301 149.073 42.9852L146.503 43.29L143.942 43.6635C143.089 43.7934 142.241 43.9555 141.39 44.0991C134.602 45.3423 127.916 47.195 121.477 49.7125C108.581 54.7002 96.6362 62.1926 86.4305 71.6285C83.4272 74.4057 81.1173 76.4526 79.3645 77.6626C77.6464 78.9001 76.4796 79.2933 75.9842 78.8852C75.4911 78.4791 75.6725 77.2665 76.6776 75.3154C77.7137 73.3961 79.588 70.7374 82.6148 67.6829C92.8879 57.315 105.249 48.903 118.831 43.1844C125.612 40.3007 132.705 38.1287 139.943 36.6281C140.85 36.4523 141.754 36.259 142.664 36.0988L145.4 35.6375L148.147 35.2507C148.605 35.1825 149.064 35.1291 149.524 35.0809L150.904 34.929C154.584 34.5434 158.285 34.3298 161.989 34.2875C169.398 34.2274 176.828 34.8742 184.135 36.2432C191.442 37.6103 198.624 39.6985 205.538 42.4714C219.373 48.0096 232.114 56.306 242.828 66.7162C253.529 77.1398 262.174 89.6459 268.096 103.32C274.036 116.987 277.224 131.808 277.485 146.627C277.608 154.034 277.041 161.447 275.761 168.728C274.463 176.006 272.464 183.147 269.796 190.014C267.124 196.88 263.766 203.46 259.827 209.647C257.857 212.74 255.739 215.733 253.484 218.615C251.224 221.492 248.826 224.255 246.305 226.893C243.334 230.002 240.734 231.955 238.84 233.039C236.92 234.1 235.71 234.312 235.291 233.832C234.869 233.347 235.232 232.172 236.419 230.418C237.585 228.637 239.561 226.265 242.255 223.187C244.544 220.573 246.712 217.856 248.744 215.043C250.772 212.228 252.667 209.32 254.421 206.332C257.927 200.356 260.881 194.065 263.197 187.551C265.508 181.035 267.2 174.309 268.253 167.487C269.288 160.661 269.673 153.741 269.436 146.843C268.943 133.049 265.809 119.378 260.204 106.782C254.613 94.1817 246.569 82.6694 236.658 73.0581Z" fill="#0B2C4A"/>
<path d="M53.9173 109.115C57.7767 98.8547 63.1268 89.175 69.7243 80.4686C76.3203 71.7604 84.1629 64.0277 92.9176 57.5788C101.67 51.1268 111.337 45.9639 121.509 42.313C131.679 38.6619 142.345 36.5041 153.04 35.9598C153.826 35.9042 154.567 35.9141 155.257 35.9208C155.947 35.9347 156.588 35.954 157.181 36.0215C158.366 36.1487 159.351 36.308 160.137 36.559C161.709 37.0422 162.48 37.673 162.479 38.3134C162.479 38.9537 161.712 39.6041 160.209 40.1261C159.457 40.3777 158.523 40.6518 157.402 40.8536C156.842 40.9506 156.237 41.0697 155.584 41.1636C154.933 41.2648 154.232 41.3323 153.488 41.4304C143.353 42.5534 133.416 45.0884 124.019 48.8948C114.62 52.7028 105.766 57.8033 97.7705 64.0045C89.7735 70.2034 82.6325 77.4992 76.6231 85.6346C70.6131 93.7687 65.7357 102.74 62.2016 112.222C58.6324 121.692 56.4191 131.655 55.6002 141.736C55.2122 146.778 55.1217 151.851 55.4227 156.9L55.535 158.793L55.6993 160.682L55.7807 161.627C55.8101 161.942 55.8508 162.255 55.8852 162.57L56.0991 164.454C56.4328 166.959 56.8044 169.463 57.3084 171.941C59.2371 181.872 62.5961 191.519 67.1705 200.57C69.4808 205.083 72.0625 209.468 74.9705 213.637C76.4047 215.736 77.9435 217.762 79.519 219.761C80.3224 220.747 81.1153 221.745 81.9536 222.703C82.7707 223.681 83.629 224.622 84.4812 225.57C86.5119 227.778 87.903 229.583 88.6855 230.973C89.4736 232.354 89.6237 233.349 89.203 233.832C88.7822 234.314 87.787 234.283 86.2846 233.612C84.791 232.935 82.8135 231.585 80.5444 229.395C79.592 228.455 78.6336 227.518 77.7167 226.541C76.7787 225.583 75.8864 224.583 74.984 223.589C73.2107 221.576 71.4764 219.521 69.8504 217.378C66.5587 213.122 63.6085 208.593 60.9562 203.886C55.6967 194.45 51.7619 184.215 49.4268 173.59C48.821 170.938 48.3578 168.256 47.9433 165.565L47.6706 163.541C47.6268 163.204 47.5768 162.867 47.5384 162.529L47.4301 161.513L47.2152 159.482L47.0562 157.445C46.6364 152.01 46.6508 146.546 47.0054 141.096C47.7568 130.2 50.0813 119.384 53.9173 109.115Z" fill="#0B2C4A"/>
<path d="M162.015 256.205C175.061 256.209 188.086 253.893 200.259 249.26C212.434 244.651 223.772 237.821 233.545 229.186C243.326 220.564 251.563 210.175 257.736 198.646C263.9 187.113 267.991 174.447 269.73 161.402C270.244 157.563 270.764 154.679 271.413 152.737C272.022 150.797 272.767 149.804 273.505 149.803C274.24 149.802 274.968 150.801 275.515 152.845C276.021 154.885 276.336 157.98 276.006 162.069C274.9 175.951 271.133 189.701 264.948 202.335C258.757 214.967 250.164 226.472 239.745 236.065C229.337 245.671 217.08 253.328 203.817 258.511C197.186 261.103 190.305 263.084 183.294 264.389C176.284 265.701 169.15 266.361 162.015 266.38C154.881 266.361 147.746 265.701 140.736 264.389C133.724 263.083 126.843 261.103 120.212 258.51C106.949 253.328 94.6925 245.67 84.2848 236.064C73.8656 226.471 65.2731 214.966 59.0823 202.334C52.8967 189.7 49.1303 175.951 48.0239 162.069C47.6942 157.98 48.0097 154.885 48.5154 152.845C49.0622 150.801 49.7905 149.802 50.5257 149.803C51.2632 149.804 52.0086 150.797 52.617 152.737C53.2663 154.679 53.7858 157.563 54.3006 161.402C56.0393 174.448 60.1308 187.113 66.295 198.647C72.4681 210.176 80.7047 220.564 90.4867 229.187C100.26 237.821 111.598 244.651 123.773 249.26C135.945 253.893 148.97 256.209 162.015 256.205Z" fill="#0B2C4A"/>
<path d="M32.3563 156.88C33.3341 172.544 37.8228 187.944 45.3765 201.675C47.2631 205.108 49.3343 208.44 51.5771 211.653C53.8188 214.867 56.2506 217.947 58.8288 220.898C61.4098 223.846 64.1461 226.66 67.0268 229.318C69.9138 231.969 72.9415 234.467 76.0935 236.798C82.3923 241.468 89.2099 245.435 96.3725 248.634C103.532 251.844 111.052 254.251 118.748 255.831C122.597 256.622 126.49 257.206 130.406 257.581C131.384 257.681 132.366 257.741 133.347 257.824C134.329 257.889 135.312 257.932 136.295 257.988L139.249 258.074L142.289 258.122C150.394 258.264 158.494 258.406 166.59 258.548C185.655 258.914 185.655 263.671 166.59 264.037C158.494 264.179 150.394 264.321 142.289 264.463L139.249 264.511L136.123 264.516C135.081 264.489 134.038 264.475 132.995 264.436C131.953 264.38 130.909 264.346 129.868 264.27C125.701 263.992 121.543 263.485 117.422 262.749C109.18 261.28 101.081 258.894 93.3431 255.615C85.6018 252.347 78.207 248.222 71.3593 243.311C67.9327 240.86 64.6374 238.222 61.4922 235.411C58.3532 232.593 55.3684 229.6 52.5505 226.455C49.7355 223.307 47.0788 220.012 44.6263 216.568C42.1726 213.124 39.9046 209.545 37.8374 205.851C29.5583 191.081 24.617 174.402 23.5275 157.456C22.9865 148.985 23.3567 140.464 24.6576 132.081C25.9699 123.702 28.2108 115.473 31.3208 107.597C34.4377 99.7225 38.4413 92.2133 43.1903 85.2278C47.9575 78.2537 53.4805 71.8106 59.6286 66.0502C65.7894 60.3047 72.5553 55.2189 79.8001 50.9631C87.0455 46.7119 94.7402 43.2427 102.719 40.6977C110.696 38.15 118.939 36.494 127.242 35.7597C131.388 35.3856 135.575 35.2696 139.703 35.346C143.753 35.4203 147.802 35.4946 151.85 35.5689C170.915 35.9346 170.915 40.692 151.85 41.0577C147.802 41.132 143.753 41.2063 139.702 41.2806C135.731 41.3471 131.811 41.5884 127.895 42.0673C120.075 43.0118 112.37 44.7954 104.95 47.379C97.5284 49.9604 90.4084 53.3749 83.7243 57.4833C77.0409 61.5966 70.8234 66.4522 65.174 71.8886C59.5377 77.3402 54.4897 83.3953 50.142 89.915C45.8122 96.4463 42.172 103.434 39.3455 110.741C36.5263 118.05 34.5025 125.664 33.3245 133.413C32.1584 141.162 31.8409 149.049 32.3563 156.88Z" fill="#0B2C4A"/>
<path d="M241.485 149.665C241.463 145.35 241.102 141.045 240.426 136.791C239.77 132.532 238.678 128.351 237.314 124.27L236.801 122.74C236.721 122.482 236.618 122.234 236.52 121.983L236.225 121.232L235.636 119.728L235.343 118.976C235.245 118.725 235.125 118.484 235.018 118.237L233.694 115.292L232.23 112.414C230.201 108.616 227.876 104.977 225.283 101.538C222.703 98.0877 219.796 94.8861 216.678 91.9157C213.556 88.9482 210.21 86.2144 206.661 83.7688C203.096 81.3483 199.344 79.2066 195.449 77.367L193.981 76.6917C193.492 76.4657 193.005 76.2338 192.501 76.0439L189.502 74.8374L186.449 73.7785C186.193 73.6919 185.941 73.5976 185.684 73.5172L184.908 73.2915L183.356 72.8388C182.838 72.6917 182.324 72.5266 181.802 72.3935L180.229 72.0188C179.18 71.775 178.138 71.4916 177.073 71.319L175.483 71.0219L174.688 70.8727C174.423 70.8227 174.158 70.7691 173.89 70.739L170.683 70.3043C170.15 70.218 169.61 70.1943 169.072 70.1436L167.459 70.0068L166.652 69.9377C166.383 69.9152 166.115 69.8865 165.844 69.8836L164.225 69.829C163.146 69.7997 162.066 69.7282 160.985 69.7628C159.905 69.7797 158.823 69.764 157.745 69.8374C149.11 70.2035 140.536 71.9657 132.448 75.0537C116.234 81.1766 102.135 92.7767 92.7551 107.49C92.0746 108.58 91.4364 109.602 90.8402 110.556C90.5509 111.039 90.2672 111.502 89.9896 111.947C89.7125 112.392 89.4345 112.815 89.1931 113.234C88.6975 114.067 88.2158 114.82 87.773 115.506C87.35 116.201 86.9483 116.82 86.5703 117.364C86.3832 117.637 86.1936 117.888 86.0258 118.126C85.859 118.365 85.6977 118.585 85.5422 118.786C85.2313 119.188 84.9433 119.514 84.6811 119.764C84.1565 120.264 83.7343 120.46 83.4345 120.348C83.1347 120.235 82.9573 119.814 82.9224 119.081C82.9049 118.714 82.9232 118.269 82.9795 117.746C83.0076 117.484 83.0452 117.203 83.0927 116.902C83.1413 116.602 83.2162 116.289 83.2933 115.953C83.4514 115.283 83.6531 114.537 83.9006 113.714C84.1679 112.9 84.4987 112.019 84.8721 111.06C85.0525 110.577 85.2765 110.092 85.5073 109.586C85.7387 109.08 85.9836 108.556 86.2425 108.015C86.4917 107.469 86.8033 106.932 87.1046 106.364C87.4135 105.801 87.7295 105.216 88.074 104.624C92.8126 96.6043 98.8731 89.338 105.952 83.2009C109.491 80.1321 113.281 77.3418 117.281 74.8769C121.285 72.4197 125.495 70.2844 129.856 68.5039C138.577 64.9379 147.909 62.8124 157.347 62.2378C158.526 62.1382 159.708 62.1301 160.89 62.0916C162.072 62.0355 163.254 62.0879 164.437 62.1002L166.211 62.1314C166.507 62.1306 166.802 62.156 167.097 62.1752L167.983 62.2348L169.755 62.3555C170.345 62.4014 170.938 62.4211 171.525 62.5039L175.055 62.9253C175.35 62.9548 175.642 63.0083 175.934 63.0581L176.81 63.2074L178.564 63.5074C179.738 63.6832 180.889 63.9728 182.049 64.2251L183.786 64.6144C184.363 64.7533 184.932 64.9245 185.505 65.0784L187.221 65.5538L188.08 65.7922C188.364 65.8772 188.644 65.976 188.927 66.0674L192.309 67.1911L195.634 68.4778C196.192 68.6823 196.733 68.9297 197.276 69.1715L198.905 69.8965C203.229 71.8736 207.4 74.1932 211.366 76.8288C215.315 79.4893 219.044 82.4753 222.525 85.7288C226.002 88.9853 229.245 92.5065 232.132 96.3069C235.033 100.096 237.636 104.115 239.909 108.317L241.55 111.504L243.037 114.766C243.158 115.04 243.291 115.308 243.401 115.586L243.733 116.419L244.394 118.086L244.724 118.919C244.834 119.198 244.949 119.474 245.04 119.759L245.619 121.456C247.154 125.984 248.379 130.63 249.125 135.36C249.892 140.083 250.301 144.864 250.332 149.65C250.307 154.435 249.928 159.218 249.179 163.945L248.542 167.478C248.283 168.646 248.005 169.81 247.736 170.976L247.531 171.85L247.287 172.713L246.794 174.439C246.627 175.013 246.469 175.59 246.294 176.162L245.717 177.86C242.703 186.947 238.08 195.458 232.32 203.06L230.099 205.865L227.749 208.563C227.55 208.785 227.363 209.017 227.154 209.23L226.535 209.875L225.297 211.165L224.677 211.809L224.367 212.131L224.043 212.439L222.745 213.668L221.446 214.895C221.008 215.299 220.547 215.676 220.098 216.068L218.742 217.231L218.064 217.812L217.359 218.361C216.417 219.09 215.487 219.834 214.533 220.546L211.613 222.602C207.658 225.253 203.498 227.589 199.181 229.584L197.552 230.31L196.738 230.671C196.467 230.794 196.195 230.914 195.916 231.017L192.591 232.304C190.345 233.077 188.097 233.852 185.797 234.445L184.08 234.918C183.504 235.058 182.923 235.181 182.344 235.313L180.607 235.7L179.739 235.893L178.862 236.045L175.355 236.642L171.825 237.064L170.943 237.166L170.057 237.227L168.285 237.348L166.514 237.467L164.739 237.498C162.374 237.566 160.009 237.524 157.649 237.386C148.21 236.843 138.87 234.748 130.138 231.212C125.771 229.446 121.554 227.325 117.542 224.881C113.527 222.44 109.732 219.655 106.182 216.6C99.0829 210.486 92.9983 203.241 88.2321 195.238C87.8827 194.648 87.5672 194.063 87.256 193.501C87.1028 193.219 86.952 192.942 86.8039 192.669C86.7307 192.532 86.6581 192.396 86.586 192.262C86.5193 192.125 86.4532 191.988 86.3876 191.854C86.1271 191.313 85.8805 190.79 85.6476 190.285C85.4161 189.779 85.1884 189.295 85.0068 188.813C84.63 187.856 84.2974 186.975 84.0261 186.163C83.7759 185.341 83.5718 184.595 83.4112 183.926C83.3329 183.59 83.2576 183.277 83.2072 182.977C83.1587 182.677 83.1201 182.396 83.0911 182.134C83.0329 181.611 83.0133 181.166 83.0294 180.799C83.0617 180.066 83.2377 179.644 83.5372 179.531C83.8366 179.417 84.2594 179.611 84.7858 180.11C85.0488 180.359 85.3378 180.684 85.6502 181.085C85.8064 181.285 85.9685 181.505 86.136 181.743C86.3053 181.981 86.4953 182.231 86.6834 182.503C87.0632 183.046 87.467 183.664 87.8921 184.358C88.3386 185.041 88.8216 185.793 89.3202 186.624C89.5627 187.043 89.8441 187.464 90.1217 187.908C90.4006 188.352 90.6857 188.815 90.9764 189.297C91.5762 190.249 92.2184 191.268 92.9032 192.355C97.6245 199.693 103.508 206.257 110.252 211.737C113.625 214.474 117.204 216.955 120.968 219.111C124.729 221.269 128.659 223.125 132.709 224.654C140.807 227.714 149.387 229.448 158.024 229.785C160.183 229.871 162.346 229.871 164.504 229.77L166.123 229.716L167.737 229.578L169.351 229.441L170.157 229.374L170.959 229.266L174.167 228.832L177.347 228.238L178.142 228.09L178.928 227.901L180.501 227.525C181.025 227.397 181.551 227.279 182.072 227.145L183.624 226.691C185.705 226.126 187.733 225.39 189.761 224.666L192.76 223.46C193.012 223.365 193.257 223.252 193.501 223.138L194.234 222.799L195.703 222.124C199.591 220.268 203.333 218.111 206.888 215.676L209.512 213.789C210.368 213.135 211.201 212.452 212.048 211.787L212.681 211.286L213.289 210.753L214.505 209.689C214.908 209.332 215.323 208.988 215.716 208.619L216.879 207.498L218.044 206.379L218.335 206.099L218.612 205.805L219.166 205.217L220.276 204.043L220.832 203.457C221.02 203.264 221.186 203.051 221.364 202.849L223.468 200.398L225.455 197.85C230.603 190.949 234.729 183.263 237.403 175.074L237.918 173.544C238.073 173.029 238.211 172.508 238.359 171.991L238.798 170.437L239.017 169.66L239.196 168.873L239.912 165.724L240.475 162.543C241.135 158.286 241.467 153.98 241.485 149.665Z" fill="#0B2C4A"/>
<path d="M203.286 182.642L191.673 161.379V182.642H184.037V145.683H191.461L203.02 166.893V145.683H210.656V182.642H203.286Z" fill="#E7D5A8"/>
<path d="M167.959 182.642V145.683H176.072V182.642H167.959Z" fill="#E7D5A8"/>
<path d="M152.674 182.854H141.644C136.607 182.854 133.85 180.097 133.85 175.059V153.266C133.85 148.228 136.607 145.471 141.644 145.471H152.674C157.711 145.471 160.469 148.228 160.469 153.266V175.059C160.469 180.097 157.711 182.854 152.674 182.854ZM141.963 153.743V174.582C141.963 175.484 142.387 175.908 143.288 175.908H151.03C151.932 175.908 152.356 175.484 152.356 174.582V153.743C152.356 152.841 151.932 152.417 151.03 152.417H143.288C142.387 152.417 141.963 152.841 141.963 153.743Z" fill="#E7D5A8"/>
<path d="M119.692 169.916H127.699V175.059C127.699 180.097 124.942 182.854 119.904 182.854H109.617C104.58 182.854 101.822 180.097 101.822 175.059V153.266C101.822 148.228 104.58 145.471 109.617 145.471H119.904C124.942 145.471 127.699 148.228 127.699 153.266V157.349H119.692V153.743C119.692 152.841 119.268 152.417 118.366 152.417H111.261C110.359 152.417 109.935 152.841 109.935 153.743V174.582C109.935 175.484 110.359 175.908 111.261 175.908H118.366C119.268 175.908 119.692 175.484 119.692 174.582V169.916Z" fill="#E7D5A8"/>
<path d="M206.016 182.642L194.403 161.379V182.642H186.768V145.683H194.191L205.751 166.893V145.683H213.387V182.642H206.016Z" fill="#002C4D"/>
<path d="M170.691 182.642V145.683H178.804V182.642H170.691Z" fill="#002C4D"/>
<path d="M155.406 182.854H144.377C139.339 182.854 136.582 180.097 136.582 175.059V153.266C136.582 148.228 139.339 145.471 144.377 145.471H155.406C160.444 145.471 163.201 148.228 163.201 153.266V175.059C163.201 180.097 160.444 182.854 155.406 182.854ZM144.695 153.743V174.582C144.695 175.484 145.119 175.908 146.021 175.908H153.763C154.664 175.908 155.088 175.484 155.088 174.582V153.743C155.088 152.841 154.664 152.417 153.763 152.417H146.021C145.119 152.417 144.695 152.841 144.695 153.743Z" fill="#002C4D"/>
<path d="M122.425 169.916H130.431V175.059C130.431 180.097 127.674 182.854 122.637 182.854H112.35C107.312 182.854 104.555 180.097 104.555 175.059V153.266C104.555 148.228 107.312 145.471 112.35 145.471H122.637C127.674 145.471 130.431 148.228 130.431 153.266V157.349H122.425V153.743C122.425 152.841 122 152.417 121.099 152.417H113.993C113.092 152.417 112.668 152.841 112.668 153.743V174.582C112.668 175.484 113.092 175.908 113.993 175.908H121.099C122 175.908 122.425 175.484 122.425 174.582V169.916Z" fill="#002C4D"/>
<path d="M196.945 124.35C196.937 124.35 196.928 124.353 196.918 124.357C196.898 124.353 196.878 124.35 196.856 124.35C196.848 124.35 196.839 124.353 196.829 124.357C196.808 124.353 196.788 124.35 196.766 124.35C196.758 124.35 196.749 124.353 196.739 124.357C196.719 124.353 196.698 124.35 196.676 124.35C196.668 124.35 196.659 124.353 196.649 124.357C196.629 124.353 196.608 124.35 196.586 124.35C196.578 124.35 196.569 124.353 196.559 124.357C196.539 124.353 196.518 124.35 196.496 124.35C196.488 124.35 196.479 124.353 196.469 124.357C196.449 124.353 196.429 124.35 196.406 124.35C196.398 124.35 196.389 124.353 196.379 124.357C196.359 124.353 196.339 124.35 196.317 124.35C196.309 124.35 196.3 124.353 196.29 124.357C196.269 124.353 196.249 124.35 196.227 124.35C196.219 124.35 196.21 124.353 196.2 124.357C196.18 124.353 196.159 124.35 196.137 124.35C196.129 124.35 196.12 124.353 196.11 124.357C196.09 124.353 196.069 124.35 196.047 124.35C196.039 124.35 196.03 124.353 196.02 124.357C196 124.353 195.979 124.35 195.957 124.35C195.949 124.35 195.94 124.353 195.93 124.357C195.91 124.353 195.89 124.35 195.867 124.35C195.859 124.35 195.85 124.353 195.84 124.357C195.82 124.353 195.8 124.35 195.778 124.35C195.77 124.35 195.761 124.353 195.751 124.357C195.73 124.353 195.71 124.35 195.688 124.35C195.68 124.35 195.671 124.353 195.661 124.357C195.641 124.353 195.62 124.35 195.598 124.35C195.59 124.35 195.581 124.353 195.571 124.357C195.551 124.353 195.53 124.35 195.508 124.35C195.5 124.35 195.491 124.353 195.481 124.357C195.461 124.353 195.44 124.35 195.418 124.35C195.41 124.35 195.401 124.353 195.391 124.357C195.371 124.353 195.351 124.35 195.328 124.35C195.321 124.35 195.311 124.353 195.301 124.357C195.281 124.353 195.261 124.35 195.238 124.35C195.231 124.35 195.222 124.353 195.212 124.357C195.191 124.353 195.171 124.35 195.149 124.35C195.141 124.35 195.132 124.353 195.122 124.357C195.102 124.353 195.081 124.35 195.059 124.35C194.616 124.35 190.816 131.13 186.044 132.112C185.104 131.782 184.687 130.782 184.687 129.365C184.687 128.421 184.999 127.32 185.506 126.141C185.511 126.141 185.516 126.141 185.522 126.141C185.528 126.141 185.535 126.141 185.541 126.141C185.565 126.141 185.588 126.141 185.611 126.141C185.618 126.141 185.624 126.141 185.631 126.141C185.654 126.141 185.678 126.141 185.701 126.141C185.708 126.141 185.714 126.141 185.721 126.141C185.744 126.141 185.768 126.141 185.791 126.141C185.798 126.141 185.804 126.141 185.811 126.141C185.834 126.141 185.857 126.141 185.881 126.141C192.289 126.141 196.706 120.967 196.706 117.982C196.706 116.43 195.512 114.958 194.239 114.958C194.218 114.958 194.197 114.959 194.177 114.96C194.167 114.959 194.158 114.958 194.149 114.958C194.128 114.958 194.108 114.959 194.087 114.96C194.078 114.959 194.068 114.958 194.059 114.958C194.038 114.958 194.018 114.959 193.997 114.96C193.988 114.959 193.979 114.958 193.969 114.958C193.949 114.958 193.928 114.959 193.907 114.96C193.898 114.959 193.889 114.958 193.88 114.958C193.859 114.958 193.838 114.959 193.817 114.96C193.808 114.959 193.799 114.958 193.79 114.958C193.769 114.958 193.748 114.959 193.727 114.96C193.718 114.959 193.709 114.958 193.7 114.958C193.679 114.958 193.658 114.959 193.638 114.96C193.628 114.959 193.619 114.958 193.61 114.958C193.589 114.958 193.569 114.959 193.548 114.96C193.539 114.959 193.529 114.958 193.52 114.958C193.499 114.958 193.479 114.959 193.458 114.96C193.449 114.959 193.44 114.958 193.43 114.958C193.41 114.958 193.389 114.959 193.368 114.96C193.359 114.959 193.35 114.958 193.341 114.958C193.32 114.958 193.299 114.959 193.278 114.96C193.269 114.959 193.26 114.958 193.251 114.958C193.23 114.958 193.209 114.959 193.188 114.96C193.179 114.959 193.17 114.958 193.161 114.958C193.14 114.958 193.119 114.959 193.099 114.96C193.089 114.959 193.08 114.958 193.071 114.958C193.05 114.958 193.03 114.959 193.009 114.96C193 114.959 192.991 114.958 192.981 114.958C192.96 114.958 192.94 114.959 192.919 114.96C192.91 114.959 192.901 114.958 192.891 114.958C192.871 114.958 192.85 114.959 192.829 114.96C192.82 114.959 192.811 114.958 192.802 114.958C192.781 114.958 192.76 114.959 192.739 114.96C192.73 114.959 192.721 114.958 192.712 114.958C192.691 114.958 192.67 114.959 192.649 114.96C192.64 114.959 192.631 114.958 192.622 114.958C192.601 114.958 192.58 114.959 192.56 114.96C192.55 114.959 192.541 114.958 192.532 114.958C192.511 114.958 192.491 114.959 192.47 114.96C192.461 114.959 192.451 114.958 192.442 114.958C192.421 114.958 192.401 114.959 192.38 114.96C192.371 114.959 192.362 114.958 192.352 114.958C191.517 114.958 190.76 115.395 189.328 115.395C185.399 115.395 181.124 120.321 179.146 124.935C177.856 126.601 174.595 131.307 170.679 132.111C169.741 131.78 169.324 130.781 169.324 129.365C169.324 128.421 169.636 127.32 170.144 126.141C170.149 126.141 170.154 126.141 170.159 126.141C170.166 126.141 170.172 126.141 170.179 126.141C170.202 126.141 170.225 126.141 170.249 126.141C170.255 126.141 170.262 126.141 170.268 126.141C170.292 126.141 170.315 126.141 170.339 126.141C170.345 126.141 170.352 126.141 170.358 126.141C170.382 126.141 170.405 126.141 170.429 126.141C170.435 126.141 170.441 126.141 170.448 126.141C170.471 126.141 170.495 126.141 170.518 126.141C176.926 126.141 181.344 120.967 181.344 117.982C181.344 116.43 180.15 114.958 178.876 114.958C178.856 114.958 178.835 114.959 178.814 114.96C178.805 114.959 178.796 114.958 178.786 114.958C178.766 114.958 178.745 114.959 178.724 114.96C178.715 114.959 178.706 114.958 178.697 114.958C178.676 114.958 178.655 114.959 178.634 114.96C178.625 114.959 178.616 114.958 178.607 114.958C178.586 114.958 178.565 114.959 178.545 114.96C178.535 114.959 178.526 114.958 178.517 114.958C178.496 114.958 178.475 114.959 178.455 114.96C178.446 114.959 178.436 114.958 178.427 114.958C178.406 114.958 178.386 114.959 178.365 114.96C178.356 114.959 178.347 114.958 178.337 114.958C178.317 114.958 178.296 114.959 178.275 114.96C178.266 114.959 178.257 114.958 178.247 114.958C178.227 114.958 178.206 114.959 178.185 114.96C178.176 114.959 178.167 114.958 178.158 114.958C178.137 114.958 178.116 114.959 178.095 114.96C178.086 114.959 178.077 114.958 178.068 114.958C178.047 114.958 178.026 114.959 178.006 114.96C177.996 114.959 177.987 114.958 177.978 114.958C177.957 114.958 177.936 114.959 177.916 114.96C177.907 114.959 177.897 114.958 177.888 114.958C177.867 114.958 177.847 114.959 177.826 114.96C177.817 114.959 177.808 114.958 177.798 114.958C177.777 114.958 177.757 114.959 177.736 114.96C177.727 114.959 177.718 114.958 177.708 114.958C177.688 114.958 177.667 114.959 177.646 114.96C177.637 114.959 177.628 114.958 177.619 114.958C177.598 114.958 177.577 114.959 177.556 114.96C177.547 114.959 177.538 114.958 177.529 114.958C177.508 114.958 177.487 114.959 177.467 114.96C177.457 114.959 177.448 114.958 177.439 114.958C177.418 114.958 177.398 114.959 177.377 114.96C177.367 114.959 177.358 114.958 177.349 114.958C177.328 114.958 177.308 114.959 177.287 114.96C177.278 114.959 177.269 114.958 177.259 114.958C177.238 114.958 177.218 114.959 177.197 114.96C177.188 114.959 177.179 114.958 177.17 114.958C177.149 114.958 177.128 114.959 177.107 114.96C177.098 114.959 177.089 114.958 177.08 114.958C177.059 114.958 177.038 114.959 177.017 114.96C177.008 114.959 176.999 114.958 176.99 114.958C176.154 114.958 175.398 115.395 173.965 115.395C170.007 115.395 165.698 120.394 163.74 125.038C163.193 125.76 162.285 127.061 161.269 128.291C160.405 129.358 159.363 130.376 158.463 130.973C158.462 130.954 158.459 130.936 158.459 130.917C158.459 127.813 162.559 122.042 164.071 120.41C164.947 119.415 166.18 118.778 166.18 118.062C166.18 117.147 164.708 114.958 163.593 114.958C163.573 114.958 163.55 114.958 163.526 114.959C163.518 114.959 163.511 114.958 163.503 114.958C163.483 114.958 163.46 114.958 163.436 114.959C163.429 114.959 163.421 114.958 163.414 114.958C163.394 114.958 163.371 114.958 163.346 114.959C163.339 114.959 163.331 114.958 163.324 114.958C163.304 114.958 163.281 114.958 163.256 114.959C163.249 114.959 163.241 114.958 163.234 114.958C163.214 114.958 163.191 114.958 163.167 114.959C163.159 114.959 163.152 114.958 163.144 114.958C163.124 114.958 163.101 114.958 163.077 114.959C163.069 114.959 163.062 114.958 163.054 114.958C163.034 114.958 163.011 114.958 162.987 114.959C162.979 114.959 162.972 114.958 162.965 114.958C162.944 114.958 162.921 114.958 162.897 114.959C162.89 114.959 162.882 114.958 162.875 114.958C162.855 114.958 162.832 114.958 162.807 114.959C162.8 114.959 162.792 114.958 162.785 114.958C162.765 114.958 162.742 114.958 162.717 114.959C162.71 114.959 162.702 114.958 162.695 114.958C162.675 114.958 162.652 114.958 162.628 114.959C162.62 114.959 162.613 114.958 162.605 114.958C162.585 114.958 162.562 114.958 162.538 114.959C162.53 114.959 162.523 114.958 162.515 114.958C162.495 114.958 162.472 114.958 162.448 114.959C162.44 114.959 162.433 114.958 162.426 114.958C162.405 114.958 162.382 114.958 162.358 114.959C162.351 114.959 162.343 114.958 162.336 114.958C162.316 114.958 162.293 114.958 162.268 114.959C162.261 114.959 162.253 114.958 162.246 114.958C162.226 114.958 162.203 114.958 162.178 114.959C162.171 114.959 162.163 114.958 162.156 114.958C162.136 114.958 162.113 114.958 162.089 114.959C162.081 114.959 162.074 114.958 162.066 114.958C162.046 114.958 162.023 114.958 161.999 114.959C161.991 114.959 161.984 114.958 161.976 114.958C161.956 114.958 161.933 114.958 161.909 114.959C161.901 114.959 161.894 114.958 161.887 114.958C161.866 114.958 161.843 114.958 161.819 114.959C161.812 114.959 161.804 114.958 161.797 114.958C161.777 114.958 161.754 114.958 161.729 114.959C161.722 114.959 161.714 114.958 161.707 114.958C161.28 114.958 159.869 115.145 158.391 115.232C158.158 115.183 158.061 115.098 158.061 114.997C158.061 114.878 158.459 114.56 158.459 113.764C158.459 113.087 158.141 112.729 157.544 112.729C157.517 112.729 157.49 112.729 157.464 112.73C157.46 112.729 157.457 112.729 157.454 112.729C157.427 112.729 157.401 112.729 157.374 112.73C157.371 112.73 157.368 112.729 157.364 112.729C157.337 112.729 157.311 112.729 157.284 112.73C157.281 112.73 157.278 112.729 157.274 112.729C157.247 112.729 157.221 112.729 157.195 112.73C157.191 112.73 157.188 112.729 157.184 112.729C157.157 112.729 157.131 112.729 157.105 112.73C157.101 112.73 157.098 112.729 157.095 112.729C157.068 112.729 157.041 112.729 157.015 112.73C157.011 112.73 157.008 112.729 157.005 112.729C156.978 112.729 156.951 112.729 156.925 112.73C156.921 112.73 156.918 112.729 156.915 112.729C156.888 112.729 156.862 112.729 156.835 112.73C156.832 112.73 156.829 112.729 156.825 112.729C156.798 112.729 156.772 112.729 156.745 112.73C156.742 112.73 156.739 112.729 156.735 112.729C156.708 112.729 156.682 112.729 156.656 112.73C156.652 112.73 156.649 112.729 156.645 112.729C156.618 112.729 156.592 112.729 156.566 112.73C156.562 112.73 156.559 112.729 156.556 112.729C156.529 112.729 156.502 112.729 156.476 112.73C156.472 112.73 156.469 112.729 156.466 112.729C156.439 112.729 156.412 112.729 156.386 112.73C156.382 112.73 156.379 112.729 156.376 112.729C156.349 112.729 156.323 112.729 156.296 112.73C156.293 112.73 156.29 112.729 156.286 112.729C156.259 112.729 156.233 112.729 156.206 112.73C156.203 112.73 156.2 112.729 156.196 112.729C156.169 112.729 156.143 112.729 156.117 112.73C156.113 112.73 156.11 112.729 156.106 112.729C156.079 112.729 156.053 112.729 156.027 112.73C156.023 112.73 156.02 112.729 156.017 112.729C155.99 112.729 155.963 112.729 155.937 112.73C155.933 112.73 155.93 112.729 155.927 112.729C155.9 112.729 155.874 112.729 155.847 112.73C155.843 112.73 155.84 112.729 155.837 112.729C155.81 112.729 155.784 112.729 155.757 112.73C155.754 112.73 155.751 112.729 155.747 112.729C155.72 112.729 155.694 112.729 155.667 112.73C155.664 112.73 155.661 112.729 155.657 112.729C154.388 112.729 153.788 113.101 153.031 114.92C153.01 114.919 152.989 114.918 152.967 114.918C152.955 114.918 152.943 114.919 152.931 114.92C152.913 114.919 152.896 114.918 152.877 114.918C152.865 114.918 152.853 114.919 152.841 114.92C152.823 114.919 152.806 114.918 152.787 114.918C152.775 114.918 152.764 114.919 152.752 114.92C152.733 114.919 152.716 114.918 152.697 114.918C152.685 114.918 152.674 114.919 152.662 114.92C152.643 114.919 152.627 114.918 152.607 114.918C152.595 114.918 152.584 114.919 152.572 114.92C152.554 114.919 152.537 114.918 152.517 114.918C152.505 114.918 152.494 114.919 152.482 114.92C152.464 114.919 152.447 114.918 152.428 114.918C152.416 114.918 152.404 114.919 152.392 114.92C152.374 114.919 152.357 114.918 152.338 114.918C152.326 114.918 152.314 114.919 152.302 114.92C152.284 114.919 152.267 114.918 152.248 114.918C152.236 114.918 152.225 114.919 152.213 114.92C152.194 114.919 152.177 114.918 152.158 114.918C152.146 114.918 152.135 114.919 152.123 114.92C152.104 114.919 152.088 114.918 152.068 114.918C152.056 114.918 152.045 114.919 152.033 114.92C152.015 114.919 151.998 114.918 151.978 114.918C151.966 114.918 151.955 114.919 151.943 114.92C151.925 114.919 151.908 114.918 151.889 114.918C151.877 114.918 151.865 114.919 151.853 114.92C151.835 114.919 151.818 114.918 151.799 114.918C151.787 114.918 151.775 114.919 151.763 114.92C151.745 114.919 151.728 114.918 151.709 114.918C151.697 114.918 151.686 114.919 151.674 114.92C151.655 114.919 151.638 114.918 151.619 114.918C151.607 114.918 151.596 114.919 151.584 114.92C151.565 114.919 151.549 114.918 151.529 114.918C151.517 114.918 151.506 114.919 151.494 114.92C151.476 114.919 151.459 114.918 151.439 114.918C151.427 114.918 151.416 114.919 151.404 114.92C151.386 114.919 151.369 114.918 151.35 114.918C151.338 114.918 151.326 114.919 151.314 114.92C151.296 114.919 151.279 114.918 151.26 114.918C151.248 114.918 151.236 114.919 151.224 114.92C151.206 114.919 151.189 114.918 151.17 114.918C151.158 114.918 151.147 114.919 151.135 114.92C151.116 114.919 151.099 114.918 151.08 114.918C149.448 114.918 148.493 116.271 147.379 116.868C147.279 116.924 147.134 116.97 146.955 117.007C148.757 113.759 150.479 110.794 151.852 109.107C154.001 106.44 156.429 105.525 156.429 104.888C156.429 104.45 155.554 104.212 155.036 104.212C155.031 104.212 155.025 104.213 155.019 104.214C154.995 104.213 154.97 104.212 154.946 104.212C154.941 104.212 154.935 104.213 154.93 104.214C154.905 104.213 154.88 104.212 154.857 104.212C154.851 104.212 154.845 104.213 154.84 104.214C154.815 104.213 154.79 104.212 154.767 104.212C154.762 104.212 154.755 104.213 154.75 104.214C154.725 104.213 154.7 104.212 154.677 104.212C154.672 104.212 154.665 104.213 154.66 104.214C154.635 104.213 154.61 104.212 154.587 104.212C154.582 104.212 154.575 104.213 154.57 104.214C154.546 104.213 154.521 104.212 154.497 104.212C154.492 104.212 154.486 104.213 154.48 104.214C154.456 104.213 154.431 104.212 154.407 104.212C154.402 104.212 154.396 104.213 154.391 104.214C154.366 104.213 154.341 104.212 154.318 104.212C154.313 104.212 154.306 104.213 154.301 104.214C154.276 104.213 154.251 104.212 154.228 104.212C154.223 104.212 154.216 104.213 154.211 104.214C154.186 104.213 154.161 104.212 154.138 104.212C154.133 104.212 154.126 104.213 154.121 104.214C154.096 104.213 154.071 104.212 154.048 104.212C154.043 104.212 154.036 104.213 154.031 104.214C154.007 104.213 153.982 104.212 153.958 104.212C153.953 104.212 153.947 104.213 153.941 104.214C153.917 104.213 153.892 104.212 153.868 104.212C153.863 104.212 153.857 104.213 153.852 104.214C153.827 104.213 153.802 104.212 153.779 104.212C153.774 104.212 153.767 104.213 153.762 104.214C153.737 104.213 153.712 104.212 153.689 104.212C153.684 104.212 153.677 104.213 153.672 104.214C153.647 104.213 153.622 104.212 153.599 104.212C153.594 104.212 153.587 104.213 153.582 104.214C153.557 104.213 153.532 104.212 153.509 104.212C153.504 104.212 153.497 104.213 153.492 104.214C153.467 104.213 153.443 104.212 153.419 104.212C153.414 104.212 153.408 104.213 153.402 104.214C153.378 104.213 153.353 104.212 153.329 104.212C153.324 104.212 153.318 104.213 153.313 104.214C153.288 104.213 153.263 104.212 153.24 104.212C153.235 104.212 153.228 104.213 153.223 104.214C153.198 104.213 153.173 104.212 153.15 104.212C152.639 104.212 151.324 105.246 149.546 105.418C143.362 105.178 141.491 103.376 136.848 103.376C136.834 103.376 136.821 103.376 136.808 103.376C136.791 103.376 136.775 103.376 136.758 103.376C136.745 103.376 136.731 103.376 136.718 103.376C136.701 103.376 136.685 103.376 136.668 103.376C136.655 103.376 136.642 103.376 136.628 103.376C136.611 103.376 136.595 103.376 136.578 103.376C136.565 103.376 136.552 103.376 136.539 103.376C136.522 103.376 136.505 103.376 136.488 103.376C136.475 103.376 136.462 103.376 136.449 103.376C136.432 103.376 136.416 103.376 136.398 103.376C136.385 103.376 136.372 103.376 136.359 103.376C136.342 103.376 136.326 103.376 136.309 103.376C136.295 103.376 136.282 103.376 136.269 103.376C136.252 103.376 136.236 103.376 136.219 103.376C136.205 103.376 136.192 103.376 136.179 103.376C136.162 103.376 136.146 103.376 136.129 103.376C136.116 103.376 136.103 103.376 136.089 103.376C136.072 103.376 136.056 103.376 136.039 103.376C136.026 103.376 136.013 103.376 136 103.376C135.983 103.376 135.966 103.376 135.949 103.376C135.936 103.376 135.923 103.376 135.91 103.376C135.893 103.376 135.877 103.376 135.859 103.376C135.846 103.376 135.833 103.376 135.82 103.376C135.803 103.376 135.787 103.376 135.77 103.376C135.756 103.376 135.743 103.376 135.73 103.376C135.713 103.376 135.697 103.376 135.68 103.376C135.666 103.376 135.653 103.376 135.64 103.376C135.623 103.376 135.607 103.376 135.59 103.376C135.577 103.376 135.564 103.376 135.55 103.376C135.533 103.376 135.517 103.376 135.5 103.376C135.487 103.376 135.474 103.376 135.461 103.376C135.444 103.376 135.427 103.376 135.41 103.376C135.397 103.376 135.384 103.376 135.371 103.376C135.354 103.376 135.338 103.376 135.32 103.376C135.307 103.376 135.294 103.376 135.281 103.376C135.264 103.376 135.248 103.376 135.231 103.376C135.217 103.376 135.204 103.376 135.191 103.376C135.174 103.376 135.158 103.376 135.141 103.376C135.127 103.376 135.114 103.376 135.101 103.376C135.084 103.376 135.068 103.376 135.051 103.376C135.038 103.376 135.025 103.376 135.011 103.376C134.994 103.376 134.978 103.376 134.961 103.376C130.742 103.376 127.24 105.605 127.24 109.226C127.24 111.097 128.673 112.49 130.384 112.49C130.402 112.49 130.419 112.488 130.437 112.488C130.45 112.488 130.462 112.49 130.474 112.49C130.492 112.49 130.509 112.488 130.527 112.488C130.54 112.488 130.551 112.49 130.564 112.49C130.582 112.49 130.599 112.488 130.617 112.488C130.629 112.488 130.641 112.49 130.654 112.49C130.672 112.49 130.689 112.488 130.707 112.488C130.719 112.488 130.731 112.49 130.743 112.49C130.762 112.49 130.779 112.488 130.797 112.488C130.809 112.488 130.821 112.49 130.833 112.49C130.851 112.49 130.868 112.488 130.887 112.488C130.899 112.488 130.911 112.49 130.923 112.49C130.941 112.49 130.958 112.488 130.976 112.488C130.989 112.488 131.001 112.49 131.013 112.49C131.031 112.49 131.048 112.488 131.066 112.488C131.078 112.488 131.09 112.49 131.103 112.49C131.121 112.49 131.138 112.488 131.156 112.488C131.168 112.488 131.18 112.49 131.192 112.49C131.211 112.49 131.228 112.488 131.246 112.488C131.258 112.488 131.27 112.49 131.282 112.49C131.301 112.49 131.318 112.488 131.336 112.488C131.348 112.488 131.36 112.49 131.372 112.49C131.39 112.49 131.407 112.488 131.426 112.488C131.438 112.488 131.45 112.49 131.462 112.49C131.48 112.49 131.497 112.488 131.515 112.488C131.528 112.488 131.54 112.49 131.552 112.49C131.57 112.49 131.587 112.488 131.605 112.488C131.617 112.488 131.629 112.49 131.642 112.49C131.66 112.49 131.677 112.488 131.695 112.488C131.707 112.488 131.719 112.49 131.731 112.49C131.75 112.49 131.767 112.488 131.785 112.488C131.797 112.488 131.809 112.49 131.821 112.49C131.84 112.49 131.857 112.488 131.875 112.488C131.887 112.488 131.899 112.49 131.911 112.49C131.929 112.49 131.946 112.488 131.965 112.488C131.977 112.488 131.989 112.49 132.001 112.49C132.019 112.49 132.036 112.488 132.054 112.488C132.067 112.488 132.079 112.49 132.091 112.49C132.109 112.49 132.126 112.488 132.144 112.488C132.156 112.488 132.168 112.49 132.181 112.49C132.199 112.49 132.216 112.488 132.234 112.488C132.246 112.488 132.258 112.49 132.271 112.49C133.902 112.49 134.857 111.575 134.857 111.415C134.857 111.323 134.795 111.309 134.676 111.319C134.651 111.316 134.621 111.316 134.586 111.319C134.561 111.316 134.531 111.316 134.496 111.319C134.471 111.316 134.442 111.316 134.406 111.319C134.381 111.316 134.352 111.316 134.317 111.319C134.292 111.316 134.262 111.316 134.227 111.319C134.202 111.316 134.172 111.316 134.137 111.319C134.112 111.316 134.082 111.316 134.047 111.319C134.022 111.316 133.992 111.316 133.957 111.319C133.932 111.316 133.903 111.316 133.867 111.319C133.842 111.316 133.813 111.316 133.777 111.319C133.753 111.316 133.723 111.316 133.688 111.319C133.663 111.316 133.633 111.316 133.598 111.319C133.573 111.316 133.543 111.316 133.508 111.319C133.497 111.318 133.487 111.316 133.474 111.316C132.57 111.123 131.793 110.455 131.793 109.425C131.793 108.241 132.738 107.056 134.469 106.779C137.533 107.094 140.865 108.55 143.279 108.55C143.301 108.55 143.322 108.549 143.343 108.549C143.352 108.549 143.361 108.55 143.369 108.55C143.391 108.55 143.412 108.549 143.433 108.549C143.442 108.549 143.45 108.55 143.459 108.55C143.481 108.55 143.501 108.549 143.523 108.549C143.532 108.549 143.54 108.55 143.549 108.55C143.571 108.55 143.591 108.549 143.613 108.549C143.621 108.549 143.63 108.55 143.639 108.55C143.66 108.55 143.681 108.549 143.703 108.549C143.711 108.549 143.72 108.55 143.728 108.55C143.75 108.55 143.771 108.549 143.792 108.549C143.801 108.549 143.81 108.55 143.818 108.55C143.84 108.55 143.861 108.549 143.882 108.549C143.891 108.549 143.9 108.55 143.908 108.55C143.93 108.55 143.951 108.549 143.972 108.549C143.981 108.549 143.989 108.55 143.998 108.55C144.02 108.55 144.04 108.549 144.062 108.549C144.071 108.549 144.079 108.55 144.088 108.55C144.11 108.55 144.13 108.549 144.152 108.549C144.16 108.549 144.169 108.55 144.178 108.55C144.199 108.55 144.22 108.549 144.242 108.549C144.25 108.549 144.259 108.55 144.267 108.55C144.289 108.55 144.31 108.549 144.331 108.549C144.34 108.549 144.349 108.55 144.357 108.55C144.379 108.55 144.4 108.549 144.421 108.549C144.43 108.549 144.439 108.55 144.447 108.55C144.469 108.55 144.49 108.549 144.511 108.549C144.52 108.549 144.528 108.55 144.537 108.55C144.559 108.55 144.579 108.549 144.601 108.549C144.61 108.549 144.618 108.55 144.627 108.55C144.649 108.55 144.669 108.549 144.691 108.549C144.699 108.549 144.708 108.55 144.717 108.55C144.739 108.55 144.759 108.549 144.781 108.549C144.789 108.549 144.798 108.55 144.806 108.55C144.828 108.55 144.849 108.549 144.87 108.549C144.879 108.549 144.888 108.55 144.896 108.55C144.918 108.55 144.939 108.549 144.96 108.549C144.969 108.549 144.978 108.55 144.986 108.55C145.008 108.55 145.029 108.549 145.05 108.549C145.059 108.549 145.067 108.55 145.076 108.55C145.098 108.55 145.118 108.549 145.14 108.549C145.149 108.549 145.157 108.55 145.166 108.55C145.329 108.55 145.483 108.547 145.631 108.541C143.998 109.505 141.27 112.13 138.803 116.868C138.801 116.868 138.799 116.868 138.797 116.868C138.772 116.868 138.747 116.868 138.724 116.868C138.718 116.868 138.713 116.868 138.707 116.868C138.682 116.868 138.657 116.868 138.634 116.868C138.628 116.868 138.623 116.868 138.617 116.868C138.593 116.868 138.567 116.868 138.544 116.868C138.538 116.868 138.533 116.868 138.527 116.868C138.503 116.868 138.477 116.868 138.454 116.868C138.449 116.868 138.443 116.868 138.437 116.868C138.413 116.868 138.387 116.868 138.365 116.868C138.359 116.868 138.353 116.868 138.348 116.868C138.323 116.868 138.298 116.868 138.275 116.868C138.269 116.868 138.264 116.868 138.258 116.868C138.233 116.868 138.208 116.868 138.185 116.868C135.853 116.868 134.539 117.681 133.813 118.536C132.767 116.495 130.696 114.997 127.892 114.997C127.879 114.997 127.866 114.999 127.852 114.999C127.836 114.999 127.819 114.997 127.803 114.997C127.789 114.997 127.776 114.999 127.763 114.999C127.746 114.999 127.73 114.997 127.713 114.997C127.7 114.997 127.686 114.999 127.673 114.999C127.656 114.999 127.64 114.997 127.623 114.997C127.61 114.997 127.596 114.999 127.583 114.999C127.566 114.999 127.55 114.997 127.533 114.997C127.52 114.997 127.506 114.999 127.493 114.999C127.476 114.999 127.46 114.997 127.443 114.997C127.43 114.997 127.417 114.999 127.403 114.999C127.387 114.999 127.37 114.997 127.354 114.997C127.34 114.997 127.327 114.999 127.313 114.999C127.297 114.999 127.28 114.997 127.264 114.997C127.25 114.997 127.237 114.999 127.224 114.999C127.207 114.999 127.191 114.997 127.174 114.997C127.161 114.997 127.147 114.999 127.134 114.999C127.117 114.999 127.101 114.997 127.084 114.997C127.071 114.997 127.057 114.999 127.044 114.999C127.027 114.999 127.011 114.997 126.994 114.997C126.981 114.997 126.967 114.999 126.954 114.999C126.937 114.999 126.921 114.997 126.904 114.997C126.891 114.997 126.878 114.999 126.864 114.999C126.848 114.999 126.831 114.997 126.815 114.997C126.801 114.997 126.788 114.999 126.774 114.999C126.758 114.999 126.741 114.997 126.725 114.997C126.711 114.997 126.698 114.999 126.685 114.999C126.668 114.999 126.652 114.997 126.635 114.997C126.622 114.997 126.608 114.999 126.595 114.999C126.578 114.999 126.562 114.997 126.545 114.997C126.532 114.997 126.518 114.999 126.505 114.999C126.488 114.999 126.472 114.997 126.455 114.997C126.442 114.997 126.428 114.999 126.415 114.999C126.398 114.999 126.382 114.997 126.365 114.997C126.352 114.997 126.339 114.999 126.325 114.999C126.309 114.999 126.292 114.997 126.276 114.997C126.262 114.997 126.249 114.999 126.235 114.999C126.219 114.999 126.202 114.997 126.186 114.997C126.172 114.997 126.159 114.999 126.146 114.999C126.129 114.999 126.113 114.997 126.096 114.997C126.083 114.997 126.069 114.999 126.056 114.999C126.039 114.999 126.023 114.997 126.006 114.997C121.628 114.997 116.613 119.336 116.613 125.584C116.613 132.191 121.23 135.574 126.444 135.574C126.461 135.574 126.478 135.573 126.495 135.573C126.508 135.573 126.521 135.574 126.534 135.574C126.551 135.574 126.568 135.573 126.585 135.573C126.598 135.573 126.611 135.574 126.624 135.574C126.641 135.574 126.658 135.573 126.675 135.573C126.688 135.573 126.7 135.574 126.713 135.574C126.731 135.574 126.747 135.573 126.764 135.573C126.777 135.573 126.79 135.574 126.803 135.574C126.82 135.574 126.837 135.573 126.854 135.573C126.867 135.573 126.88 135.574 126.893 135.574C126.91 135.574 126.927 135.573 126.944 135.573C126.957 135.573 126.97 135.574 126.983 135.574C127 135.574 127.017 135.573 127.034 135.573C127.047 135.573 127.06 135.574 127.073 135.574C127.09 135.574 127.107 135.573 127.124 135.573C127.137 135.573 127.15 135.574 127.163 135.574C127.18 135.574 127.196 135.573 127.214 135.573C127.227 135.573 127.239 135.574 127.252 135.574C127.27 135.574 127.286 135.573 127.303 135.573C127.316 135.573 127.329 135.574 127.342 135.574C127.359 135.574 127.376 135.573 127.393 135.573C127.406 135.573 127.419 135.574 127.432 135.574C127.449 135.574 127.466 135.573 127.483 135.573C127.496 135.573 127.509 135.574 127.522 135.574C127.539 135.574 127.556 135.573 127.573 135.573C127.586 135.573 127.599 135.574 127.612 135.574C127.629 135.574 127.646 135.573 127.663 135.573C127.676 135.573 127.689 135.574 127.702 135.574C127.719 135.574 127.735 135.573 127.753 135.573C127.766 135.573 127.778 135.574 127.791 135.574C127.809 135.574 127.825 135.573 127.842 135.573C127.855 135.573 127.868 135.574 127.881 135.574C127.898 135.574 127.915 135.573 127.932 135.573C127.945 135.573 127.958 135.574 127.971 135.574C127.988 135.574 128.005 135.573 128.022 135.573C128.035 135.573 128.048 135.574 128.061 135.574C128.078 135.574 128.095 135.573 128.112 135.573C128.125 135.573 128.138 135.574 128.151 135.574C128.168 135.574 128.185 135.573 128.202 135.573C128.215 135.573 128.228 135.574 128.241 135.574C128.258 135.574 128.274 135.573 128.292 135.573C128.305 135.573 128.317 135.574 128.33 135.574C132.868 135.574 136.052 133.345 139.236 129.843C140.38 128.587 141.876 126.118 143.477 123.273C143.784 123.929 144.931 124.549 145.548 124.549C145.556 124.549 145.564 124.547 145.573 124.545C145.594 124.546 145.617 124.549 145.638 124.549C145.645 124.549 145.654 124.547 145.663 124.545C145.684 124.546 145.707 124.549 145.728 124.549C145.735 124.549 145.744 124.547 145.753 124.545C145.774 124.546 145.797 124.549 145.817 124.549C145.825 124.549 145.834 124.547 145.843 124.545C145.864 124.546 145.887 124.549 145.907 124.549C145.915 124.549 145.924 124.547 145.932 124.545C145.954 124.546 145.977 124.549 145.997 124.549C146.005 124.549 146.014 124.547 146.022 124.545C146.044 124.546 146.067 124.549 146.087 124.549C146.095 124.549 146.103 124.547 146.112 124.545C146.134 124.546 146.156 124.549 146.177 124.549C146.184 124.549 146.193 124.547 146.202 124.545C146.223 124.546 146.246 124.549 146.267 124.549C146.274 124.549 146.283 124.547 146.292 124.545C146.313 124.546 146.336 124.549 146.356 124.549C146.364 124.549 146.373 124.547 146.381 124.545C146.403 124.546 146.426 124.549 146.446 124.549C146.454 124.549 146.463 124.547 146.471 124.545C146.493 124.546 146.516 124.549 146.536 124.549C146.544 124.549 146.553 124.547 146.561 124.545C146.583 124.546 146.606 124.549 146.626 124.549C146.634 124.549 146.642 124.547 146.651 124.545C146.673 124.546 146.695 124.549 146.716 124.549C146.723 124.549 146.732 124.547 146.741 124.545C146.762 124.546 146.785 124.549 146.806 124.549C146.813 124.549 146.822 124.547 146.831 124.545C146.852 124.546 146.875 124.549 146.895 124.549C146.903 124.549 146.912 124.547 146.92 124.545C146.942 124.546 146.965 124.549 146.985 124.549C146.993 124.549 147.002 124.547 147.01 124.545C147.032 124.546 147.055 124.549 147.075 124.549C147.083 124.549 147.092 124.547 147.1 124.545C147.122 124.546 147.145 124.549 147.165 124.549C147.173 124.549 147.181 124.547 147.19 124.545C147.212 124.546 147.234 124.549 147.255 124.549C147.262 124.549 147.271 124.547 147.28 124.545C147.301 124.546 147.324 124.549 147.345 124.549C147.352 124.549 147.361 124.547 147.37 124.545C147.391 124.546 147.414 124.549 147.434 124.549C147.891 124.549 150.243 120.938 151.886 118.251C151.609 119.085 151.274 119.984 150.762 121.007C149.687 123.276 148.652 124.828 148.135 125.584C148.016 125.783 147.777 126.181 147.777 126.46C147.777 127.176 148.016 127.654 148.374 127.654C148.388 127.654 148.402 127.652 148.417 127.65C148.432 127.652 148.448 127.654 148.464 127.654C148.478 127.654 148.492 127.652 148.506 127.65C148.522 127.652 148.537 127.654 148.553 127.654C148.568 127.654 148.582 127.652 148.596 127.65C148.612 127.652 148.627 127.654 148.643 127.654C148.658 127.654 148.672 127.652 148.686 127.65C148.702 127.652 148.717 127.654 148.733 127.654C148.747 127.654 148.762 127.652 148.776 127.65C148.791 127.652 148.807 127.654 148.823 127.654C148.837 127.654 148.852 127.652 148.866 127.65C148.881 127.652 148.897 127.654 148.913 127.654C148.927 127.654 148.941 127.652 148.956 127.65C148.971 127.652 148.987 127.654 149.003 127.654C149.017 127.654 149.031 127.652 149.045 127.65C149.061 127.652 149.076 127.654 149.092 127.654C149.107 127.654 149.121 127.652 149.135 127.65C149.151 127.652 149.166 127.654 149.182 127.654C149.197 127.654 149.211 127.652 149.225 127.65C149.241 127.652 149.256 127.654 149.272 127.654C149.286 127.654 149.301 127.652 149.315 127.65C149.33 127.652 149.346 127.654 149.362 127.654C149.376 127.654 149.391 127.652 149.405 127.65C149.42 127.652 149.436 127.654 149.452 127.654C149.466 127.654 149.48 127.652 149.495 127.65C149.51 127.652 149.526 127.654 149.542 127.654C149.556 127.654 149.57 127.652 149.584 127.65C149.6 127.652 149.615 127.654 149.631 127.654C149.646 127.654 149.66 127.652 149.674 127.65C149.69 127.652 149.705 127.654 149.721 127.654C149.736 127.654 149.75 127.652 149.764 127.65C149.78 127.652 149.795 127.654 149.811 127.654C149.825 127.654 149.84 127.652 149.854 127.65C149.869 127.652 149.885 127.654 149.901 127.654C149.915 127.654 149.93 127.652 149.944 127.65C149.959 127.652 149.975 127.654 149.991 127.654C150.005 127.654 150.019 127.652 150.034 127.65C150.049 127.652 150.065 127.654 150.081 127.654C150.095 127.654 150.109 127.652 150.123 127.65C150.139 127.652 150.154 127.654 150.17 127.654C150.185 127.654 150.199 127.652 150.213 127.65C150.229 127.652 150.244 127.654 150.26 127.654C150.42 127.654 150.579 127.534 150.698 127.335C152.057 125.395 153.945 122.582 155.847 119.491C156.174 119.618 156.413 119.739 156.413 119.773C156.413 119.893 151.04 127.057 151.04 130.957C151.04 133.823 152.991 135.295 155.498 135.295C155.506 135.295 155.515 135.294 155.524 135.294C155.545 135.294 155.566 135.295 155.588 135.295C155.596 135.295 155.605 135.294 155.613 135.294C155.635 135.294 155.656 135.295 155.678 135.295C155.686 135.295 155.695 135.294 155.703 135.294C155.725 135.294 155.746 135.295 155.768 135.295C155.776 135.295 155.785 135.294 155.793 135.294C155.815 135.294 155.836 135.295 155.857 135.295C155.866 135.295 155.875 135.294 155.883 135.294C155.904 135.294 155.926 135.295 155.947 135.295C155.956 135.295 155.964 135.294 155.973 135.294C155.994 135.294 156.015 135.295 156.037 135.295C156.045 135.295 156.054 135.294 156.063 135.294C156.084 135.294 156.105 135.295 156.127 135.295C156.135 135.295 156.144 135.294 156.152 135.294C156.174 135.294 156.195 135.295 156.217 135.295C156.225 135.295 156.234 135.294 156.242 135.294C156.264 135.294 156.285 135.295 156.307 135.295C156.315 135.295 156.324 135.294 156.332 135.294C156.354 135.294 156.375 135.295 156.396 135.295C156.405 135.295 156.413 135.294 156.422 135.294C156.443 135.294 156.465 135.295 156.486 135.295C156.495 135.295 156.503 135.294 156.512 135.294C156.533 135.294 156.554 135.295 156.576 135.295C156.584 135.295 156.593 135.294 156.602 135.294C156.623 135.294 156.644 135.295 156.666 135.295C156.674 135.295 156.683 135.294 156.691 135.294C156.713 135.294 156.734 135.295 156.756 135.295C156.764 135.295 156.773 135.294 156.781 135.294C156.803 135.294 156.824 135.295 156.846 135.295C156.854 135.295 156.863 135.294 156.871 135.294C156.893 135.294 156.914 135.295 156.935 135.295C156.944 135.295 156.952 135.294 156.961 135.294C156.982 135.294 157.004 135.295 157.025 135.295C157.034 135.295 157.042 135.294 157.051 135.294C157.072 135.294 157.093 135.295 157.115 135.295C157.123 135.295 157.132 135.294 157.14 135.294C157.162 135.294 157.183 135.295 157.205 135.295C157.213 135.295 157.222 135.294 157.23 135.294C157.252 135.294 157.273 135.295 157.295 135.295C157.303 135.295 157.312 135.294 157.32 135.294C157.342 135.294 157.363 135.295 157.385 135.295C158.989 135.295 161.097 133.442 162.897 131.377C163.518 133.764 165.305 135.534 167.478 135.534C167.494 135.534 167.511 135.533 167.528 135.533C167.541 135.533 167.554 135.534 167.567 135.534C167.584 135.534 167.601 135.533 167.618 135.533C167.631 135.533 167.644 135.534 167.657 135.534C167.674 135.534 167.691 135.533 167.707 135.533C167.721 135.533 167.734 135.534 167.747 135.534C167.764 135.534 167.78 135.533 167.797 135.533C167.811 135.533 167.824 135.534 167.837 135.534C167.854 135.534 167.87 135.533 167.887 135.533C167.9 135.533 167.913 135.534 167.927 135.534C167.943 135.534 167.96 135.533 167.977 135.533C167.99 135.533 168.003 135.534 168.017 135.534C168.033 135.534 168.05 135.533 168.067 135.533C168.08 135.533 168.093 135.534 168.106 135.534C168.123 135.534 168.14 135.533 168.157 135.533C168.17 135.533 168.183 135.534 168.196 135.534C168.213 135.534 168.23 135.533 168.246 135.533C168.26 135.533 168.273 135.534 168.286 135.534C168.303 135.534 168.319 135.533 168.336 135.533C168.35 135.533 168.363 135.534 168.376 135.534C168.393 135.534 168.409 135.533 168.426 135.533C168.439 135.533 168.452 135.534 168.466 135.534C168.483 135.534 168.499 135.533 168.516 135.533C168.529 135.533 168.542 135.534 168.556 135.534C168.572 135.534 168.589 135.533 168.606 135.533C168.619 135.533 168.632 135.534 168.645 135.534C168.662 135.534 168.679 135.533 168.696 135.533C168.709 135.533 168.722 135.534 168.735 135.534C168.752 135.534 168.769 135.533 168.785 135.533C168.799 135.533 168.812 135.534 168.825 135.534C168.842 135.534 168.858 135.533 168.875 135.533C168.888 135.533 168.902 135.534 168.915 135.534C168.932 135.534 168.948 135.533 168.965 135.533C168.978 135.533 168.991 135.534 169.005 135.534C169.022 135.534 169.038 135.533 169.055 135.533C169.068 135.533 169.081 135.534 169.095 135.534C169.111 135.534 169.128 135.533 169.145 135.533C169.158 135.533 169.171 135.534 169.184 135.534C169.201 135.534 169.218 135.533 169.235 135.533C169.248 135.533 169.261 135.534 169.274 135.534C169.291 135.534 169.308 135.533 169.324 135.533C169.338 135.533 169.351 135.534 169.364 135.534C172.673 135.534 175.851 133.418 178.2 131.126C178.757 133.638 180.592 135.534 182.84 135.534C182.859 135.534 182.877 135.533 182.896 135.533C182.907 135.533 182.918 135.534 182.93 135.534C182.948 135.534 182.967 135.533 182.985 135.533C182.997 135.533 183.008 135.534 183.02 135.534C183.038 135.534 183.057 135.533 183.075 135.533C183.087 135.533 183.098 135.534 183.11 135.534C183.128 135.534 183.147 135.533 183.165 135.533C183.177 135.533 183.188 135.534 183.199 135.534C183.218 135.534 183.236 135.533 183.255 135.533C183.266 135.533 183.278 135.534 183.289 135.534C183.308 135.534 183.326 135.533 183.345 135.533C183.356 135.533 183.368 135.534 183.379 135.534C183.398 135.534 183.416 135.533 183.435 135.533C183.446 135.533 183.457 135.534 183.469 135.534C183.487 135.534 183.506 135.533 183.524 135.533C183.536 135.533 183.547 135.534 183.559 135.534C183.577 135.534 183.596 135.533 183.614 135.533C183.626 135.533 183.637 135.534 183.649 135.534C183.667 135.534 183.686 135.533 183.704 135.533C183.716 135.533 183.727 135.534 183.738 135.534C183.757 135.534 183.775 135.533 183.794 135.533C183.805 135.533 183.817 135.534 183.828 135.534C183.847 135.534 183.865 135.533 183.884 135.533C183.895 135.533 183.907 135.534 183.918 135.534C183.937 135.534 183.955 135.533 183.973 135.533C183.985 135.533 183.996 135.534 184.008 135.534C184.026 135.534 184.045 135.533 184.063 135.533C184.075 135.533 184.086 135.534 184.098 135.534C184.116 135.534 184.135 135.533 184.153 135.533C184.165 135.533 184.176 135.534 184.188 135.534C184.206 135.534 184.224 135.533 184.243 135.533C184.255 135.533 184.266 135.534 184.278 135.534C184.296 135.534 184.314 135.533 184.333 135.533C184.344 135.533 184.356 135.534 184.367 135.534C184.386 135.534 184.404 135.533 184.423 135.533C184.434 135.533 184.446 135.534 184.457 135.534C184.476 135.534 184.494 135.533 184.512 135.533C184.524 135.533 184.535 135.534 184.547 135.534C184.565 135.534 184.584 135.533 184.602 135.533C184.614 135.533 184.625 135.534 184.637 135.534C184.655 135.534 184.674 135.533 184.692 135.533C184.704 135.533 184.715 135.534 184.727 135.534C191.333 135.534 197.423 127.097 197.423 125.664C197.423 125.067 197.383 124.35 196.945 124.35ZM191.875 117.943C191.875 119.649 189.556 121.895 187.069 123.192C188.554 120.832 190.459 118.679 191.854 117.75C191.867 117.81 191.875 117.873 191.875 117.943ZM176.512 117.943C176.512 119.649 174.194 121.895 171.707 123.192C173.192 120.832 175.096 118.679 176.492 117.75C176.504 117.81 176.512 117.873 176.512 117.943ZM125.952 128.768C125.962 128.768 125.972 128.768 125.982 128.767C126.002 128.768 126.022 128.768 126.041 128.768C126.052 128.768 126.062 128.768 126.072 128.767C126.092 128.768 126.112 128.768 126.131 128.768C126.142 128.768 126.152 128.768 126.162 128.767C126.182 128.768 126.201 128.768 126.221 128.768C131.116 128.768 134.579 125.345 134.579 121.724C134.579 121.483 134.565 121.243 134.541 121.005C134.563 121.006 134.584 121.007 134.606 121.007C134.611 121.007 134.616 121.005 134.621 121.005C134.646 121.006 134.671 121.007 134.696 121.007C134.701 121.007 134.706 121.005 134.711 121.005C134.736 121.006 134.761 121.007 134.786 121.007C134.791 121.007 134.796 121.005 134.801 121.005C134.826 121.006 134.851 121.007 134.876 121.007C134.881 121.007 134.885 121.005 134.89 121.005C134.915 121.006 134.941 121.007 134.966 121.007C134.971 121.007 134.975 121.005 134.98 121.005C135.005 121.006 135.03 121.007 135.055 121.007C135.061 121.007 135.065 121.005 135.07 121.005C135.095 121.006 135.12 121.007 135.145 121.007C135.15 121.007 135.155 121.005 135.16 121.005C135.185 121.006 135.21 121.007 135.235 121.007C135.24 121.007 135.245 121.005 135.25 121.005C135.275 121.006 135.3 121.007 135.325 121.007C135.33 121.007 135.335 121.005 135.34 121.005C135.365 121.006 135.39 121.007 135.415 121.007C135.733 121.007 135.813 120.132 136.728 119.933C136.907 119.909 137.118 119.881 137.35 119.853C135.028 124.565 131.796 130.722 126.912 131.41C123.439 130.957 121.166 128.087 121.166 124.112C121.166 120.42 123.383 117.49 125.895 116.899C127.585 117.306 128.673 118.807 128.673 120.967C128.673 125.306 125.051 127.654 124.534 127.972C124.056 128.291 123.379 128.37 123.379 128.529C123.379 128.689 123.897 128.768 124.335 128.768C124.345 128.768 124.355 128.768 124.365 128.767C124.385 128.768 124.405 128.768 124.424 128.768C124.435 128.768 124.445 128.768 124.455 128.767C124.475 128.768 124.495 128.768 124.514 128.768C124.524 128.768 124.534 128.768 124.545 128.767C124.565 128.768 124.584 128.768 124.604 128.768C124.614 128.768 124.624 128.768 124.635 128.767C124.654 128.768 124.674 128.768 124.694 128.768C124.704 128.768 124.714 128.768 124.724 128.767C124.744 128.768 124.764 128.768 124.784 128.768C124.794 128.768 124.804 128.768 124.814 128.767C124.834 128.768 124.854 128.768 124.873 128.768C124.884 128.768 124.894 128.768 124.904 128.767C124.924 128.768 124.944 128.768 124.963 128.768C124.974 128.768 124.984 128.768 124.994 128.767C125.014 128.768 125.034 128.768 125.053 128.768C125.063 128.768 125.073 128.768 125.084 128.767C125.104 128.768 125.123 128.768 125.143 128.768C125.153 128.768 125.163 128.768 125.174 128.767C125.193 128.768 125.213 128.768 125.233 128.768C125.243 128.768 125.253 128.768 125.263 128.767C125.283 128.768 125.303 128.768 125.323 128.768C125.333 128.768 125.343 128.768 125.353 128.767C125.373 128.768 125.393 128.768 125.413 128.768C125.423 128.768 125.433 128.768 125.443 128.767C125.463 128.768 125.483 128.768 125.502 128.768C125.513 128.768 125.523 128.768 125.533 128.767C125.553 128.768 125.573 128.768 125.592 128.768C125.602 128.768 125.612 128.768 125.623 128.767C125.643 128.768 125.662 128.768 125.682 128.768C125.692 128.768 125.702 128.768 125.713 128.767C125.732 128.768 125.752 128.768 125.772 128.768C125.782 128.768 125.792 128.768 125.802 128.767C125.822 128.768 125.842 128.768 125.862 128.768C125.872 128.768 125.882 128.768 125.892 128.767C125.912 128.768 125.932 128.768 125.952 128.768Z" fill="#E7D5A8"/>
<path d="M152.967 114.918C151.335 114.918 150.38 116.271 149.265 116.868C148.907 117.067 147.992 117.147 146.877 117.147C148.708 113.843 150.46 110.818 151.853 109.107C154.002 106.44 156.43 105.525 156.43 104.888C156.43 104.45 155.554 104.212 155.037 104.212C154.479 104.212 152.967 105.445 150.937 105.445C143.614 105.445 141.823 103.376 136.848 103.376C132.629 103.376 129.127 105.605 129.127 109.226C129.127 111.097 130.559 112.49 132.271 112.49C133.903 112.49 134.858 111.575 134.858 111.415C134.858 111.216 134.579 111.376 134.022 111.376C132.908 111.376 131.793 110.659 131.793 109.425C131.793 108.072 133.027 106.719 135.256 106.719C138.599 106.719 142.46 108.55 145.166 108.55C146.4 108.55 147.156 108.39 147.952 108.112V108.311C146.4 109.027 143.375 111.694 140.669 116.908C140.43 116.868 140.231 116.868 140.072 116.868C135.574 116.868 134.858 119.893 134.858 120.41C134.858 120.928 135.136 121.007 135.415 121.007C135.733 121.007 135.813 120.132 136.728 119.933C137.325 119.853 138.241 119.734 139.315 119.694C136.848 124.709 133.345 131.475 127.893 131.475C123.873 131.475 121.167 128.45 121.167 124.112C121.167 119.972 123.953 116.788 126.818 116.788C129.047 116.788 130.559 118.42 130.559 120.967C130.559 125.306 126.938 127.654 126.42 127.972C125.943 128.291 125.266 128.37 125.266 128.529C125.266 128.689 125.783 128.768 126.221 128.768C131.117 128.768 134.579 125.345 134.579 121.724C134.579 118.261 132.032 114.997 127.893 114.997C123.515 114.997 118.5 119.336 118.5 125.584C118.5 132.191 123.117 135.574 128.331 135.574C132.868 135.574 136.052 133.345 139.236 129.843C140.868 128.052 143.216 123.793 145.564 119.495H146.599C146.678 119.495 146.798 119.574 146.798 119.694C146.798 120.092 145.285 122.241 145.285 122.957C145.285 123.714 146.718 124.549 147.435 124.549C148.151 124.549 153.524 115.674 153.524 115.395C153.524 114.997 153.325 114.918 152.967 114.918Z" fill="#0B2C4A"/>
<path d="M196.946 124.35C196.468 124.35 192.09 132.231 186.797 132.231C185.324 132.231 184.688 131.117 184.688 129.365C184.688 128.41 185.006 127.296 185.523 126.102C185.643 126.141 185.762 126.141 185.882 126.141C192.289 126.141 196.707 120.967 196.707 117.982C196.707 116.43 195.513 114.958 194.24 114.958C193.404 114.958 192.648 115.395 191.215 115.395C187.286 115.395 183.011 120.321 181.033 124.935C179.62 126.759 175.846 132.231 171.434 132.231C169.962 132.231 169.325 131.117 169.325 129.365C169.325 128.41 169.643 127.296 170.161 126.102C170.28 126.141 170.4 126.141 170.519 126.141C176.927 126.141 181.345 120.967 181.345 117.982C181.345 116.43 180.151 114.958 178.877 114.958C178.041 114.958 177.285 115.395 175.852 115.395C171.894 115.395 167.586 120.394 165.627 125.038C165.08 125.76 164.172 127.061 163.156 128.291C161.803 129.962 160.012 131.514 159.017 131.514C158.619 131.514 158.46 131.196 158.46 130.918C158.46 127.813 162.559 122.042 164.072 120.41C164.947 119.415 166.181 118.778 166.181 118.062C166.181 117.147 164.709 114.958 163.594 114.958C163.037 114.958 160.808 115.276 158.938 115.276C158.301 115.276 158.062 115.157 158.062 114.997C158.062 114.878 158.46 114.56 158.46 113.764C158.46 113.087 158.142 112.729 157.545 112.729C156.231 112.729 155.634 113.127 154.838 115.117C154.082 116.908 153.843 118.619 152.649 121.007C151.574 123.276 150.54 124.828 150.022 125.584C149.903 125.783 149.664 126.181 149.664 126.46C149.664 127.176 149.903 127.654 150.261 127.654C150.42 127.654 150.579 127.534 150.699 127.335C152.092 125.345 154.042 122.44 155.992 119.256C156.032 119.176 156.151 119.137 156.311 119.137C156.987 119.137 158.301 119.694 158.301 119.773C158.301 119.893 152.928 127.057 152.928 130.957C152.928 133.823 154.878 135.295 157.385 135.295C159.519 135.295 162.545 132.015 164.553 129.321C164.551 129.389 164.549 129.457 164.549 129.525C164.549 132.788 166.658 135.534 169.365 135.534C173.572 135.534 177.569 132.113 179.917 129.258C179.914 129.348 179.912 129.437 179.912 129.525C179.912 132.788 182.021 135.534 184.727 135.534C191.334 135.534 197.424 127.097 197.424 125.664C197.424 125.067 197.384 124.35 196.946 124.35ZM193.046 117.266C193.523 117.266 193.762 117.505 193.762 117.943C193.762 120.211 189.663 123.435 186.518 124.112C188.508 120.609 191.653 117.266 193.046 117.266ZM177.683 117.266C178.161 117.266 178.399 117.505 178.399 117.943C178.399 120.211 174.3 123.435 171.156 124.112C173.146 120.609 176.29 117.266 177.683 117.266Z" fill="#0B2C4A"/>
</g>
<defs>
<clipPath id="clip0_5807_109752">
<rect width="254.215" height="232.096" fill="white" transform="translate(23.2871 34.2837)"/>
</clipPath>
</defs>
</svg>
