<svg width="300" height="300" viewBox="0 0 300 300" fill="none" xmlns="http://www.w3.org/2000/svg">
<rect width="300" height="300" fill="#D15A5B"/>
<rect width="300" height="300" fill="#D15A5B"/>
<rect width="244.664" height="277.07" transform="translate(27.668 11.4651)" fill="#D15A5B"/>
<g clip-path="url(#clip0_5807_109602)">
<path d="M119.832 189.569C117.303 183.741 111.966 179.425 106.022 177.183C100.078 174.941 93.564 174.603 87.2344 175.14C89.3679 177.999 91.5968 180.787 93.9161 183.498C95.4238 185.26 96.9932 187.011 98.9265 188.292C104.236 191.81 111.168 191.191 117.493 190.439" fill="#0B2C4A"/>
<path d="M79.7629 170.806C82.4732 170.611 85.0351 170.424 87.6382 170.258C90.2282 170.088 93.0104 170.05 95.8634 170.278C96.5722 170.331 97.2889 170.425 97.9979 170.497L98.5303 170.557L98.8819 170.612L99.4841 170.711C100.287 170.851 101.089 171.008 101.887 171.202C103.484 171.581 105.068 172.067 106.615 172.673C109.731 173.881 112.661 175.625 115.182 177.822C117.7 180.019 119.849 182.696 121.261 185.741C121.67 186.642 121.654 187.481 121.342 188.147C121.04 188.81 120.482 189.288 119.833 189.568C119.184 189.849 118.445 189.941 117.78 189.835C117.123 189.721 116.507 189.43 116.06 188.86C114.511 186.924 112.587 185.329 110.491 184.03C108.384 182.734 106.108 181.744 103.72 181.085C102.518 180.747 101.288 180.48 100.034 180.277C99.4093 180.171 98.7746 180.091 98.1376 180.019L97.6584 179.969L97.4693 179.95L97.46 179.956C97.448 179.965 97.4383 179.973 97.4303 179.981C97.368 180.047 97.4182 180.093 97.4513 180.11L97.4375 180.104C97.3959 180.087 97.3286 180.075 97.3103 180.168C97.3081 180.18 97.3068 180.193 97.3065 180.208C97.3056 180.216 97.3078 180.224 97.3063 180.232L97.6171 180.621C98.0421 181.15 98.4497 181.652 98.848 182.117C99.6448 183.054 100.407 183.844 101.163 184.461C101.925 185.055 102.767 185.584 103.737 186.006C104.704 186.43 105.782 186.769 106.951 187.006C109.291 187.488 111.918 187.645 114.653 187.703C116.31 187.736 117.328 189.03 117.494 190.439C117.659 191.841 116.987 193.356 115.257 193.737C112.401 194.354 109.373 194.816 106.101 194.702C104.468 194.644 102.767 194.405 101.061 193.926C99.3554 193.452 97.658 192.698 96.0833 191.705C94.5261 190.697 93.2264 189.53 92.1001 188.397C91.5343 187.829 91.0108 187.266 90.5143 186.722L90.1356 186.304L89.4506 185.517C88.9946 184.992 88.5428 184.462 88.0934 183.929C87.1967 182.862 86.3147 181.785 85.4533 180.704C84.5942 179.624 83.7637 178.545 82.9438 177.468C81.2947 175.295 79.6448 173.122 77.9941 170.947C78.5825 170.9 79.1727 170.853 79.7629 170.806Z" fill="#0B2C4A"/>
<path d="M173.729 188.11C171.353 187.349 168.959 186.702 166.534 186.291C159.697 185.132 152.745 184.61 145.813 184.616C137.866 184.624 130.865 186.498 123.545 188.645C121.2 189.333 119.799 191.756 120.415 194.121C123.7 206.731 123.419 219.722 126.697 232.28C129.043 241.264 134.655 248.948 140.148 256.387L156.085 277.972C156.085 277.972 164.044 266.791 164.864 265.317C168.061 259.568 171.259 253.819 174.456 248.07C179.072 239.771 183.79 231.19 185.641 221.777C187.483 212.41 186.364 202.111 186.343 192.609C182.16 191.2 177.975 189.471 173.729 188.11Z" fill="#0B2C4A"/>
<path d="M138.854 262.862C137.363 260.828 135.872 258.795 134.381 256.763C132.885 254.697 131.387 252.583 129.954 250.371C128.521 248.16 127.15 245.854 125.92 243.423C124.69 240.994 123.603 238.435 122.76 235.756C122.646 235.425 122.552 235.084 122.458 234.745L122.174 233.726C122.125 233.553 122.083 233.388 122.047 233.228L121.932 232.742L121.702 231.77C121.542 231.122 121.41 230.474 121.28 229.827C121.152 229.18 121.007 228.531 120.901 227.886C120.416 225.299 120.071 222.734 119.751 220.192C119.434 217.649 119.179 215.139 118.914 212.66C118.652 210.178 118.391 207.73 118.071 205.323C117.753 202.914 117.399 200.535 116.926 198.213C116.868 197.923 116.816 197.629 116.754 197.34L116.56 196.477L116.367 195.614L116.294 195.298L116.198 194.853C116.147 194.565 116.096 194.277 116.063 193.989C115.811 191.67 116.537 189.302 118.003 187.531C118.731 186.644 119.633 185.899 120.651 185.363C120.909 185.236 121.165 185.104 121.432 184.998C121.701 184.895 121.974 184.801 122.246 184.706C122.383 184.662 122.52 184.623 122.658 184.585L122.905 184.518L123.362 184.395C124.583 184.065 125.814 183.741 127.06 183.431C129.549 182.809 132.095 182.246 134.694 181.818C137.29 181.383 139.947 181.109 142.614 181.006C143.283 180.995 143.949 180.968 144.618 180.977L145.62 180.986C145.956 180.989 146.265 181.004 146.588 181.012C147.868 181.051 149.147 181.109 150.425 181.188C155.536 181.499 160.63 182.113 165.655 183.076C166.395 183.223 167.074 183.372 167.753 183.562C168.417 183.749 169.021 183.957 169.567 184.177C170.658 184.617 171.517 185.101 172.168 185.576C173.468 186.53 173.944 187.44 173.73 188.11C173.513 188.787 172.601 189.225 171.084 189.366C170.325 189.438 169.416 189.439 168.365 189.384C167.839 189.357 167.278 189.316 166.682 189.266C166.101 189.217 165.421 189.156 164.715 189.066C159.9 188.484 155.049 188.206 150.195 188.19C148.982 188.184 147.768 188.197 146.554 188.226C146.255 188.235 145.94 188.238 145.652 188.252L144.784 188.29C144.206 188.313 143.628 188.368 143.05 188.407C140.739 188.619 138.435 188.967 136.128 189.467C133.821 189.958 131.511 190.575 129.18 191.262C128.015 191.603 126.845 191.963 125.667 192.331L125.225 192.469L125.023 192.533L124.987 192.548C124.944 192.567 124.903 192.59 124.865 192.615C124.79 192.668 124.725 192.733 124.683 192.812C124.596 192.963 124.565 193.14 124.612 193.295L124.631 193.351L124.637 193.365C124.637 193.365 124.643 193.387 124.638 193.362L124.634 193.339C124.631 193.33 124.635 193.342 124.637 193.353L124.645 193.383L124.676 193.503L124.926 194.461L125.175 195.42C125.255 195.74 125.323 196.059 125.397 196.379C126.005 198.94 126.465 201.499 126.874 204.039C127.285 206.582 127.62 209.103 127.945 211.592C128.272 214.083 128.579 216.549 128.932 218.968C129.288 221.388 129.657 223.785 130.138 226.115C130.244 226.705 130.384 227.277 130.509 227.857C130.635 228.436 130.761 229.015 130.912 229.581L131.127 230.435L131.234 230.862C131.269 231.008 131.306 231.145 131.347 231.273L131.58 232.062C131.656 232.325 131.731 232.588 131.827 232.849C133.209 237.04 135.434 241.091 138.06 245.066C139.372 247.056 140.789 249.031 142.251 251.024C143.739 253.034 145.228 255.045 146.717 257.056C149.576 260.951 152.434 264.844 155.29 268.735L155.824 269.466L155.958 269.648C155.968 269.662 155.961 269.653 155.963 269.657L155.965 269.662L155.971 269.685C155.977 269.702 155.985 269.722 155.995 269.747C156.001 269.767 156.006 269.76 156.013 269.756L156.035 269.744L156.062 269.725L156.077 269.713L156.197 269.553L158.057 266.938C158.745 265.964 159.432 264.986 160.08 264.04L160.322 263.686L160.539 263.361L160.647 263.198L160.701 263.113L160.725 263.076L160.738 263.058C160.77 263.071 160.676 263.014 160.812 263.086L161.734 263.59C163.435 264.53 160.543 262.918 160.76 263.026L160.774 263.002L160.801 262.952L160.857 262.854L161.749 261.283L163.536 258.142C165.926 253.96 168.314 249.781 170.702 245.604C173.09 241.443 175.411 237.367 177.369 233.225C179.328 229.088 180.917 224.882 181.821 220.585C182.728 216.291 182.998 211.702 183.072 207.017C183.11 204.672 183.097 202.296 183.091 199.894L183.096 196.28L183.137 195.517C183.153 195.31 183.175 195.092 183.186 194.874L182.473 194.545L182.285 194.457L182.19 194.412C182.151 194.394 182.151 194.391 182.036 194.345L180.963 193.91C178.231 192.787 176.354 191.663 175.171 190.67C173.992 189.676 173.515 188.787 173.73 188.11C173.943 187.439 174.866 186.984 176.459 186.945C178.05 186.902 180.299 187.302 183.063 188.221C183.996 188.531 184.93 188.841 185.864 189.151C187.077 189.541 188.29 189.931 189.506 190.322L189.593 193.271L189.694 196.105L189.908 199.675C190.056 202.063 190.207 204.48 190.302 206.93C190.485 211.825 190.47 216.88 189.626 222.039C188.778 227.193 187.117 232.104 185.129 236.721C183.137 241.347 180.818 245.709 178.533 249.957C176.243 254.19 173.952 258.425 171.66 262.662L169.934 265.836L169.07 267.423L168.955 267.632L168.771 267.945L168.589 268.245L168.451 268.461L168.175 268.892L167.913 269.289C167.216 270.343 166.534 271.347 165.845 272.353L163.56 275.663L159.549 281.37L157.48 284.296L156.444 285.761L156.185 286.128C156.174 286.154 156.163 286.146 156.152 286.125L156.118 286.08L156.052 285.991L155.919 285.812L155.385 285.099C152.755 281.564 150.124 278.028 147.493 274.492C144.615 270.617 141.735 266.74 138.854 262.862Z" fill="#0B2C4A"/>
<path d="M104.81 194.502C108.726 192.203 112.884 190.332 117.196 189.012C121.506 187.692 125.97 186.926 130.425 186.829C133.082 186.773 133.717 191.995 131.489 192.799C127.653 194.181 123.947 195.675 120.337 197.336C116.729 198.996 113.218 200.826 109.836 202.886C106.424 204.898 103.156 207.132 99.9913 209.531C96.8253 211.932 93.7606 214.497 90.7333 217.229C88.975 218.815 84.668 215.794 85.9699 213.477C88.1554 209.593 90.9355 206.017 94.131 202.838C97.3275 199.657 100.938 196.872 104.81 194.502Z" fill="#0B2C4A"/>
<path d="M201.596 206.057C197.853 203.735 193.992 201.623 190.043 199.655C186.093 197.687 182.056 195.861 177.909 194.111C175.492 193.092 176.538 187.938 179.385 188.23C184.173 188.724 188.917 189.837 193.498 191.457C198.081 193.077 202.501 195.202 206.695 197.718C210.847 200.305 214.753 203.272 218.282 206.613C221.812 209.952 224.964 213.668 227.586 217.705C229.143 220.106 225.032 223.386 223.023 221.699C219.576 218.805 216.111 216.043 212.559 213.423C209.008 210.805 205.369 208.331 201.596 206.057Z" fill="#0B2C4A"/>
<path d="M137.837 219.718C139.193 222.066 140.955 224.257 142.909 226.373C144.862 228.492 147.004 230.54 149.166 232.66C151.327 234.783 153.513 236.984 155.514 239.426C157.51 241.862 159.324 244.567 160.569 247.559C160.931 248.441 160.988 249.196 160.83 249.759C160.681 250.321 160.349 250.681 159.934 250.835C159.519 250.988 159.023 250.938 158.545 250.679C158.075 250.416 157.593 249.958 157.179 249.253C155.75 246.857 153.918 244.709 151.895 242.676C149.87 240.641 147.653 238.716 145.39 236.741C143.125 234.765 140.807 232.734 138.594 230.471C136.385 228.211 134.269 225.699 132.568 222.808C130.909 219.934 129.681 216.901 128.786 213.808C127.892 210.713 127.328 207.558 127.055 204.393C126.784 201.229 126.804 198.052 127.132 194.911C127.458 191.77 128.118 188.662 129.137 185.674C129.267 185.231 129.485 184.868 129.691 184.569C129.904 184.271 130.132 184.042 130.365 183.878C130.832 183.549 131.316 183.482 131.734 183.627C132.151 183.772 132.504 184.127 132.707 184.642C132.809 184.9 132.874 185.198 132.889 185.533C132.91 185.87 132.856 186.234 132.797 186.655C131.738 192.286 131.767 198.113 132.579 203.765C132.992 206.592 133.616 209.381 134.478 212.072C135.339 214.759 136.45 217.352 137.837 219.718Z" fill="#D15A5B"/>
<path d="M109.326 156.062C105.202 168.919 111.509 184.298 123.473 190.558C131.548 194.784 141.079 194.97 150.186 194.608C159.188 194.249 168.455 193.369 176.426 189.168C189.36 182.351 196.859 166.543 193.957 152.214C199.237 153.141 204.503 149.27 206.595 144.335C208.688 139.401 208.197 133.739 206.87 128.546C206.352 126.518 205.624 124.388 203.957 123.123C201.457 121.224 197.676 122.057 195.33 124.143C192.985 126.229 191.731 129.247 190.552 132.156C192.356 124.903 186.123 117.768 186.816 110.326C187.09 107.38 188.321 103.975 186.35 101.769C164.919 112.595 138.749 113.569 116.573 104.365C114.787 103.624 112.363 102.974 111.221 104.535C110.793 105.118 110.692 105.872 110.605 106.59C109.675 114.24 108.745 121.89 107.815 129.541C109.035 127.051 107.381 123.778 104.784 122.808C102.186 121.838 99.1277 122.883 97.2074 124.883C95.2872 126.883 94.3704 129.668 94.0712 132.424C93.5897 136.86 94.6286 141.505 97.241 145.122C99.8534 148.74 104.08 151.229 108.538 151.429C107.812 153.618 107.824 156.043 108.57 158.225" fill="#F3B6B5"/>
<path d="M162.832 152.3H141.922V162.564H162.832V152.3Z" fill="#D15A5B" stroke="#D15A5B" stroke-width="0.665779" stroke-miterlimit="10"/>
<path d="M131.559 137.017C128.332 134.001 124.211 134.014 121.252 137.871C118.294 141.727 116.892 149.614 118.46 155.672C119.313 158.965 120.879 161.425 122.532 163.396C125.26 166.649 128.495 168.886 131.709 168.125C134.922 167.364 138.016 163.013 138.572 157.069C139.009 152.4 137.85 147.601 136.103 144.155C134.357 140.709 132.079 138.388 129.818 136.212" fill="#D15A5B"/>
<path d="M122.819 170.404C121.881 169.71 121.081 168.971 120.342 168.217C119.605 167.457 118.942 166.696 118.319 165.892C117.06 164.283 115.936 162.438 115.103 160.468C114.687 159.482 114.342 158.467 114.071 157.443C113.932 156.934 113.828 156.411 113.725 155.89C113.609 155.367 113.554 154.855 113.481 154.339C113.23 152.283 113.235 150.275 113.427 148.305C113.623 146.335 114.003 144.401 114.6 142.496C115.209 140.592 116.014 138.709 117.246 136.867C117.324 136.753 117.395 136.639 117.478 136.524L117.742 136.181C117.92 135.953 118.092 135.725 118.279 135.505C118.676 135.075 119.052 134.648 119.519 134.253C120.411 133.459 121.463 132.732 122.697 132.246C123.916 131.754 125.288 131.51 126.615 131.588C127.943 131.66 129.198 132.038 130.272 132.584C130.58 132.755 130.865 132.93 131.098 133.125C131.325 133.327 131.52 133.533 131.683 133.738C131.991 134.163 132.164 134.592 132.227 134.993C132.335 135.816 132.043 136.502 131.559 137.017C131.075 137.532 130.407 137.894 129.762 138.068C129.433 138.166 129.105 138.225 128.795 138.235C128.637 138.25 128.485 138.251 128.338 138.23C128.19 138.219 128.045 138.212 127.905 138.167C127.425 138.061 127 138.064 126.64 138.145C126.278 138.226 125.97 138.376 125.659 138.595C125.348 138.806 125.038 139.128 124.735 139.521C124.578 139.7 124.44 139.947 124.289 140.162C124.22 140.278 124.16 140.404 124.094 140.521L123.994 140.698C123.962 140.76 123.933 140.833 123.902 140.9C123.4 141.966 122.995 143.281 122.728 144.645C122.462 146.016 122.323 147.447 122.305 148.861C122.288 150.274 122.397 151.676 122.643 152.978C122.713 153.298 122.761 153.631 122.854 153.932C122.935 154.239 123.009 154.548 123.112 154.852C123.309 155.46 123.541 156.048 123.811 156.617C124.357 157.754 125.043 158.82 125.906 159.869C126.782 160.932 127.746 161.906 128.624 162.54C129.055 162.863 129.462 163.1 129.778 163.237C130.099 163.377 130.306 163.414 130.424 163.426C130.457 163.434 130.48 163.418 130.509 163.431C130.537 163.43 130.562 163.417 130.592 163.427L130.594 163.428L130.596 163.428C130.588 163.391 130.675 163.759 130.637 163.598L130.63 163.56L130.614 163.485L130.598 163.421L130.6 163.421C130.602 163.421 130.605 163.425 130.609 163.431C130.629 163.419 130.658 163.404 130.689 163.405C130.839 163.346 131.129 163.154 131.431 162.858C131.735 162.565 132.062 162.175 132.353 161.708C132.511 161.492 132.635 161.223 132.784 160.982L132.976 160.582L133.075 160.383L133.161 160.172C133.634 159.052 133.983 157.803 134.155 156.488C134.519 153.843 134.295 150.907 133.575 148.145C133.397 147.453 133.18 146.779 132.939 146.126C132.697 145.473 132.407 144.81 132.088 144.171C131.447 142.886 130.651 141.645 129.713 140.398C128.603 138.939 128.827 137.234 129.818 136.212C130.796 135.204 132.501 134.828 134.133 136.247C135.508 137.457 136.849 138.852 138.01 140.428C138.592 141.218 139.125 142.035 139.616 142.905C140.106 143.776 140.542 144.664 140.919 145.571C141.295 146.479 141.625 147.402 141.908 148.342C142.183 149.284 142.417 150.24 142.6 151.213C142.956 153.159 143.121 155.17 143.02 157.228C142.927 159.293 142.54 161.39 141.824 163.449L141.691 163.836L141.536 164.22L141.218 164.987C140.968 165.495 140.744 166.004 140.443 166.503C139.884 167.506 139.191 168.49 138.323 169.427C137.456 170.358 136.413 171.259 135.047 171.976C134.689 172.148 134.333 172.315 133.96 172.465C133.564 172.6 133.156 172.733 132.756 172.835C132.367 172.914 131.976 172.995 131.582 173.043C131.187 173.076 130.785 173.117 130.394 173.113C128.809 173.118 127.33 172.755 126.08 172.247C124.822 171.736 123.759 171.088 122.819 170.404Z" fill="#D15A5B"/>
<path d="M171.338 137.017C174.314 134.001 178.114 134.015 180.842 137.871C183.57 141.727 184.863 149.615 183.417 155.673C182.631 158.965 181.186 161.425 179.662 163.396C177.146 166.65 174.163 168.886 171.2 168.125C168.237 167.364 165.383 163.013 164.87 157.069C164.468 152.401 165.536 147.602 167.147 144.155C168.758 140.709 170.859 138.388 172.943 136.213" fill="#D15A5B"/>
<path d="M173.665 162.658C174.463 162.037 175.364 161.045 176.169 159.98C176.964 158.929 177.595 157.861 178.1 156.72C178.349 156.149 178.565 155.561 178.748 154.952C178.844 154.648 178.915 154.34 178.99 154.032C179.075 153.73 179.125 153.402 179.188 153.081C179.422 151.786 179.531 150.401 179.531 149.004C179.531 147.606 179.421 146.192 179.202 144.825C178.984 143.465 178.652 142.124 178.201 141.025L178.035 140.617C177.977 140.49 177.914 140.379 177.857 140.256L177.77 140.073C177.74 140.014 177.704 139.963 177.671 139.907L177.474 139.572C177.202 139.163 176.926 138.841 176.673 138.609C176.416 138.378 176.203 138.235 175.938 138.142C175.678 138.051 175.344 138.02 174.921 138.109C174.43 138.208 173.815 138.2 173.159 138.011C172.52 137.852 171.842 137.512 171.338 137.017C170.834 136.522 170.51 135.852 170.578 135.032C170.596 134.829 170.653 134.626 170.732 134.412C170.817 134.203 170.911 133.975 171.07 133.767C171.226 133.556 171.413 133.343 171.634 133.134C171.873 132.938 172.148 132.748 172.456 132.569C173.536 131.994 174.851 131.604 176.238 131.592C177.618 131.57 179.017 131.943 180.177 132.543C181.346 133.142 182.313 133.93 183.119 134.766C183.314 134.976 183.495 135.189 183.681 135.405C183.772 135.513 183.869 135.62 183.954 135.731L184.202 136.068C184.364 136.293 184.534 136.522 184.686 136.75L185.103 137.431C186.184 139.255 186.865 141.083 187.394 142.933C187.913 144.782 188.247 146.651 188.416 148.552C188.582 150.453 188.584 152.386 188.361 154.366C188.3 154.863 188.247 155.357 188.146 155.861C188.056 156.364 187.963 156.866 187.84 157.36C187.6 158.351 187.294 159.336 186.923 160.3C186.179 162.226 185.163 164.061 184 165.683C183.424 166.493 182.81 167.263 182.122 168.036C181.431 168.806 180.675 169.565 179.772 170.291C178.693 171.148 177.389 171.981 175.73 172.557L175.422 172.662L175.09 172.752C174.871 172.81 174.639 172.868 174.411 172.92C174.167 172.963 173.922 173.001 173.676 173.034L173.308 173.08L172.937 173.1C172.69 173.11 172.442 173.115 172.195 173.116C171.948 173.103 171.702 173.084 171.456 173.061L171.087 173.023L170.723 172.957C170.481 172.91 170.239 172.859 169.999 172.804C169.666 172.701 169.333 172.59 169.006 172.469C168.681 172.344 168.368 172.185 168.055 172.032C167.744 171.888 167.435 171.679 167.15 171.495C167.016 171.406 166.881 171.317 166.751 171.225L166.398 170.946L166.05 170.66L165.878 170.516L165.725 170.37C165.522 170.174 165.321 169.976 165.124 169.776C164.935 169.575 164.769 169.373 164.594 169.17L164.337 168.863L164.109 168.555C162.892 166.906 162.096 165.208 161.536 163.507C160.42 160.106 160.207 156.651 160.525 153.4C160.862 150.14 161.703 147.029 163.069 144.077C163.416 143.342 163.806 142.603 164.216 141.911C164.634 141.216 165.082 140.541 165.558 139.892C166.514 138.596 167.583 137.418 168.684 136.368C169.449 135.641 170.268 135.363 171.011 135.385C171.755 135.407 172.433 135.724 172.944 136.213C173.976 137.193 174.286 138.869 173.273 140.333C172.546 141.396 171.919 142.451 171.393 143.529C171.132 144.069 170.895 144.614 170.678 145.166C170.463 145.727 170.283 146.267 170.115 146.834C169.459 149.106 169.123 151.544 169.129 153.885C169.141 156.228 169.517 158.47 170.286 160.376C170.659 161.325 171.156 162.164 171.645 162.754L171.734 162.868L171.825 162.958C171.885 163.016 171.942 163.088 171.997 163.139C172.053 163.183 172.106 163.229 172.157 163.277L172.194 163.314L172.229 163.334C172.251 163.347 172.273 163.362 172.293 163.377C172.314 163.392 172.334 163.409 172.354 163.426C172.37 163.433 172.385 163.435 172.398 163.442C172.414 163.44 172.388 163.448 172.404 163.436C172.412 163.426 172.409 163.438 172.412 163.434C172.418 163.425 172.42 163.424 172.42 163.432C172.423 163.424 172.426 163.421 172.426 163.421C172.426 163.421 172.427 163.423 172.427 163.426L172.43 163.417C172.431 163.413 172.432 163.414 172.433 163.419C172.434 163.41 172.436 163.408 172.436 163.408L172.437 163.412L172.437 163.403C172.438 163.399 172.438 163.401 172.44 163.406C172.453 163.395 172.461 163.39 172.483 163.385C172.493 163.382 172.503 163.381 172.513 163.38L172.555 163.359C172.774 163.271 173.196 163.052 173.665 162.658Z" fill="#D15A5B"/>
<path d="M153.343 108.665C148.343 110.145 142.455 106.695 141.301 101.611C140.146 96.5266 143.968 90.873 149.116 90.0487C145.486 86.135 141.629 81.6672 141.664 76.3294C141.694 71.7969 144.538 67.8539 146.722 63.882C148.906 59.9102 150.454 54.8272 148.005 51.0132C146.515 48.6923 143.592 46.7755 144.032 44.0528C144.514 41.0701 148.381 40.407 151.104 39.097C155.671 36.8991 158.154 31.4388 162.922 29.7187C166.135 28.5598 169.832 29.4121 172.661 31.3245C175.49 33.2369 177.556 36.0917 179.196 39.0873C187.589 54.4195 185.743 73.2279 190.717 89.9844C190.901 90.6052 191.154 91.2928 191.744 91.5589C192.553 91.9237 193.439 91.2877 194.098 90.6934C197.411 87.7089 200.724 84.7243 204.037 81.7398C206.526 79.4972 209.059 77.2246 212.075 75.765C215.091 74.3053 218.709 73.743 221.799 75.0381C224.844 76.3144 226.981 79.252 227.898 82.4241C228.814 85.5962 228.641 88.9883 228.085 92.243C226.132 103.683 219.352 114.218 209.748 120.734C207.626 122.175 205.297 123.452 202.748 123.744C200.199 124.036 197.387 123.16 195.949 121.035C194.851 119.412 194.694 117.357 194.432 115.416C193.895 111.453 192.773 107.569 191.114 103.93C190.634 102.878 190.037 101.773 188.988 101.286C187.749 100.71 186.301 101.176 185.011 101.626C173.284 105.711 160.949 108.048 148.54 108.534" fill="#C0A02F"/>
<path d="M148.107 108.665C153.107 110.145 158.995 106.695 160.149 101.611C161.303 96.5266 157.482 90.873 152.334 90.0487C155.964 86.135 159.82 81.6672 159.786 76.3294C159.756 71.7969 156.911 67.8539 154.728 63.882C152.544 59.9102 150.996 54.8272 153.445 51.0132C154.935 48.6923 157.858 46.7755 157.418 44.0528C156.936 41.0701 153.069 40.407 150.346 39.097C145.778 36.8991 143.296 31.4388 138.527 29.7187C135.315 28.5598 131.618 29.4121 128.789 31.3245C125.96 33.2369 123.894 36.0917 122.254 39.0873C113.861 54.4195 115.707 73.2279 110.733 89.9844C110.549 90.6052 110.296 91.2928 109.706 91.5589C108.896 91.9237 108.011 91.2877 107.351 90.6934C104.039 87.7089 100.726 84.7243 97.413 81.7398C94.9237 79.4972 92.3904 77.2246 89.3747 75.765C86.359 74.3053 82.741 73.743 79.651 75.0381C76.6058 76.3144 74.4686 79.252 73.5521 82.4241C72.6356 85.5962 72.8089 88.9883 73.3645 92.243C75.3174 103.683 82.098 114.218 91.7014 120.734C93.8242 122.175 96.1531 123.452 98.7018 123.744C101.25 124.036 104.063 123.16 105.501 121.035C106.599 119.412 106.755 117.357 107.018 115.416C107.555 111.453 108.676 107.569 110.336 103.93C110.815 102.878 111.413 101.773 112.462 101.286C113.701 100.71 115.148 101.176 116.439 101.626C128.166 105.711 140.501 108.048 152.91 108.534" fill="#C0A02F"/>
<path d="M182.045 209.991C181.369 216.081 179.749 221.894 177.384 227.313C176.684 228.913 173.525 228.01 173.728 226.314C174.414 220.54 175.435 214.947 175.967 209.374C176.267 206.594 176.438 203.836 176.448 201.097C176.456 198.356 176.306 195.636 175.927 192.899C175.708 191.316 178.773 190.116 179.555 191.801C180.856 194.62 181.633 197.683 181.997 200.76C182.363 203.843 182.328 206.945 182.045 209.991Z" fill="#D15A5B"/>
<path d="M153.343 108.665C148.343 110.145 142.455 106.695 141.301 101.611C140.146 96.5266 143.968 90.873 149.116 90.0487C145.486 86.135 141.629 81.6672 141.664 76.3294C141.694 71.7969 144.538 67.8539 146.722 63.882C148.906 59.9102 150.454 54.8272 148.005 51.0132C146.515 48.6923 143.592 46.7755 144.032 44.0528C144.514 41.0701 148.381 40.407 151.104 39.097C155.671 36.8991 158.154 31.4388 162.922 29.7187C166.135 28.5598 169.832 29.4121 172.661 31.3245C175.49 33.2369 177.556 36.0917 179.196 39.0873C187.589 54.4195 185.743 73.2279 190.717 89.9844C190.901 90.6052 191.154 91.2928 191.744 91.5589C192.553 91.9237 193.439 91.2877 194.098 90.6934C197.411 87.7089 200.724 84.7243 204.037 81.7398C206.526 79.4972 209.059 77.2246 212.075 75.765C215.091 74.3053 218.709 73.743 221.799 75.0381C224.844 76.3144 226.981 79.252 227.898 82.4241C228.814 85.5962 228.641 88.9883 228.085 92.243C226.132 103.683 219.352 114.218 209.748 120.734C207.626 122.175 205.297 123.452 202.748 123.744C200.199 124.036 197.387 123.16 195.949 121.035C194.851 119.412 194.694 117.357 194.432 115.416C193.895 111.453 192.773 107.569 191.114 103.93C190.634 102.878 190.037 101.773 188.988 101.286C187.749 100.71 186.301 101.176 185.011 101.626C173.284 105.711 160.949 108.048 148.54 108.534" fill="#0B2C4A"/>
<path d="M148.107 108.665C153.107 110.145 158.995 106.695 160.149 101.611C161.303 96.5266 157.482 90.873 152.334 90.0487C155.964 86.135 159.82 81.6672 159.786 76.3294C159.756 71.7969 156.911 67.8539 154.728 63.882C152.544 59.9102 150.996 54.8272 153.445 51.0132C154.935 48.6923 157.858 46.7755 157.418 44.0528C156.936 41.0701 153.069 40.407 150.346 39.097C145.778 36.8991 143.296 31.4388 138.527 29.7187C135.315 28.5598 131.618 29.4121 128.789 31.3245C125.96 33.2369 123.894 36.0917 122.254 39.0873C113.861 54.4195 115.707 73.2279 110.733 89.9844C110.549 90.6052 110.296 91.2928 109.706 91.5589C108.896 91.9237 108.011 91.2877 107.351 90.6934C104.039 87.7089 100.726 84.7243 97.413 81.7398C94.9237 79.4972 92.3904 77.2246 89.3747 75.765C86.359 74.3053 82.741 73.743 79.651 75.0381C76.6058 76.3144 74.4686 79.252 73.5521 82.4241C72.6356 85.5962 72.8089 88.9883 73.3645 92.243C75.3174 103.683 82.098 114.218 91.7014 120.734C93.8242 122.175 96.1531 123.452 98.7018 123.744C101.25 124.036 104.063 123.16 105.501 121.035C106.599 119.412 106.755 117.357 107.018 115.416C107.555 111.453 108.676 107.569 110.336 103.93C110.815 102.878 111.413 101.773 112.462 101.286C113.701 100.71 115.148 101.176 116.439 101.626C128.166 105.711 140.501 108.048 152.91 108.534" fill="#0B2C4A"/>
<path d="M116.028 189.687C114.8 188.579 113.671 187.383 112.68 186.112C111.68 184.846 110.777 183.525 110.001 182.156C109.214 180.792 108.522 179.393 107.939 177.966C107.631 177.257 107.381 176.533 107.114 175.815C106.88 175.088 106.63 174.367 106.435 173.634C105.602 170.714 105.12 167.741 104.939 164.773C104.765 161.804 104.904 158.833 105.39 155.919C105.467 155.49 105.616 155.121 105.819 154.815C106.028 154.508 106.295 154.263 106.591 154.08C107.185 153.712 107.907 153.591 108.61 153.671C109.313 153.751 109.997 154.029 110.514 154.461C110.774 154.677 110.988 154.932 111.147 155.224C111.313 155.519 111.419 155.851 111.446 156.223C111.892 161.286 113.06 166.256 114.872 170.812C116.687 175.351 119.225 179.496 122.528 182.387C122.736 182.564 122.928 182.764 123.144 182.927L123.777 183.436C123.992 183.599 124.214 183.747 124.431 183.906C124.645 184.071 124.873 184.208 125.099 184.348C125.542 184.649 126.016 184.885 126.478 185.149C126.96 185.368 127.428 185.622 127.928 185.802C128.395 186.002 128.967 186.204 129.532 186.385C130.098 186.568 130.677 186.739 131.268 186.899C132.449 187.221 133.674 187.501 134.934 187.758C139.997 188.79 145.172 189.445 150.45 189.806C151.997 189.908 152.904 191.234 153.04 192.647C153.176 194.05 152.486 195.548 150.828 195.858C145.222 196.894 139.413 197.125 133.634 196.559C132.185 196.416 130.71 196.218 129.216 195.932C128.47 195.789 127.718 195.624 126.965 195.432C126.209 195.24 125.471 195.032 124.655 194.743C123.851 194.49 123.082 194.141 122.305 193.812C121.551 193.438 120.788 193.072 120.073 192.63C119.71 192.418 119.346 192.205 119.004 191.965C118.658 191.729 118.306 191.499 117.968 191.254L116.978 190.491C116.644 190.239 116.345 189.955 116.028 189.687Z" fill="#0B2C4A"/>
<path d="M179.302 182.387C182.606 179.496 185.144 175.35 186.959 170.811C188.77 166.256 189.938 161.286 190.384 156.223C190.411 155.851 190.517 155.519 190.683 155.224C190.842 154.932 191.056 154.677 191.316 154.461C191.833 154.029 192.517 153.751 193.22 153.671C193.923 153.591 194.645 153.712 195.239 154.08C195.535 154.263 195.802 154.508 196.011 154.815C196.214 155.121 196.363 155.49 196.44 155.919C196.925 158.833 197.065 161.804 196.891 164.773C196.71 167.742 196.228 170.715 195.395 173.634C195.2 174.367 194.95 175.089 194.715 175.815C194.449 176.533 194.199 177.257 193.891 177.966C193.308 179.393 192.616 180.793 191.829 182.157C191.053 183.525 190.15 184.846 189.15 186.112C188.159 187.383 187.03 188.579 185.802 189.687C185.485 189.955 185.186 190.239 184.852 190.491L183.862 191.254C183.524 191.499 183.172 191.729 182.826 191.965C182.484 192.205 182.12 192.418 181.757 192.63C181.042 193.072 180.279 193.438 179.525 193.812C178.748 194.142 177.979 194.49 177.174 194.743C176.359 195.032 175.62 195.24 174.865 195.432C174.111 195.624 173.36 195.789 172.614 195.932C171.12 196.218 169.645 196.416 168.195 196.559C162.417 197.125 156.609 196.894 151.002 195.858C149.344 195.548 148.655 194.05 148.79 192.647C148.926 191.234 149.833 189.908 151.38 189.806C156.658 189.445 161.833 188.79 166.896 187.758C168.156 187.501 169.382 187.221 170.563 186.899C171.153 186.739 171.732 186.568 172.298 186.385C172.863 186.204 173.435 186.002 173.902 185.801C174.402 185.622 174.87 185.367 175.352 185.149C175.814 184.885 176.288 184.649 176.731 184.348C176.957 184.208 177.185 184.071 177.399 183.906C177.616 183.747 177.838 183.599 178.053 183.436L178.686 182.927C178.902 182.764 179.095 182.564 179.302 182.387Z" fill="#0B2C4A"/>
<path d="M175.636 117.598C173.858 116.13 170.991 116.732 169.409 118.408C167.826 120.085 167.301 122.507 167.235 124.811C167.148 127.864 167.759 130.935 169.01 133.721C169.814 135.512 171.486 137.441 173.363 136.866C174.946 136.381 175.484 134.454 175.773 132.823C176.261 130.07 176.751 127.294 176.664 124.5C176.577 121.705 175.869 118.856 174.175 116.632" fill="white"/>
<path d="M137.031 117.598C135.253 116.13 132.386 116.732 130.803 118.408C129.221 120.085 128.695 122.507 128.629 124.811C128.542 127.864 129.154 130.935 130.405 133.721C131.209 135.512 132.88 137.441 134.757 136.866C136.341 136.381 136.879 134.454 137.168 132.823C137.656 130.07 138.145 127.294 138.058 124.5C137.971 121.705 137.263 118.856 135.569 116.632" fill="white"/>
<path d="M152.828 145.205C152.891 144.14 152.749 142.804 152.503 141.267L152.106 138.826L151.732 136.394C151.489 134.805 151.251 133.281 150.954 131.81C150.879 131.443 150.802 131.078 150.72 130.715C150.635 130.351 150.557 130.004 150.451 129.615C150.243 128.837 149.95 127.911 149.74 126.843C149.614 126.211 149.868 125.592 150.343 125.164C150.817 124.729 151.496 124.479 152.192 124.363C152.891 124.246 153.607 124.243 154.188 124.294C154.77 124.352 155.215 124.456 155.434 124.759C155.806 125.28 156.27 125.871 156.786 126.624C157.044 126.999 157.307 127.426 157.554 127.841C157.8 128.26 158.031 128.684 158.253 129.111C159.134 130.82 159.809 132.571 160.373 134.281C160.656 135.137 160.91 135.984 161.148 136.817C161.384 137.648 161.612 138.459 161.833 139.365C162.264 141.159 162.661 143.218 162.596 145.57C162.573 146.154 162.51 146.756 162.419 147.36C162.317 147.99 162.175 148.638 161.982 149.254C161.599 150.493 161.054 151.688 160.283 152.812C159.519 153.931 158.534 154.992 157.275 155.837C156.658 156.264 155.958 156.617 155.237 156.902C154.503 157.176 153.742 157.37 152.99 157.463C151.484 157.646 150.05 157.477 148.791 157.098C147.523 156.722 146.405 156.147 145.409 155.447C143.444 154.034 142.186 152.305 141.247 150.669C140.695 149.693 141.515 148.423 142.626 147.553C143.743 146.68 145.158 146.209 145.883 146.76C147.116 147.704 148.297 148.405 149.277 148.694C149.753 148.831 150.224 148.902 150.614 148.891C151.008 148.889 151.303 148.794 151.474 148.698C151.64 148.589 151.703 148.5 151.835 148.34C151.962 148.192 152.126 147.959 152.282 147.649C152.444 147.347 152.582 146.961 152.675 146.566C152.726 146.364 152.753 146.175 152.78 145.963C152.804 145.722 152.826 145.474 152.828 145.205Z" fill="#0B2C4A"/>
<path d="M128.489 133.877C128.31 132.333 128.491 130.733 129.648 129.038C129.988 128.537 135.199 127.856 135.657 128.229C137.213 129.502 137.835 130.878 138.138 132.317C138.303 133.777 138.148 135.279 137.072 136.978C136.755 137.476 131.594 138.472 131.114 138.104C129.482 136.86 128.806 135.398 128.489 133.877Z" fill="#0B2C4A"/>
<path d="M167.119 133.106C167.146 131.431 167.515 129.754 168.844 128.059C169.236 127.561 174.49 127.425 174.906 127.903C176.321 129.526 176.777 131.182 176.89 132.853C176.863 134.529 176.494 136.206 175.165 137.9C174.774 138.399 169.52 138.535 169.103 138.057C167.688 136.434 167.232 134.778 167.119 133.106Z" fill="#0B2C4A"/>
<path d="M130.327 112.249C134.163 110.224 138.156 108.662 142.623 108.153C143.964 108.002 145.989 112.854 145.097 113.69C142.004 116.589 138.561 118.799 135.063 120.8C133.288 121.749 131.508 122.649 129.718 123.458C129.279 123.664 128.825 123.859 128.377 124.049C127.942 124.244 127.498 124.431 127.043 124.609C126.62 124.791 126.182 124.966 125.735 125.134C125.534 125.218 125.329 125.301 125.118 125.382C124.915 125.462 124.666 125.547 124.505 125.616C123.716 125.862 119.321 122.877 120.202 121.343C120.379 121.017 120.545 120.786 120.724 120.515C120.902 120.253 121.085 119.992 121.274 119.732C121.642 119.259 122.026 118.799 122.424 118.346C122.817 117.924 123.223 117.511 123.637 117.106C124.051 116.714 124.473 116.347 124.903 115.978C126.62 114.542 128.448 113.336 130.327 112.249Z" fill="#0B2C4A"/>
<path d="M168.034 118.699C168.079 118.709 167.93 118.653 167.844 118.615L167.699 118.554L167.524 118.484L166.8 118.194C166.305 117.994 165.796 117.789 165.292 117.575C164.275 117.149 163.262 116.695 162.258 116.202C161.254 115.709 160.26 115.178 159.281 114.596C158.299 114.013 157.343 113.387 156.37 112.671C156.228 112.567 156.114 112.387 156.055 112.17C155.99 111.95 155.991 111.696 155.964 111.383C155.948 110.773 156.181 110.102 156.493 109.468C157.18 108.223 157.774 106.943 158.439 106.971C159.548 107.006 160.689 107.098 161.805 107.235C162.924 107.373 164.034 107.558 165.134 107.784C166.233 108.01 167.326 108.278 168.415 108.581C168.962 108.735 169.507 108.895 170.062 109.072C170.333 109.156 170.627 109.256 170.911 109.352L171.129 109.427L171.374 109.517C171.546 109.585 171.665 109.613 171.959 109.749L172.337 109.929C172.469 109.982 172.587 110.052 172.697 110.114L173.103 110.349C173.365 110.501 173.617 110.657 173.874 110.813C174.381 111.128 174.878 111.451 175.366 111.786C176.342 112.455 177.283 113.168 178.189 113.937C179.995 115.478 181.676 117.218 183.082 119.394C183.947 120.759 180.052 124.311 179.017 123.893C177.12 123.117 175.177 122.273 173.281 121.356C172.332 120.899 171.39 120.424 170.456 119.944L169.065 119.223L168.378 118.866L168.05 118.697C168.026 118.684 168.039 118.702 168.034 118.699Z" fill="#0B2C4A"/>
<path d="M138.358 142.176C138.319 142.216 138.256 142.261 138.193 142.305L138.007 142.438L137.636 142.704C137.512 142.791 137.391 142.884 137.264 142.966C137.132 143.041 136.998 143.113 136.864 143.184C136.334 143.483 135.754 143.667 135.174 143.831C133.996 144.112 132.753 144.041 131.6 143.692C131.02 143.532 130.463 143.257 129.946 142.978C129.711 142.832 129.496 142.691 129.284 142.548C129.066 142.404 128.9 142.25 128.709 142.098C128.32 141.793 128.032 141.473 127.709 141.15C127.563 140.989 127.429 140.825 127.291 140.661C127.154 140.497 127.015 140.332 126.901 140.165C125.923 138.835 125.258 137.469 124.748 136.097C124.61 135.755 124.51 135.41 124.399 135.067C124.285 134.722 124.191 134.384 124.099 134.021C123.916 133.298 123.767 132.511 123.698 131.692C123.564 130.033 123.761 128.586 123.98 127.299C124.205 126.019 124.487 124.742 124.857 123.463C125.228 122.186 125.683 120.907 126.301 119.642C126.611 119.01 126.968 118.372 127.388 117.757C127.807 117.141 128.29 116.536 128.905 115.964C129.625 115.284 130.563 115.034 131.223 115.198C131.859 115.377 132.199 115.869 132.342 116.371C132.488 116.882 132.47 117.422 132.453 117.887C132.469 118.346 132.487 118.682 132.244 119.052C132.038 119.368 131.833 119.765 131.656 120.199C131.475 120.634 131.32 121.095 131.182 121.587C130.906 122.57 130.706 123.63 130.557 124.717C130.408 125.805 130.308 126.923 130.241 128.051C130.173 129.166 130.179 130.158 130.325 130.915C130.397 131.302 130.507 131.705 130.658 132.15C130.733 132.37 130.819 132.612 130.914 132.838C131.008 133.066 131.09 133.302 131.197 133.516C131.59 134.398 132.065 135.204 132.561 135.811C132.62 135.896 132.684 135.957 132.746 136.023L132.927 136.221C133.048 136.315 133.164 136.454 133.267 136.51C133.318 136.542 133.372 136.603 133.414 136.618C133.459 136.639 133.499 136.662 133.521 136.68C133.537 136.689 133.534 136.679 133.54 136.678C133.56 136.644 133.541 136.672 133.56 136.633C133.637 136.541 133.724 136.499 133.826 136.36C133.875 136.299 133.928 136.25 133.98 136.184L134.139 135.961C134.356 135.664 134.565 135.284 134.767 134.891C135.165 134.087 135.493 133.154 135.739 132.189C135.985 131.221 136.154 130.214 136.245 129.203C136.297 128.696 136.308 128.191 136.324 127.682C136.327 127.174 136.31 126.664 136.276 126.156C136.2 125.142 136.048 124.133 135.808 123.207C135.687 122.746 135.547 122.304 135.39 121.908C135.234 121.516 135.055 121.173 134.903 120.934C134.747 120.685 134.546 120.456 134.168 120.143L133.855 119.894L133.511 119.63C133.292 119.461 133.099 119.314 132.936 119.196L132.573 118.943C132.534 118.915 132.516 118.9 132.507 118.881L132.507 118.871L132.511 118.81L132.517 118.757C132.52 118.722 132.522 118.687 132.521 118.65L132.522 118.578L132.494 118.189C132.495 118.204 132.497 118.218 132.499 118.231C132.504 118.254 132.511 118.305 132.522 118.333C132.544 118.421 132.581 118.509 132.637 118.62C132.651 118.648 132.667 118.675 132.683 118.7C132.682 118.694 132.678 118.696 132.675 118.693C132.668 118.688 132.658 118.682 132.645 118.686C132.632 118.685 132.617 118.685 132.6 118.693C132.583 118.697 132.564 118.703 132.544 118.716C132.347 118.808 131.924 118.963 131.446 119.06C130.964 119.154 130.412 119.187 129.897 119.044C129.392 118.903 128.913 118.586 128.681 118.015C128.564 117.73 128.517 117.381 128.576 116.975C128.644 116.57 128.822 116.101 129.208 115.625C129.537 115.223 129.953 114.833 130.487 114.517C130.751 114.359 131.051 114.225 131.369 114.118C131.534 114.071 131.696 114.022 131.87 113.991C132.044 113.96 132.224 113.933 132.377 113.924C133.021 113.874 133.62 113.962 134.117 114.094C134.62 114.226 135.043 114.396 135.415 114.563C135.785 114.732 136.108 114.901 136.401 115.055L136.822 115.279C136.962 115.354 137.112 115.437 137.268 115.527C137.894 115.885 138.654 116.413 139.289 117.083C140.564 118.44 141.227 119.819 141.781 121.187C142.316 122.559 142.664 123.936 142.896 125.33C143.008 126.026 143.089 126.727 143.14 127.432C143.177 128.138 143.207 128.848 143.183 129.554C143.148 130.969 142.992 132.38 142.699 133.785C142.404 135.19 141.98 136.588 141.34 137.987C141.008 138.688 140.644 139.387 140.164 140.09L139.797 140.615C139.665 140.79 139.512 140.967 139.367 141.141C139.096 141.487 138.715 141.84 138.358 142.176Z" fill="#0B2C4A"/>
<path d="M176.657 142.256C176.551 142.362 176.425 142.437 176.306 142.524L175.946 142.778L175.585 143.03L175.198 143.234C174.692 143.529 174.145 143.734 173.578 143.858C172.448 144.121 171.255 144.036 170.152 143.675C169.045 143.317 168.034 142.657 167.173 141.848C167.056 141.742 166.976 141.657 166.898 141.577C166.82 141.496 166.736 141.414 166.664 141.332C166.518 141.168 166.37 141.002 166.239 140.837C165.966 140.505 165.732 140.171 165.506 139.836C164.633 138.497 164.051 137.15 163.605 135.803C163.383 135.122 163.203 134.474 163.043 133.76C162.886 133.046 162.764 132.277 162.716 131.484C162.624 129.9 162.809 128.51 163.017 127.257C163.229 126.008 163.493 124.759 163.837 123.509C164.182 122.259 164.602 121.007 165.171 119.762C165.456 119.141 165.785 118.51 166.172 117.898C166.563 117.285 167.001 116.678 167.58 116.091C167.915 115.747 168.31 115.493 168.713 115.349C168.907 115.276 169.114 115.232 169.304 115.213C169.493 115.192 169.664 115.218 169.82 115.248C170.459 115.399 170.827 115.878 171.001 116.371C171.178 116.87 171.192 117.398 171.204 117.859C171.211 117.978 171.203 118.085 171.212 118.188C171.221 118.29 171.227 118.377 171.222 118.474C171.215 118.653 171.169 118.827 171.06 119.019C170.873 119.336 170.689 119.746 170.528 120.179C170.366 120.616 170.228 121.078 170.105 121.569C169.859 122.551 169.685 123.602 169.555 124.676C169.425 125.752 169.339 126.853 169.282 127.965C169.225 129.069 169.227 130.065 169.357 130.852C169.422 131.244 169.52 131.648 169.655 132.086C169.79 132.525 169.965 133.014 170.143 133.455C170.503 134.347 170.94 135.173 171.404 135.809C171.52 135.963 171.635 136.113 171.749 136.235C171.805 136.302 171.86 136.354 171.914 136.411C171.941 136.441 171.967 136.46 171.993 136.486C172.02 136.511 172.043 136.534 172.039 136.525C172.05 136.527 172.063 136.52 172.069 136.515C172.084 136.503 172.082 136.487 172.078 136.482L172.08 136.484C172.081 136.489 172.079 136.479 172.108 136.446C172.154 136.383 172.204 136.343 172.252 136.265L172.401 136.042L172.478 135.93L172.551 135.798L172.702 135.536C172.8 135.354 172.89 135.148 172.989 134.957C173.36 134.145 173.664 133.211 173.894 132.249C174.124 131.285 174.283 130.285 174.375 129.28C174.469 128.274 174.485 127.264 174.427 126.252C174.373 125.243 174.241 124.237 174.034 123.302C173.933 122.832 173.807 122.384 173.666 121.978C173.526 121.573 173.365 121.204 173.22 120.94C173.085 120.677 172.937 120.472 172.621 120.172C172.469 120.027 172.255 119.85 172.029 119.663L171.467 119.201C171.311 119.076 171.186 118.984 171.125 118.932C171.116 118.924 171.097 118.904 171.096 118.9L171.089 118.886C171.089 118.884 171.09 118.883 171.091 118.882L171.109 118.8C171.132 118.661 171.15 118.598 171.157 118.494C171.161 118.45 171.165 118.428 171.166 118.391L171.168 118.305C171.169 118.286 171.168 118.265 171.166 118.244L171.165 118.236L171.142 117.932L171.142 117.935L171.143 117.947L171.145 117.97C171.15 117.991 171.156 118.041 171.169 118.077C171.18 118.116 171.198 118.176 171.219 118.219C171.243 118.286 171.269 118.325 171.304 118.394C171.339 118.462 171.376 118.51 171.424 118.586L171.46 118.635C171.47 118.648 171.461 118.635 171.462 118.636C171.459 118.632 171.454 118.635 171.45 118.633C171.44 118.629 171.428 118.628 171.413 118.636C171.398 118.637 171.38 118.643 171.361 118.656C171.175 118.748 170.752 118.926 170.278 119.032C169.798 119.138 169.247 119.178 168.73 119.044C168.222 118.912 167.738 118.608 167.488 118.056C167.361 117.781 167.3 117.443 167.342 117.045C167.392 116.648 167.543 116.185 167.905 115.7C168.214 115.291 168.614 114.881 169.156 114.54C169.287 114.455 169.442 114.378 169.589 114.304C169.747 114.234 169.905 114.166 170.077 114.112C170.41 114.002 170.821 113.935 171.142 113.922C171.824 113.887 172.425 114.016 172.921 114.169C173.415 114.327 173.815 114.515 174.168 114.694C174.52 114.874 174.822 115.048 175.093 115.203C175.355 115.354 175.632 115.511 175.954 115.721C176.588 116.128 177.326 116.734 177.887 117.434C178.453 118.12 178.862 118.801 179.212 119.476C179.56 120.152 179.84 120.823 180.074 121.493C180.31 122.163 180.508 122.833 180.667 123.505C180.832 124.177 180.96 124.851 181.06 125.529C181.262 126.88 181.348 128.257 181.313 129.629C181.28 131.001 181.14 132.372 180.878 133.739C180.612 135.108 180.233 136.472 179.654 137.85C179.495 138.197 179.349 138.54 179.172 138.887L178.891 139.409L178.748 139.669L178.583 139.934L178.242 140.46C178.13 140.634 177.978 140.816 177.845 140.992C177.69 141.194 177.509 141.425 177.296 141.635C177.089 141.848 176.876 142.056 176.657 142.256Z" fill="#0B2C4A"/>
<path d="M140.646 178.311C139.32 178.722 138.3 179.756 137.17 180.563C136.143 181.297 134.963 181.866 133.705 181.971C132.447 182.076 131.107 181.661 130.287 180.701C129.358 179.612 129.239 177.999 129.674 176.635C130.109 175.272 131.021 174.114 131.988 173.059C139.158 165.246 148.464 162.976 158.661 165.413C163.451 166.558 168.354 169.056 170.361 173.553C170.999 174.982 171.248 176.814 170.217 177.992C169.027 179.353 166.883 179.107 165.111 178.745C162.762 178.265 160.414 177.786 158.065 177.306" fill="#0B2C4A"/>
<path d="M150.185 169.399C147.775 169.456 145.463 169.935 143.272 170.758L142.859 170.907C142.722 170.959 142.591 171.027 142.457 171.085L141.651 171.444C141.381 171.56 141.129 171.719 140.866 171.852C140.607 171.997 140.335 172.116 140.084 172.277L139.324 172.751L138.941 172.986L138.574 173.252L137.834 173.778L137.741 173.843L137.697 173.874L137.69 173.876L137.663 173.886L137.605 173.909L137.36 174.011C137.274 174.049 137.176 174.098 137.07 174.166C136.861 174.298 136.602 174.51 136.429 174.839C136.251 175.157 136.195 175.611 136.368 175.928C136.529 176.254 136.843 176.443 137.194 176.455C137.446 176.469 137.71 176.395 138.021 176.279C138.296 176.182 138.638 176.422 139.144 176.794C139.552 176.906 139.888 177.116 140.134 177.385C140.382 177.654 140.542 177.974 140.647 178.311C140.849 178.992 140.866 179.722 140.857 180.344C140.697 180.746 140.424 181.232 140.031 181.756C139.639 182.277 139.117 182.812 138.516 183.24C137.2 184.179 135.936 184.801 134.619 185.131C133.692 185.357 132.75 185.439 131.804 185.34C130.859 185.242 129.91 184.963 129.042 184.487C128.172 184.018 127.387 183.339 126.798 182.527C126.204 181.718 125.802 180.8 125.57 179.86C125.34 178.916 125.277 177.954 125.363 176.999C125.448 176.041 125.681 175.076 126.095 174.079C126.302 173.582 126.555 173.076 126.858 172.566L127.094 172.183C127.179 172.055 127.291 171.931 127.388 171.804L127.995 171.046L129.219 169.517C129.314 169.384 129.449 169.273 129.565 169.152L129.928 168.795L130.656 168.078L131.388 167.358L131.755 166.998L131.847 166.907L131.91 166.853L132.032 166.75L133.014 165.931L133.508 165.524L134.029 165.146L135.08 164.397C135.431 164.146 135.812 163.937 136.179 163.707C136.553 163.487 136.914 163.246 137.302 163.049L138.467 162.456C138.662 162.36 138.854 162.256 139.054 162.168L139.658 161.914C142.87 160.539 146.354 159.758 149.79 159.633L151.192 159.602L152.581 159.656L153.275 159.688C153.505 159.703 153.732 159.732 153.961 159.754L155.329 159.9C155.782 159.958 156.227 160.043 156.676 160.115C157.122 160.195 157.575 160.254 158.01 160.363C158.891 160.566 159.753 160.744 160.659 161.011C162.448 161.528 164.22 162.222 165.945 163.133C167.665 164.057 169.346 165.225 170.84 166.731L171.486 167.418C171.747 167.696 171.959 168 172.187 168.295C172.409 168.594 172.645 168.883 172.852 169.186L173.417 170.12C173.507 170.276 173.612 170.427 173.691 170.586L173.91 171.067C174.054 171.388 174.206 171.706 174.342 172.025L174.638 172.991L174.785 173.472C174.821 173.632 174.852 173.791 174.883 173.95C175.109 175.224 175.086 176.476 174.774 177.646C174.47 178.812 173.847 179.929 172.943 180.759C172.056 181.607 170.966 182.13 169.804 182.387C168.645 182.659 167.356 182.636 166.044 182.429C165.388 182.322 164.726 182.17 164.073 181.996L163.101 181.739L162.98 181.707L162.881 181.68L162.739 181.636L162.455 181.548L160.187 180.833C156.63 179.695 157.682 174.545 161.4 174.892L163.767 175.124L164.063 175.155L164.21 175.17C164.241 175.174 164.25 175.173 164.256 175.172L164.28 175.17L164.467 175.15C164.588 175.136 164.699 175.122 164.802 175.106C165.207 175.037 165.534 174.911 165.659 174.58C165.716 174.417 165.699 174.227 165.635 174.066C165.573 173.905 165.479 173.772 165.382 173.668C165.283 173.564 165.187 173.485 165.095 173.428C165.049 173.4 165.005 173.376 164.963 173.357C164.942 173.349 164.923 173.335 164.901 173.335C164.896 173.335 164.892 173.334 164.888 173.333C164.883 173.331 164.888 173.338 164.855 173.308L164.711 173.179C163.897 172.511 162.906 171.915 161.797 171.414C160.679 170.922 159.46 170.51 158.184 170.205C157.56 170.049 156.86 169.937 156.188 169.804C155.85 169.728 155.513 169.702 155.176 169.651C154.838 169.609 154.501 169.55 154.166 169.517L153.161 169.437C152.994 169.424 152.826 169.404 152.659 169.397L152.162 169.387L151.168 169.361L150.185 169.399Z" fill="#0B2C4A"/>
<path d="M150.67 165.955C149.033 165.698 147.309 165.684 145.809 166.538C143.645 167.77 142.315 170.663 141.973 173.593C141.399 178.523 142.192 183.753 142.606 188.68C142.877 191.91 143.159 195.187 144.294 198.223C145.429 201.259 147.547 204.076 150.542 205.313C153.558 206.558 157.251 205.962 159.723 203.833C162.698 201.271 163.639 197.087 164.001 193.177C164.618 186.531 165.144 171.848 159.564 166.889C158.689 166.111 157.543 166.044 156.468 166.005C153.928 165.913 151.387 165.822 148.847 165.73" fill="#D15A5B"/>
<path d="M145.131 208.969C144.179 208.307 143.305 207.558 142.522 206.739C141.742 205.915 141.046 205.026 140.439 204.082C139.829 203.139 139.311 202.138 138.896 201.089C138.785 200.83 138.695 200.562 138.602 200.295C138.507 200.026 138.419 199.76 138.346 199.498C138.188 198.971 138.065 198.449 137.955 197.931C137.532 195.861 137.442 193.92 137.423 192.156C137.415 191.271 137.425 190.432 137.434 189.62L137.464 187.169C137.509 183.903 137.568 180.639 137.645 177.378C137.654 176.926 137.664 176.676 137.661 176.299L137.655 175.744L137.642 175.153C137.624 174.342 137.598 173.448 137.624 172.476C137.652 171.503 137.727 170.445 137.963 169.294L138.082 168.745C138.127 168.555 138.181 168.379 138.236 168.198C138.349 167.838 138.458 167.478 138.608 167.137C138.882 166.438 139.255 165.803 139.647 165.181L139.981 164.741L140.064 164.631C140.102 164.604 140.127 164.563 140.159 164.53L140.341 164.324C140.463 164.188 140.585 164.051 140.713 163.921L141.12 163.557C141.387 163.309 141.694 163.113 141.989 162.905C142.296 162.715 142.61 162.533 142.936 162.382C144.241 161.772 145.701 161.53 147.124 161.674C148.55 161.8 149.935 162.309 151.129 163.112C152.331 163.916 153.312 165.006 154.078 166.261C154.73 167.343 155.136 168.505 155.379 169.596C155.623 170.693 155.699 171.719 155.727 172.681C155.764 174.597 155.589 176.269 155.526 177.79C155.463 179.114 155.177 180.006 154.751 180.72C154.327 181.42 153.758 181.946 153.077 182.155C152.408 182.361 151.601 182.204 150.886 181.492C150.175 180.794 149.607 179.536 149.465 177.979C149.296 176.205 149.24 174.574 149.03 173.197C148.923 172.517 148.787 171.899 148.601 171.401C148.415 170.901 148.201 170.511 147.946 170.209C147.668 169.928 147.275 169.757 146.941 169.819C146.772 169.838 146.625 169.927 146.507 170.021C146.391 170.125 146.319 170.264 146.283 170.398C146.247 170.533 146.239 170.658 146.252 170.781C146.201 171.234 146.191 171.809 146.221 172.464C146.25 173.121 146.316 173.856 146.387 174.671L146.439 175.301L146.488 175.968C146.519 176.405 146.537 176.97 146.55 177.334C146.659 180.594 146.751 183.857 146.828 187.123L146.883 189.573C146.901 190.394 146.916 191.189 146.944 191.938C146.999 193.438 147.123 194.777 147.383 195.908C147.45 196.188 147.519 196.462 147.603 196.717C147.642 196.849 147.686 196.969 147.731 197.085C147.776 197.203 147.814 197.323 147.87 197.438C148.063 197.908 148.31 198.363 148.597 198.789C148.882 199.216 149.204 199.617 149.553 199.98C149.906 200.339 150.288 200.654 150.681 200.924C150.972 201.141 151.284 201.299 151.588 201.462C151.896 201.594 152.217 201.74 152.517 201.811C153.117 201.991 153.799 202.051 154.474 202C155.152 201.96 155.816 201.777 156.399 201.521C156.991 201.27 157.462 200.904 157.848 200.517C158.045 200.296 158.25 200.057 158.424 199.765C158.521 199.632 158.597 199.464 158.688 199.313C158.766 199.142 158.856 198.984 158.929 198.796C159.089 198.442 159.219 198.027 159.35 197.604C159.467 197.163 159.585 196.712 159.672 196.216C159.863 195.242 159.982 194.158 160.085 193.019C160.185 191.851 160.266 190.686 160.322 189.527C160.438 187.21 160.447 184.917 160.319 182.656C160.255 181.526 160.157 180.404 160.013 179.294C159.94 178.739 159.865 178.185 159.769 177.637L159.455 175.817C159.255 174.61 159.07 173.497 158.833 172.46C158.599 171.43 158.314 170.474 157.973 169.723C157.804 169.349 157.624 169.03 157.45 168.781C157.275 168.532 157.115 168.348 156.957 168.219C156.875 168.157 156.797 168.092 156.704 168.045C156.68 168.032 156.657 168.019 156.634 168.004C156.62 167.997 156.615 167.994 156.605 167.986C156.589 167.965 156.566 167.959 156.542 167.945C156.447 167.893 156.289 167.86 156.102 167.891C155.669 167.947 155.072 167.986 154.376 168.103C153.687 168.206 152.922 168.353 152.234 168.158C151.894 168.061 151.582 167.877 151.335 167.562C151.084 167.246 150.919 166.8 150.914 166.219C150.907 165.639 151.092 164.93 151.561 164.193C152.031 163.462 152.814 162.716 153.941 162.225C154.894 161.81 155.979 161.593 157.103 161.655C157.384 161.671 157.665 161.695 157.946 161.752C158.085 161.778 158.23 161.804 158.364 161.835L158.732 161.935C159.223 162.072 159.701 162.269 160.158 162.497C161.073 162.959 161.855 163.586 162.498 164.245C163.143 164.908 163.656 165.608 164.086 166.301C164.942 167.693 165.49 169.06 165.948 170.378C166.401 171.695 166.744 172.979 167.061 174.17L167.294 175.034L167.411 175.457L167.539 175.944C167.713 176.593 167.861 177.245 168.004 177.899C168.289 179.206 168.511 180.52 168.685 181.834C169.036 184.462 169.196 187.09 169.217 189.688C169.229 190.988 169.208 192.28 169.162 193.568C169.108 194.884 169.028 196.256 168.813 197.711C168.716 198.432 168.564 199.183 168.391 199.937C168.195 200.701 167.981 201.471 167.674 202.257C167.533 202.647 167.351 203.043 167.177 203.434C166.98 203.826 166.795 204.218 166.56 204.604C166.121 205.381 165.577 206.128 164.969 206.838C163.702 208.273 162.169 209.428 160.521 210.208C158.873 210.998 157.124 211.487 155.343 211.648C153.563 211.817 151.745 211.693 149.966 211.211C149.067 210.983 148.243 210.654 147.423 210.288C146.625 209.898 145.844 209.472 145.131 208.969Z" fill="#0B2C4A"/>
<path d="M185.108 120.101C185.297 113.45 185.713 106.771 186.958 100.135C187.316 98.1912 192.569 98.0179 193.021 100.005C194.523 106.726 194.932 113.47 194.881 120.295C194.854 121.15 194.821 122.005 194.775 122.863L194.644 125.291C194.557 126.91 194.473 128.56 194.35 130.235C194.103 133.58 193.705 137.046 192.836 140.485C192.304 142.536 187.069 142.036 186.781 140.162C186.265 136.929 185.775 133.695 185.454 130.333C185.294 128.653 185.175 126.944 185.123 125.2C185.112 124.763 185.099 124.327 185.096 123.887L185.092 122.583L185.108 120.101Z" fill="#0B2C4A"/>
<path d="M201.948 140.156C202.422 138.55 202.703 136.761 202.854 134.876C202.875 134.641 202.891 134.404 202.905 134.164C202.922 133.926 202.935 133.686 202.945 133.443C202.971 132.959 202.986 132.472 202.996 132.018C203.012 131.105 202.989 130.275 202.906 129.539C202.865 129.171 202.81 128.826 202.739 128.502L202.684 128.265L202.627 128.047C202.586 127.903 202.54 127.761 202.49 127.62C202.288 127.059 202.008 126.56 201.713 126.182C201.565 125.992 201.414 125.83 201.255 125.69L201.045 125.51C200.974 125.457 200.893 125.406 200.802 125.359C200.433 125.171 199.944 125.092 199.542 125.126C199.293 125.154 198.89 124.962 198.365 124.724C197.848 124.479 197.216 124.165 196.667 123.729C196.116 123.292 195.653 122.707 195.55 121.984C195.443 121.274 195.744 120.424 196.596 119.826C198.076 118.814 199.804 118.35 201.569 118.395C202.013 118.409 202.461 118.456 202.911 118.541C203.135 118.579 203.361 118.642 203.586 118.698C203.812 118.756 204.008 118.827 204.221 118.896C205.048 119.186 205.823 119.588 206.522 120.063C207.922 121.019 209.015 122.236 209.853 123.561C210.061 123.893 210.255 124.234 210.434 124.582C210.523 124.756 210.606 124.933 210.69 125.11L210.917 125.63C211.204 126.324 211.432 127.023 211.613 127.711C211.974 129.088 212.15 130.416 212.251 131.661C212.3 132.286 212.333 132.88 212.349 133.477C212.361 133.775 212.367 134.075 212.368 134.378C212.373 134.679 212.373 134.981 212.366 135.287C212.33 137.72 212.059 140.257 211.35 142.825C210.979 144.102 210.496 145.38 209.88 146.62C209.571 147.243 209.235 147.844 208.852 148.45C208.465 149.063 208.042 149.647 207.591 150.206C205.78 152.426 203.474 154.255 200.693 155.385C199.306 155.943 197.798 156.312 196.244 156.405C195.854 156.42 195.463 156.423 195.076 156.423C194.685 156.404 194.295 156.37 193.909 156.335C193.724 156.314 193.568 156.284 193.397 156.258C193.233 156.23 193.054 156.206 192.905 156.173C192.599 156.107 192.276 156.048 191.988 155.973C190.804 155.69 189.711 155.352 188.635 154.986C187.563 154.619 186.517 154.22 185.485 153.795C184.267 153.292 183.991 151.751 184.357 150.385C184.724 149.017 185.669 147.808 186.91 147.901C187.958 147.976 189.005 148.05 190.05 148.125C191.082 148.191 192.105 148.25 193.054 148.265C193.298 148.274 193.511 148.263 193.74 148.265C193.858 148.267 193.948 148.255 194.052 148.252C194.149 148.245 194.261 148.245 194.346 148.235C194.498 148.205 194.647 148.186 194.795 148.164C194.945 148.122 195.092 148.091 195.238 148.058C195.827 147.894 196.411 147.639 196.985 147.299C198.132 146.62 199.224 145.581 200.056 144.385C200.263 144.086 200.456 143.779 200.629 143.466C200.807 143.147 200.984 142.793 201.141 142.439C201.46 141.726 201.728 140.963 201.948 140.156Z" fill="#0B2C4A"/>
<path d="M200.041 119.12C200.086 119.601 200.142 120.067 200.174 120.562L200.225 121.297L200.262 121.801L200.292 122.468L200.347 123.809L200.374 124.478L200.387 124.811C200.396 124.841 200.37 124.861 200.357 124.885L200.31 124.955L200.217 125.095L199.47 126.207C199.346 126.391 199.222 126.576 199.09 126.76L198.993 126.898C198.969 126.927 198.894 127.071 198.871 127.105L198.809 127.203C198.134 128.235 197.466 129.65 196.847 131.14C196.222 132.639 195.627 134.242 195.008 135.88C194.389 137.519 193.754 139.198 193.027 140.907C192.148 142.959 187.053 141.659 187.106 139.6C187.148 137.813 187.236 135.981 187.427 134.125C187.619 132.268 187.904 130.384 188.366 128.454C188.84 126.523 189.449 124.548 190.561 122.447L190.666 122.25C190.671 122.236 190.622 122.33 190.629 122.312L190.627 122.308C190.625 122.304 190.624 122.301 190.621 122.298C190.616 122.291 190.612 122.285 190.607 122.28C190.596 122.269 190.581 122.261 190.571 122.257C190.569 122.254 190.565 122.26 190.563 122.25C190.56 122.239 190.558 122.229 190.556 122.219L190.541 122.079L190.476 121.466C190.439 121.061 190.375 120.631 190.328 120.215C189.975 116.831 189.502 113.307 189.166 109.754C188.83 106.192 188.595 102.583 188.676 98.8709C188.735 96.6511 193.945 95.949 194.661 97.8929C195.91 101.245 197.021 104.686 197.927 108.209C198.832 111.739 199.569 115.326 200.041 119.12Z" fill="#0B2C4A"/>
<path d="M188.9 138.227C189.687 132.155 190.195 126.048 190.423 119.931C190.599 115.217 191.987 107.23 190.024 102.919C194.043 100.951 194.261 106.803 194.581 109.651C195.054 113.875 195.393 118.113 195.598 122.359C195.625 122.916 195.648 123.485 195.499 124.023C195.335 124.62 194.971 125.138 194.613 125.643C192.129 129.151 189.458 133.862 188.9 138.227Z" fill="#0B2C4A"/>
<path d="M105.467 121.094C105.416 114.269 105.825 107.525 107.327 100.804C107.778 98.817 113.032 98.9903 113.389 100.934C114.634 107.57 115.051 114.25 115.24 120.9L115.256 123.382L115.252 124.686C115.249 125.127 115.236 125.562 115.225 126C115.172 127.743 115.053 129.452 114.893 131.132C114.572 134.495 114.083 137.728 113.567 140.961C113.278 142.835 108.044 143.335 107.512 141.284C106.642 137.845 106.245 134.379 105.998 131.033C105.875 129.359 105.79 127.709 105.704 126.09L105.573 123.662C105.527 122.804 105.494 121.949 105.467 121.094Z" fill="#0B2C4A"/>
<path d="M88.9979 143.624C88.2896 141.056 88.0185 138.519 87.9818 136.086C87.9751 135.78 87.9753 135.478 87.9797 135.177C87.9809 134.874 87.9874 134.574 87.9988 134.276C88.0152 133.679 88.0481 133.085 88.0973 132.46C88.1978 131.215 88.3746 129.887 88.7357 128.51C88.9163 127.822 89.144 127.123 89.431 126.429L89.6578 125.909C89.7422 125.732 89.8252 125.555 89.9138 125.381C90.0934 125.033 90.2873 124.692 90.4956 124.36C91.3334 123.035 92.4262 121.818 93.8265 120.863C94.5249 120.387 95.3001 119.985 96.1276 119.695C96.3399 119.626 96.536 119.555 96.762 119.497C96.9872 119.441 97.213 119.378 97.4377 119.34C97.8876 119.255 98.3355 119.208 98.7788 119.194C100.545 119.149 102.273 119.613 103.752 120.625C104.604 121.223 104.905 122.073 104.798 122.783C104.695 123.507 104.232 124.091 103.682 124.528C103.132 124.964 102.5 125.279 101.983 125.523C101.458 125.761 101.055 125.953 100.807 125.925C100.404 125.891 99.9147 125.97 99.5463 126.158C99.4554 126.205 99.3737 126.256 99.3034 126.309L99.093 126.489C98.9337 126.629 98.7827 126.791 98.6346 126.981C98.3398 127.359 98.0601 127.858 97.8577 128.419C97.808 128.56 97.7623 128.702 97.7207 128.846L97.6644 129.064L97.6089 129.302C97.5383 129.625 97.4829 129.97 97.4417 130.338C97.3589 131.074 97.3358 131.904 97.3527 132.818C97.3617 133.272 97.3768 133.759 97.4033 134.243C97.4131 134.485 97.4265 134.726 97.4434 134.964C97.457 135.203 97.4733 135.441 97.4943 135.675C97.6452 137.561 97.9259 139.349 98.4006 140.955C98.6207 141.763 98.8886 142.526 99.2068 143.239C99.3639 143.593 99.5412 143.947 99.7189 144.266C99.8918 144.578 100.085 144.885 100.292 145.184C101.124 146.38 102.217 147.419 103.363 148.098C103.937 148.439 104.522 148.693 105.11 148.857C105.257 148.89 105.404 148.921 105.554 148.963C105.701 148.985 105.85 149.004 106.002 149.034C106.087 149.044 106.199 149.044 106.296 149.051C106.4 149.054 106.491 149.066 106.608 149.064C106.837 149.062 107.051 149.073 107.294 149.064C108.243 149.049 109.267 148.991 110.298 148.924C111.343 148.849 112.39 148.775 113.438 148.7C114.679 148.607 115.624 149.816 115.991 151.184C116.357 152.55 116.082 154.091 114.863 154.594C113.831 155.02 112.786 155.418 111.713 155.785C110.637 156.152 109.544 156.489 108.36 156.773C108.072 156.847 107.749 156.906 107.443 156.972C107.294 157.005 107.115 157.029 106.951 157.058C106.78 157.084 106.624 157.114 106.439 157.135C106.053 157.169 105.663 157.204 105.272 157.222C104.885 157.222 104.494 157.219 104.104 157.204C102.55 157.111 101.042 156.743 99.6546 156.184C96.8736 155.054 94.5675 153.225 92.7568 151.005C92.3057 150.446 91.883 149.862 91.4957 149.249C91.1126 148.643 90.7771 148.042 90.4679 147.419C89.8517 146.179 89.3691 144.901 88.9979 143.624Z" fill="#0B2C4A"/>
<path d="M110.02 121.014C109.973 121.431 109.909 121.86 109.871 122.265L109.807 122.878L109.792 123.018C109.79 123.028 109.788 123.039 109.785 123.049C109.782 123.059 109.779 123.053 109.777 123.056C109.767 123.06 109.752 123.068 109.741 123.079C109.736 123.084 109.731 123.09 109.727 123.097C109.724 123.101 109.723 123.104 109.721 123.108L109.719 123.111C109.726 123.129 109.676 123.035 109.682 123.049L109.787 123.246C110.899 125.347 111.508 127.322 111.982 129.254C112.444 131.184 112.729 133.067 112.921 134.924C113.112 136.78 113.2 138.612 113.242 140.399C113.295 142.458 108.2 143.758 107.321 141.706C106.594 139.997 105.959 138.318 105.339 136.679C104.721 135.041 104.126 133.438 103.501 131.939C102.882 130.449 102.213 129.034 101.538 128.002L101.476 127.904C101.453 127.87 101.379 127.725 101.355 127.696L101.257 127.559C101.126 127.375 101.001 127.19 100.878 127.005L100.131 125.893L100.038 125.754L99.991 125.684C99.9776 125.66 99.9521 125.64 99.9607 125.61L99.9738 125.276L100.001 124.608L100.056 123.267L100.086 122.6L100.122 122.096L100.174 121.361C100.205 120.866 100.262 120.401 100.307 119.919C100.779 116.125 101.516 112.538 102.421 109.008C103.327 105.485 104.438 102.044 105.687 98.692C106.403 96.748 111.613 97.4502 111.672 99.6699C111.753 103.382 111.518 106.992 111.182 110.553C110.846 114.107 110.373 117.63 110.02 121.014Z" fill="#0B2C4A"/>
<path d="M111.448 139.025C110.661 132.954 110.153 126.847 109.925 120.73C109.749 116.016 108.361 108.029 110.324 103.718C106.305 101.75 106.087 107.602 105.768 110.45C105.294 114.673 104.955 118.912 104.75 123.158C104.723 123.715 104.7 124.284 104.849 124.822C105.013 125.419 105.377 125.937 105.735 126.442C108.219 129.949 110.89 134.661 111.448 139.025Z" fill="#0B2C4A"/>
<path d="M212.351 82.0808C210.335 83.4705 208.397 85.2177 206.491 87.2183C204.578 89.2095 202.686 91.3946 200.661 93.6265C199.637 94.7438 198.604 95.8691 197.482 96.982C197.2 97.2586 196.934 97.5422 196.64 97.8121L195.759 98.6216C195.166 99.1562 194.593 99.7068 193.982 100.223C192.725 101.228 191.507 102.267 190.153 103.161L189.16 103.852C188.992 103.965 188.833 104.087 188.659 104.191L188.138 104.505L186.054 105.75C183.204 107.291 180.226 108.568 177.181 109.522C176.42 109.756 175.652 109.948 174.888 110.159C174.506 110.26 174.124 110.371 173.741 110.462L172.589 110.704C171.821 110.857 171.055 111.039 170.287 111.164L167.988 111.515C167.221 111.646 166.458 111.702 165.695 111.788L164.551 111.905C164.17 111.944 163.789 111.986 163.41 112.004C161.893 112.092 160.374 112.214 158.872 112.23L156.616 112.282L154.374 112.269C152.878 112.272 151.396 112.211 149.913 112.163C149.039 112.138 148.277 112.017 147.625 111.837C146.973 111.658 146.429 111.422 145.995 111.147C145.127 110.597 144.697 109.893 144.697 109.185C144.697 108.478 145.127 107.767 145.977 107.205C146.402 106.925 146.933 106.681 147.57 106.493C148.207 106.308 148.949 106.176 149.793 106.1C151.228 105.978 152.666 105.876 154.087 105.719L156.223 105.507L158.339 105.244C159.756 105.092 161.139 104.846 162.532 104.643C162.882 104.596 163.223 104.527 163.566 104.461L164.593 104.265C165.276 104.13 165.968 104.024 166.634 103.852L168.647 103.383C169.315 103.223 169.961 103.014 170.618 102.835L171.6 102.557C171.923 102.456 172.238 102.339 172.557 102.231C173.191 102.006 173.834 101.804 174.46 101.567C176.955 100.605 179.317 99.4222 181.569 98.0672L183.212 96.9746L183.624 96.7038C183.761 96.6145 183.888 96.5053 184.02 96.4073L184.807 95.8052C185.879 95.0414 186.856 94.1244 187.868 93.2653C188.362 92.8177 188.83 92.3295 189.314 91.8661L190.035 91.1639C190.276 90.9309 190.504 90.6706 190.739 90.4257C191.676 89.4425 192.603 88.3779 193.54 87.3064C195.415 85.1404 197.33 82.8382 199.461 80.5532C201.582 78.2696 203.99 75.9953 206.817 74.0242C207.159 73.771 207.535 73.5444 207.907 73.3152C208.279 73.0867 208.649 72.8558 209.025 72.6332L210.202 72.0156L210.792 71.7105C210.991 71.6123 211.201 71.5293 211.405 71.4387L212.64 70.9121C212.839 70.8229 213.07 70.7447 213.293 70.6645C213.517 70.5854 213.74 70.5026 213.969 70.4353C214.873 70.1386 215.81 69.9207 216.769 69.7515C218.687 69.4305 220.742 69.3517 222.905 69.7813C223.98 69.9866 225.082 70.3432 226.142 70.8589C226.675 71.1022 227.187 71.4221 227.69 71.7423C227.935 71.9169 228.177 72.0953 228.416 72.2769C228.661 72.4538 228.866 72.6639 229.089 72.8607C230.852 74.4514 232.11 76.593 232.713 78.6259C233.341 80.6724 233.499 82.6259 233.469 84.4446C233.433 86.2674 233.198 87.9769 232.871 89.6158L232.603 90.8304C232.504 91.2231 232.409 91.6385 232.303 92.0115L231.666 94.2548C230.763 97.2345 229.676 100.174 228.367 103.03C227.059 105.885 225.48 108.635 223.688 111.233C223.237 111.882 222.796 112.534 222.296 113.149L221.567 114.083C221.324 114.393 221.084 114.706 220.818 114.999L219.255 116.775L217.594 118.458C215.329 120.645 212.86 122.595 210.257 124.292C209.479 124.773 208.752 125.125 208.093 125.36C207.421 125.573 206.81 125.659 206.286 125.658C205.234 125.654 204.512 125.268 204.158 124.655C203.803 124.043 203.812 123.206 204.224 122.299C204.429 121.844 204.74 121.379 205.154 120.897C205.552 120.395 206.059 119.888 206.691 119.387C208.795 117.629 210.737 115.718 212.49 113.66L213.769 112.089L214.961 110.453C215.167 110.187 215.347 109.9 215.53 109.617L216.082 108.769C216.464 108.215 216.793 107.623 217.132 107.041C218.48 104.704 219.663 102.267 220.636 99.7247C221.61 97.1835 222.418 94.5652 223.089 91.8954L223.561 89.8808C223.641 89.5445 223.692 89.2406 223.761 88.9194L223.926 87.9764C224.122 86.7293 224.228 85.5118 224.206 84.398C224.188 83.2857 224.031 82.2835 223.767 81.5269C223.744 81.4201 223.691 81.3514 223.658 81.2614L223.553 81.0053C223.508 80.9346 223.466 80.8631 223.427 80.79C223.388 80.7175 223.356 80.6367 223.304 80.5846C223.208 80.4693 223.142 80.3264 223.031 80.238C222.982 80.1866 222.936 80.1329 222.893 80.076C222.836 80.0322 222.778 79.9899 222.725 79.9426C222.669 79.9013 222.627 79.8334 222.566 79.8052C222.508 79.7704 222.454 79.7325 222.401 79.6908C222.276 79.6319 222.169 79.5495 222.027 79.5003C221.762 79.3807 221.453 79.2781 221.081 79.2217C220.354 79.0891 219.419 79.1097 218.444 79.2928C217.956 79.3898 217.457 79.5054 216.965 79.6778C216.84 79.7134 216.72 79.7636 216.597 79.808C216.475 79.8544 216.357 79.8913 216.221 79.9574L215.43 80.3076C215.299 80.3672 215.164 80.4169 215.035 80.4836L214.648 80.6931L213.87 81.1047L213.109 81.582C212.855 81.7405 212.598 81.8912 212.351 82.0808Z" fill="#0B2C4A"/>
<path d="M93.5325 74.0242C96.3591 75.9954 98.7672 78.2698 100.889 80.5535C103.02 82.8386 104.934 85.1409 106.81 87.3069C107.746 88.3784 108.674 89.443 109.61 90.4262C109.846 90.6711 110.074 90.9314 110.315 91.1644L111.036 91.8665C111.52 92.3299 111.988 92.8182 112.482 93.2658C113.493 94.1248 114.47 95.0418 115.543 95.8056L116.329 96.4077C116.462 96.5056 116.588 96.6149 116.726 96.7041L117.137 96.9749L118.781 98.0675C121.032 99.4225 123.394 100.605 125.89 101.567C126.515 101.804 127.159 102.006 127.793 102.231C128.112 102.339 128.427 102.456 128.75 102.557L129.731 102.835C130.389 103.014 131.035 103.223 131.703 103.383L133.715 103.852C134.381 104.024 135.074 104.13 135.756 104.265L136.784 104.461C137.126 104.527 137.468 104.596 137.817 104.643C139.21 104.846 140.593 105.092 142.01 105.244L144.126 105.507L146.262 105.719C147.683 105.876 149.121 105.978 150.557 106.1C151.401 106.176 152.143 106.308 152.779 106.493C153.416 106.681 153.947 106.924 154.372 107.205C155.223 107.767 155.652 108.478 155.652 109.185C155.652 109.893 155.222 110.597 154.354 111.147C153.92 111.422 153.377 111.658 152.724 111.837C152.072 112.017 151.31 112.138 150.436 112.163C148.953 112.211 147.471 112.272 145.975 112.269L143.733 112.282L141.477 112.23C139.975 112.214 138.456 112.092 136.939 112.004C136.56 111.986 136.179 111.944 135.798 111.905L134.654 111.787C133.891 111.702 133.128 111.646 132.361 111.515L130.061 111.164C129.294 111.039 128.528 110.857 127.76 110.704L126.608 110.462C126.224 110.37 125.843 110.26 125.461 110.159C124.697 109.948 123.929 109.756 123.168 109.521C120.123 108.567 117.144 107.291 114.295 105.749L112.211 104.505L111.69 104.191C111.516 104.087 111.356 103.965 111.189 103.852L110.195 103.161C108.841 102.267 107.623 101.228 106.367 100.223C105.755 99.7064 105.183 99.1558 104.59 98.6212L103.709 97.8117C103.415 97.5418 103.148 97.2582 102.867 96.9816C101.745 95.8688 100.712 94.7434 99.6874 93.6261C97.663 91.3944 95.771 89.2093 93.8584 87.2182C91.9523 85.2176 90.0137 83.4706 87.9982 82.0809C87.7515 81.8912 87.4945 81.7405 87.2402 81.582L86.4787 81.1047L85.7015 80.693L85.3147 80.4835C85.1848 80.4168 85.0503 80.3672 84.9188 80.3075L84.1278 79.9573C83.9925 79.8912 83.8743 79.8544 83.7515 79.8079C83.6293 79.7635 83.5086 79.7134 83.3842 79.6777C82.8925 79.5053 82.3927 79.3897 81.9053 79.2928C80.9304 79.1097 79.9953 79.089 79.2681 79.2217C78.896 79.2782 78.5872 79.3808 78.3222 79.5003C78.1795 79.5496 78.0732 79.632 77.9476 79.6909C77.8953 79.7326 77.8407 79.7705 77.7832 79.8053C77.7222 79.8336 77.6803 79.9014 77.624 79.9427C77.5711 79.99 77.513 80.0323 77.4559 80.0763C77.413 80.1331 77.3673 80.1869 77.3184 80.2382C77.2074 80.3266 77.1416 80.4696 77.0455 80.5848C76.9927 80.6369 76.9612 80.7178 76.9218 80.7903C76.8828 80.8633 76.8408 80.9349 76.7957 81.0055L76.6908 81.2617C76.6579 81.3516 76.6051 81.4205 76.5824 81.5273C76.3186 82.2839 76.1615 83.2861 76.1428 84.3985C76.1213 85.5123 76.2271 86.7299 76.423 87.9769L76.5888 88.9199C76.6571 89.2411 76.7086 89.545 76.7885 89.8813L77.2602 91.8958C77.9314 94.5658 78.7391 97.1839 79.713 99.725C80.6863 102.267 81.8691 104.704 83.2172 107.041C83.5567 107.623 83.8856 108.216 84.2672 108.769L84.8194 109.617C85.0029 109.9 85.1828 110.187 85.3881 110.453L86.5803 112.089L87.8596 113.66C89.6127 115.718 91.5544 117.629 93.6578 119.387C94.2899 119.888 94.7968 120.395 95.1956 120.897C95.6088 121.379 95.9207 121.844 96.1255 122.299C96.5369 123.206 96.5458 124.043 96.1917 124.655C95.8375 125.268 95.1149 125.654 94.0634 125.658C93.5394 125.659 92.9285 125.573 92.2563 125.36C91.5974 125.125 90.8702 124.773 90.092 124.292C87.4891 122.595 85.0207 120.645 82.7548 118.458L81.0947 116.775L79.5315 114.998C79.2648 114.706 79.0251 114.393 78.7822 114.082L78.053 113.149C77.5532 112.534 77.1119 111.882 76.6611 111.233C74.8688 108.635 73.2905 105.885 71.9823 103.029C70.6731 100.174 69.586 97.234 68.6827 94.2542L68.0458 92.011C67.9398 91.6379 67.8454 91.2225 67.7458 90.8298L67.4783 89.6152C67.1508 87.9763 66.9166 86.2668 66.8804 84.4439C66.8504 82.6251 67.0088 80.6716 67.637 78.6251C68.2395 76.5922 69.4981 74.4506 71.2605 72.86C71.4835 72.6634 71.6883 72.4532 71.9334 72.2763C72.173 72.0948 72.4154 71.9164 72.6601 71.7418C73.1628 71.4217 73.6751 71.1018 74.2083 70.8585C75.2674 70.343 76.3698 69.9864 77.4444 69.7812C79.6074 69.3517 81.6629 69.4305 83.5811 69.7516C84.5393 69.9208 85.4767 70.1387 86.3804 70.4354C86.6096 70.5027 86.8321 70.5855 87.0564 70.6646C87.2791 70.7448 87.5108 70.8231 87.7094 70.9122L88.9447 71.4388C89.1489 71.5294 89.3586 71.6124 89.5576 71.7106L90.1474 72.0157L91.324 72.6332C91.7006 72.8559 92.07 73.0868 92.4422 73.3152C92.8138 73.5445 93.1896 73.771 93.5325 74.0242Z" fill="#0B2C4A"/>
<path d="M150.167 42.5666C148.016 42.5523 145.94 42.0633 144.059 41.2107C142.18 40.3516 140.477 39.1289 139.061 37.5764C138.885 37.3787 138.709 37.1911 138.541 36.9745L138.288 36.657C138.204 36.5508 138.141 36.46 138.067 36.3605L137.855 36.0675L137.67 35.7981L137.488 35.5309L137.326 35.2836C136.898 34.6295 136.556 34.0867 136.263 33.6774C136.187 33.5646 136.123 33.4863 136.058 33.3987C135.99 33.3023 135.936 33.2482 135.881 33.1786C135.732 33.0099 135.795 33.0753 135.781 33.0553C135.777 33.0438 135.768 33.0374 135.759 33.0274C135.748 33.0192 135.734 33.0133 135.718 33.0109C135.506 33.0555 135.162 33.168 134.787 33.3632C134.599 33.4596 134.402 33.5693 134.205 33.6976C134.104 33.759 134.011 33.8253 133.906 33.8975L133.569 34.1506C133.34 34.3104 133.121 34.4971 132.901 34.6827C132.676 34.8583 132.465 35.0663 132.249 35.2646C130.527 36.8813 128.998 39.0036 127.63 41.359C126.945 42.5386 126.297 43.7791 125.667 45.0615C125.344 45.7062 125.057 46.3507 124.766 46.9951C124.477 47.6411 124.173 48.2798 123.893 48.9316L123.096 50.9081C122.965 51.2386 122.823 51.5643 122.701 51.8987L122.341 52.9063L121.62 54.9231L120.969 56.9724L120.644 57.9981L120.353 59.0377L119.767 61.1176L119.245 63.2232L118.982 64.2763L118.749 65.3399L118.28 67.4687L117.862 69.6157C117.567 71.0432 117.348 72.4949 117.09 73.9363C116.149 79.73 115.466 85.6172 114.838 91.5453C114.388 95.8559 112.873 97.9624 111.456 97.8869C110.047 97.8119 108.735 95.5705 108.785 91.1903C108.862 85.1656 109.076 79.0923 109.645 72.9821C109.812 71.4545 109.943 69.9252 110.159 68.395L110.463 66.0986L110.828 63.8024L111.014 62.6536L111.233 61.5068L111.675 59.2118L112.195 56.9234L112.457 55.7785L112.758 54.6393L113.369 52.3605C113.594 51.6049 113.834 50.852 114.067 50.0973L114.421 48.9657C114.542 48.5894 114.684 48.2183 114.815 47.8443L115.621 45.6038C115.906 44.8618 116.22 44.1288 116.52 43.3907C116.823 42.6532 117.125 41.9128 117.452 41.2003C118.102 39.7594 118.801 38.306 119.586 36.8578C121.159 33.9704 123.064 31.061 125.679 28.4765C126.009 28.1567 126.333 27.8338 126.692 27.5315C127.041 27.2235 127.393 26.9176 127.772 26.6321L128.333 26.1982C128.534 26.0515 128.747 25.8971 128.964 25.7552C129.394 25.4648 129.847 25.1923 130.324 24.9348C131.279 24.422 132.346 23.9706 133.604 23.6711C134.332 23.5089 135.075 23.4115 135.82 23.3986C136.565 23.3902 137.307 23.4694 138.035 23.621C139.396 23.931 140.668 24.5808 141.753 25.47C142.021 25.6983 142.288 25.9186 142.54 26.1738L142.883 26.527C142.988 26.6345 143.073 26.734 143.16 26.8347C143.334 27.0355 143.517 27.2452 143.659 27.4335C143.81 27.6264 143.966 27.8252 144.092 28.0033C144.63 28.7408 145.046 29.3958 145.401 29.9216L145.532 30.1168L145.651 30.2873L145.768 30.4552L145.87 30.5901C145.902 30.6322 145.94 30.6876 145.967 30.7193L146.047 30.8157C146.094 30.881 146.166 30.9471 146.225 31.0149C146.724 31.5506 147.371 32.0117 148.072 32.3253C148.775 32.6368 149.523 32.7932 150.209 32.7923C151.094 32.8143 152.083 32.5267 152.955 32.0073C153.386 31.7424 153.79 31.4269 154.129 31.0713C154.213 30.9802 154.302 30.8895 154.354 30.8194C154.41 30.7632 154.504 30.6224 154.585 30.5217C154.775 30.2506 154.982 29.943 155.237 29.546L155.637 28.9317C155.793 28.7008 155.927 28.4899 156.107 28.2384C156.43 27.7669 156.849 27.223 157.327 26.6788L157.777 26.2028C157.946 26.0273 158.116 25.884 158.29 25.7282C158.632 25.4168 159.004 25.1458 159.384 24.8856C159.572 24.7534 159.776 24.6459 159.974 24.5302C160.174 24.4167 160.374 24.3052 160.586 24.2166C160.796 24.1232 161.007 24.0333 161.219 23.9472C161.436 23.8732 161.656 23.8083 161.876 23.7443C162.757 23.4909 163.678 23.3833 164.596 23.4008C164.826 23.4095 165.056 23.4185 165.285 23.4383C165.514 23.4623 165.743 23.4904 165.971 23.5224C166.197 23.5601 166.424 23.6042 166.649 23.651C166.873 23.6985 167.041 23.7478 167.236 23.7984C168.724 24.2207 169.946 24.8378 171.037 25.5281C171.309 25.7021 171.576 25.8805 171.834 26.0665C172.096 26.252 172.305 26.4245 172.542 26.6055C173.011 26.9573 173.437 27.3406 173.871 27.7195C174.092 27.9061 174.285 28.1098 174.492 28.305C174.693 28.5039 174.906 28.6971 175.095 28.902C175.477 29.31 175.869 29.7145 176.219 30.1369C176.95 30.9697 177.59 31.8361 178.215 32.7051C178.814 33.5803 179.392 34.4623 179.908 35.3534C182.013 38.935 183.504 42.4654 184.925 46.1517C186.324 49.8209 187.375 53.5794 188.249 57.3428C189.116 61.1094 189.767 64.8963 190.226 68.6752C190.693 72.4539 191.015 76.2255 191.216 79.9794C191.413 83.733 191.515 87.4698 191.563 91.1903C191.613 95.5705 190.301 97.8119 188.892 97.8869C187.475 97.9624 185.96 95.8559 185.51 91.5452C185.122 87.8856 184.712 84.2419 184.24 80.6237C183.765 77.0069 183.203 73.4218 182.537 69.8775C181.879 66.331 181.072 62.8384 180.102 59.4179C179.126 56.0012 178.024 52.6371 176.649 49.414L176.403 48.8039L176.133 48.2063L175.59 47.0131L175.05 45.8196C174.855 45.4238 174.665 45.0192 174.467 44.6305C173.683 43.061 172.87 41.5525 171.988 40.1568C171.554 39.4501 171.09 38.7912 170.625 38.1424C170.145 37.5161 169.666 36.8944 169.153 36.3435C168.905 36.0529 168.638 35.8 168.381 35.5321C168.253 35.3964 168.115 35.2835 167.983 35.1573C167.848 35.0379 167.721 34.9016 167.582 34.7945C167.308 34.5697 167.041 34.3315 166.758 34.135C166.622 34.0372 166.471 33.914 166.351 33.8346C166.23 33.7509 166.107 33.6738 165.986 33.5996C165.502 33.3014 165.027 33.1083 164.72 33.033C164.69 33.0287 164.634 33.0098 164.63 33.0131C164.627 33.017 164.625 33.0161 164.623 33.0128L164.609 33.017C164.601 33.023 164.591 33.0193 164.588 33.036C164.588 33.0397 164.585 33.037 164.583 33.035C164.583 33.0417 164.583 33.0444 164.58 33.0434C164.574 33.0375 164.575 33.0473 164.572 33.0485L164.567 33.0584C164.569 33.0586 164.56 33.0649 164.571 33.0601C164.576 33.0577 164.58 33.0544 164.583 33.0502L164.542 33.0925C164.413 33.254 164.256 33.4436 164.058 33.7445C163.967 33.8721 163.853 34.0552 163.75 34.2111L163.394 34.772C163.149 35.1613 162.846 35.6329 162.504 36.1268C162.304 36.3979 162.137 36.6434 161.89 36.9414C161.655 37.2389 161.426 37.4888 161.194 37.7407C160.257 38.7424 159.191 39.5995 158.039 40.3151C156.879 41.0193 155.635 41.5931 154.308 41.9742C153.65 42.1754 152.965 42.3107 152.276 42.4208C151.582 42.5112 150.875 42.5785 150.167 42.5666Z" fill="#0B2C4A"/>
<path d="M159.479 59.6515C158.479 57.2398 157.989 54.7897 157.8 52.4423C157.617 50.104 157.704 47.7601 158.117 45.462C158.369 44.0931 162.313 44.0603 162.66 45.2583C163.267 47.3189 163.822 49.3317 164.376 51.314C164.929 53.2813 165.489 55.1297 166.22 56.7715C166.558 57.6101 166.944 58.3747 167.378 59.1225C167.815 59.8706 168.309 60.5992 168.861 61.3006C169.963 62.7049 171.259 64.0219 172.78 65.2459C173.22 65.598 173.128 66.69 172.769 67.6928C172.587 68.1911 172.329 68.6598 172.017 68.9853C171.707 69.3075 171.334 69.5014 170.972 69.4189C168.491 68.9052 166.118 67.7036 164.127 66.0028C163.13 65.1537 162.229 64.1749 161.445 63.098C160.662 62.0185 159.994 60.842 159.479 59.6515Z" fill="#D15A5B"/>
<path d="M134.13 56.7715C134.862 55.1297 135.422 53.2812 135.975 51.3139C136.528 49.3316 137.083 47.3188 137.69 45.2583C138.038 44.0603 141.981 44.0931 142.234 45.462C142.646 47.7601 142.734 50.1041 142.55 52.4424C142.361 54.7899 141.871 57.2399 140.872 59.6514C140.357 60.842 139.689 62.0186 138.905 63.0981C138.121 64.1749 137.221 65.1538 136.223 66.0029C134.233 67.7036 131.859 68.9052 129.379 69.419C129.016 69.5014 128.643 69.3076 128.334 68.9854C128.022 68.6598 127.764 68.1911 127.581 67.6928C127.223 66.69 127.131 65.598 127.57 65.246C129.092 64.022 130.387 62.7049 131.49 61.3005C132.041 60.5991 132.535 59.8705 132.973 59.1224C133.406 58.3746 133.792 57.6101 134.13 56.7715Z" fill="#D15A5B"/>
<path d="M151.25 83.9485C144.813 83.8244 138.374 84.3333 132.119 85.6486C125.869 86.9616 119.805 89.0847 114.228 92.1287C113.377 92.5784 113.867 94.2776 114.815 94.258C121.051 94.0434 127.085 93.7895 133.08 93.6236C139.071 93.4598 145.024 93.3873 150.992 93.5921C156.961 93.7067 162.902 94.0971 168.876 94.5808C174.854 95.0669 180.866 95.6429 187.081 96.1906C188.026 96.2609 188.607 94.5903 187.781 94.0958C182.375 90.7578 176.432 88.3136 170.261 86.6685C164.087 85.021 157.684 84.1687 151.25 83.9485Z" fill="#D15A5B"/>
<path d="M198.37 115.467C198.37 117.515 196.71 119.176 194.662 119.176C192.614 119.176 190.953 117.515 190.953 115.467C190.953 113.419 194.662 105.847 194.662 105.847C194.662 105.847 198.37 113.419 198.37 115.467Z" fill="white"/>
<path d="M181.761 161.133C181.761 163.182 180.101 164.842 178.052 164.842C176.004 164.842 174.344 163.182 174.344 161.133C174.344 159.085 178.052 151.513 178.052 151.513C178.052 151.513 181.761 159.085 181.761 161.133Z" fill="white"/>
<path d="M194.225 185.568C194.225 189.666 190.903 192.988 186.805 192.988C182.707 192.988 179.385 189.666 179.385 185.568C179.385 181.47 186.805 166.32 186.805 166.32C186.805 166.32 194.225 181.47 194.225 185.568Z" fill="white"/>
<path d="M189.376 181.423C189.614 181.334 189.895 181.383 190.192 181.593C190.489 181.801 190.79 182.174 191.029 182.698C191.269 183.221 191.433 183.897 191.443 184.666C191.456 185.433 191.304 186.291 190.946 187.126C190.582 187.958 190.059 188.656 189.491 189.171C188.923 189.688 188.317 190.031 187.772 190.214C187.225 190.398 186.748 190.433 186.393 190.359C186.037 190.285 185.808 190.114 185.711 189.88C185.519 189.398 185.845 188.792 186.245 188.09C186.657 187.388 187.155 186.566 187.551 185.655C187.945 184.742 188.205 183.817 188.435 183.037C188.674 182.264 188.893 181.611 189.376 181.423Z" fill="#D15A5B"/>
<path d="M77.0497 137.36C81.1589 137.36 84.49 136.532 84.49 135.511C84.49 134.489 81.1589 133.661 77.0497 133.661C72.9405 133.661 69.6094 134.489 69.6094 135.511C69.6094 136.532 72.9405 137.36 77.0497 137.36Z" fill="white"/>
<path d="M85.5004 144.068C85.489 144.582 84.3237 145.01 82.4628 145.323C80.5967 145.632 78.0593 145.844 75.2148 145.904C72.3607 145.964 69.7372 145.761 67.8685 145.401C65.9943 145.044 64.85 144.548 64.8614 144.041C64.8729 143.527 66.0381 143.098 67.899 142.785C69.7652 142.476 72.3025 142.265 75.147 142.205C78.0012 142.144 80.6246 142.347 82.4934 142.708C84.3676 143.064 85.5119 143.56 85.5004 144.068Z" fill="white"/>
<path d="M74.2223 112.133C75.565 112.012 76.7932 112.016 78.0703 112.176C79.3422 112.334 80.6242 112.633 81.8925 113.068C84.4304 113.943 86.9385 115.269 89.3443 117.223C89.7104 117.514 90.6963 116.933 90.5408 116.443C90.0522 114.835 89.2255 113.295 88.1418 111.93C87.0582 110.565 85.7189 109.372 84.2023 108.416C82.6871 107.456 80.9872 106.745 79.1918 106.32C77.401 105.887 75.4765 105.782 73.6992 105.917C70.0867 106.249 66.5752 107.574 63.7714 109.776C62.3743 110.882 61.1407 112.193 60.2006 113.72C59.7327 114.484 59.3385 115.302 59.0653 116.176C58.9251 116.609 58.8279 117.067 58.7643 117.525C58.709 117.99 58.6997 118.467 58.7608 118.938C58.8679 119.549 60.022 119.415 60.1809 119.09C60.4921 118.497 60.9304 117.982 61.4234 117.506C61.9133 117.031 62.4497 116.599 63.008 116.199C64.1272 115.401 65.3288 114.734 66.5526 114.163C69.013 113.037 71.593 112.329 74.2223 112.133Z" fill="white"/>
<path d="M40.6805 130.559C41.2982 129.442 42.0215 128.387 42.8236 127.393C43.6563 126.427 44.5593 125.524 45.5461 124.724C46.5523 123.95 47.5989 123.253 48.7506 122.679C49.0334 122.528 49.3351 122.414 49.6264 122.276L50.0671 122.075L50.5228 121.908C50.8284 121.8 51.1279 121.671 51.4394 121.575L52.3793 121.292C54.9105 120.598 57.6234 120.334 60.3641 120.528C61.7308 120.634 63.1185 120.811 64.4813 121.151L64.9987 121.267L65.5061 121.414C65.8438 121.516 66.1928 121.601 66.5293 121.715L67.5419 122.07C67.7145 122.125 67.8813 122.191 68.0452 122.264L68.5444 122.472C69.3499 122.806 70.0197 121.877 69.3045 121.263C64.6371 117.212 57.9248 115.219 51.3353 116.204L50.1028 116.422C49.6923 116.5 49.2891 116.619 48.8811 116.719L48.2706 116.878L47.6709 117.08C47.2729 117.221 46.8662 117.342 46.4751 117.505C44.8975 118.126 43.3824 118.975 41.9754 119.948C40.5843 120.949 39.318 122.109 38.1676 123.374C37.049 124.667 36.0533 126.065 35.2114 127.559C34.4122 129.076 33.7457 130.664 33.2771 132.322C32.8348 133.985 32.5421 135.696 32.4922 137.43C32.4709 137.862 32.4993 138.298 32.5046 138.731L32.5233 139.38L32.5935 140.028C32.648 140.46 32.6779 140.891 32.7599 141.319L33.0273 142.599C33.067 142.813 33.129 143.021 33.1943 143.227L33.3851 143.847L33.5797 144.464C33.6474 144.669 33.7374 144.864 33.8161 145.064C33.9817 145.46 34.1377 145.859 34.3167 146.246L34.9064 147.377C36.5606 150.337 38.921 152.817 41.7059 154.54C43.098 155.396 44.5762 156.099 46.1309 156.527L46.7057 156.698C46.901 156.744 47.0994 156.781 47.2951 156.821C47.6892 156.895 48.074 156.987 48.468 157.037L49.6496 157.147L49.9421 157.172L50.2383 157.17L50.8263 157.162C51.7842 157.149 51.8292 156.003 51.0116 155.746L50.5027 155.59L50.2501 155.513L50.0032 155.411L49.0283 155.014C48.709 154.874 48.4027 154.698 48.0934 154.546C47.9397 154.467 47.7849 154.393 47.6338 154.311L47.193 154.037C46.0069 153.348 44.9438 152.482 43.9743 151.559C42.036 149.706 40.5399 147.468 39.574 145.098L39.2333 144.204C39.1344 143.902 39.0558 143.595 38.963 143.294C38.9209 143.142 38.866 142.994 38.8328 142.84L38.7396 142.379L38.6428 141.921C38.6077 141.769 38.5748 141.617 38.5634 141.462L38.4494 140.542C38.4129 140.236 38.4224 139.92 38.4027 139.611L38.3804 139.146L38.4016 138.678C38.4206 138.367 38.4111 138.056 38.4464 137.745C38.5523 136.499 38.8223 135.265 39.1781 134.055C39.5608 132.848 40.0795 131.683 40.6805 130.559Z" fill="white"/>
<path d="M54.9851 163.951C54.7297 163.471 54.5054 162.975 54.3235 162.464C54.1576 161.95 54.0199 161.429 53.9351 160.901C53.8645 160.373 53.8164 159.845 53.835 159.307C53.8629 158.769 53.9122 158.212 54.0378 157.652C54.2784 156.531 54.7122 155.381 55.3549 154.277C55.6782 153.728 56.0413 153.173 56.4762 152.658C56.9051 152.135 57.3879 151.621 57.9454 151.157C58.2728 150.871 57.9279 149.779 57.4183 149.83C56.5868 149.897 55.7577 150.107 54.9555 150.419C54.1459 150.723 53.3832 151.158 52.6637 151.673C51.2279 152.708 50.0209 154.126 49.1861 155.797C48.7633 156.631 48.4601 157.537 48.2446 158.476C48.037 159.421 47.9669 160.4 47.9908 161.369C48.0284 162.338 48.1866 163.294 48.4311 164.226C48.6909 165.153 49.0503 166.048 49.4897 166.903C49.9603 167.742 50.508 168.535 51.1375 169.264C51.7795 169.982 52.4896 170.642 53.277 171.208C54.0715 171.763 54.9267 172.245 55.8291 172.594C56.7307 172.932 57.654 173.18 58.5825 173.288C60.4367 173.514 62.2857 173.29 63.9415 172.665C64.7678 172.349 65.5518 171.953 66.2523 171.446C66.955 170.949 67.5873 170.374 68.1028 169.718C68.4264 169.321 67.706 168.43 67.2869 168.545C66.5926 168.754 65.8973 168.873 65.2246 168.942C64.5548 169.02 63.8913 169.016 63.2553 168.983C61.9798 168.909 60.7818 168.636 59.7145 168.218C59.1781 168.014 58.6864 167.747 58.2223 167.474C57.7632 167.192 57.3498 166.861 56.9487 166.51C56.5552 166.148 56.1964 165.745 55.8597 165.323C55.5341 164.89 55.2445 164.429 54.9851 163.951Z" fill="white"/>
<path d="M217.209 135.511C217.209 134.489 220.54 133.661 224.649 133.661C228.759 133.661 232.09 134.489 232.09 135.511C232.09 136.532 228.759 137.36 224.649 137.36C220.54 137.36 217.209 136.532 217.209 135.511Z" fill="white"/>
<path d="M216.197 144.068C216.186 143.56 217.33 143.064 219.204 142.708C221.073 142.347 223.697 142.144 226.551 142.205C229.395 142.265 231.933 142.476 233.799 142.785C235.66 143.098 236.825 143.527 236.836 144.041C236.848 144.548 235.704 145.044 233.829 145.401C231.961 145.761 229.337 145.964 226.483 145.904C223.639 145.844 221.101 145.632 219.235 145.323C217.374 145.01 216.209 144.582 216.197 144.068Z" fill="white"/>
<path d="M227.999 105.917C226.222 105.782 224.297 105.887 222.506 106.32C220.711 106.745 219.011 107.456 217.496 108.416C215.979 109.372 214.64 110.565 213.556 111.931C212.473 113.295 211.646 114.835 211.157 116.443C211.002 116.933 211.988 117.514 212.354 117.223C214.76 115.269 217.268 113.943 219.805 113.068C221.074 112.633 222.356 112.334 223.628 112.176C224.905 112.016 226.133 112.012 227.476 112.133C230.105 112.329 232.685 113.037 235.145 114.163C236.369 114.733 237.571 115.401 238.69 116.199C239.248 116.599 239.785 117.031 240.275 117.506C240.768 117.982 241.206 118.497 241.517 119.09C241.676 119.415 242.83 119.549 242.937 118.938C242.998 118.467 242.989 117.99 242.934 117.525C242.87 117.067 242.773 116.609 242.633 116.176C242.359 115.302 241.965 114.484 241.497 113.72C240.557 112.193 239.324 110.882 237.927 109.776C235.123 107.574 231.611 106.249 227.999 105.917Z" fill="white"/>
<path d="M266.486 127.559C265.645 126.065 264.649 124.667 263.53 123.374C262.38 122.109 261.114 120.95 259.723 119.949C258.316 118.975 256.8 118.127 255.223 117.506C254.832 117.342 254.425 117.221 254.027 117.08L253.427 116.878L252.817 116.719C252.409 116.619 252.006 116.5 251.595 116.422L250.363 116.204C243.773 115.219 237.061 117.212 232.393 121.263C231.678 121.877 232.348 122.806 233.154 122.472L233.653 122.263C233.817 122.191 233.983 122.125 234.156 122.07L235.169 121.715C235.505 121.601 235.854 121.516 236.192 121.414L236.699 121.267L237.217 121.151C238.579 120.811 239.967 120.634 241.334 120.528C244.075 120.334 246.787 120.598 249.318 121.292L250.258 121.575C250.57 121.671 250.869 121.8 251.175 121.908L251.631 122.075L252.071 122.276C252.363 122.414 252.664 122.528 252.947 122.679C254.099 123.253 255.145 123.95 256.152 124.724C257.138 125.524 258.041 126.427 258.874 127.392C259.676 128.387 260.4 129.442 261.017 130.559C261.618 131.683 262.137 132.848 262.52 134.055C262.875 135.265 263.145 136.499 263.251 137.745C263.287 138.056 263.277 138.367 263.296 138.678L263.317 139.146L263.295 139.611C263.275 139.92 263.285 140.236 263.248 140.542L263.134 141.462C263.123 141.617 263.09 141.769 263.055 141.921L262.958 142.379L262.865 142.84C262.832 142.993 262.777 143.142 262.735 143.294C262.642 143.595 262.564 143.902 262.465 144.204L262.124 145.098C261.158 147.468 259.662 149.706 257.723 151.56C256.754 152.482 255.691 153.348 254.505 154.037L254.064 154.311C253.913 154.393 253.758 154.467 253.604 154.546C253.295 154.698 252.989 154.874 252.669 155.014L251.695 155.411L251.448 155.512L251.195 155.589L250.686 155.746C249.869 156.003 249.914 157.148 250.871 157.162L251.46 157.169L251.756 157.171L252.048 157.147L253.23 157.037C253.624 156.987 254.009 156.895 254.403 156.821C254.599 156.781 254.797 156.744 254.992 156.698L255.567 156.527C257.122 156.099 258.6 155.396 259.992 154.54C262.777 152.817 265.137 150.337 266.791 147.377L267.381 146.246C267.56 145.859 267.716 145.46 267.882 145.064C267.96 144.864 268.05 144.669 268.118 144.465L268.313 143.848L268.504 143.228C268.569 143.021 268.631 142.814 268.671 142.599L268.938 141.319C269.02 140.891 269.05 140.46 269.104 140.028L269.174 139.38L269.193 138.731C269.199 138.298 269.227 137.862 269.206 137.43C269.156 135.696 268.863 133.986 268.421 132.322C267.952 130.664 267.286 129.076 266.486 127.559Z" fill="white"/>
<path d="M252.208 166.903C252.647 166.048 253.007 165.153 253.267 164.226C253.511 163.294 253.669 162.338 253.707 161.369C253.731 160.4 253.661 159.421 253.453 158.476C253.238 157.537 252.934 156.631 252.512 155.797C251.677 154.126 250.47 152.708 249.034 151.673C248.314 151.158 247.552 150.723 246.742 150.419C245.94 150.107 245.111 149.897 244.279 149.83C243.77 149.779 243.425 150.871 243.752 151.157C244.31 151.621 244.793 152.135 245.221 152.658C245.656 153.173 246.019 153.729 246.343 154.277C246.985 155.381 247.419 156.531 247.66 157.652C247.785 158.212 247.835 158.769 247.863 159.307C247.881 159.845 247.833 160.373 247.763 160.901C247.678 161.429 247.54 161.95 247.374 162.464C247.192 162.975 246.968 163.471 246.713 163.951C246.453 164.429 246.164 164.89 245.838 165.323C245.501 165.745 245.143 166.148 244.749 166.51C244.348 166.861 243.935 167.192 243.475 167.474C243.011 167.747 242.52 168.014 241.983 168.218C240.916 168.636 239.718 168.909 238.442 168.983C237.806 169.016 237.143 169.02 236.473 168.942C235.8 168.873 235.105 168.754 234.411 168.545C233.992 168.43 233.271 169.321 233.595 169.718C234.11 170.374 234.743 170.949 235.445 171.446C236.146 171.953 236.93 172.349 237.756 172.665C239.412 173.291 241.261 173.514 243.115 173.288C244.044 173.18 244.967 172.932 245.868 172.594C246.771 172.245 247.626 171.763 248.421 171.208C249.208 170.642 249.918 169.982 250.56 169.264C251.19 168.536 251.737 167.742 252.208 166.903Z" fill="white"/>
</g>
<defs>
<clipPath id="clip0_5807_109602">
<rect width="236.729" height="262.746" fill="white" transform="translate(32.4844 23.3977)"/>
</clipPath>
</defs>
</svg>
