<svg xmlns="http://www.w3.org/2000/svg" height="24" width="24" viewBox="0 0 24 24"><title>square user sparkle 2</title><g fill="#212121" class="nc-icon-wrapper"><path d="M16.8587 20.814C15.393 21.436 13.7431 21.6443 12 21.6443C10.2569 21.6443 8.60694 21.436 7.14122 20.8139C7.11311 20.9296 7.08903 21.0468 7.06913 21.1654L5.09668 20.8346C5.65215 17.5229 8.53021 15 12 15C15.47 15 18.3478 17.5229 18.9032 20.8346L16.9308 21.1654C16.9109 21.0468 16.8868 20.9296 16.8587 20.814Z" fill="#212121"></path> <path d="M12 14C13.6569 14 15 12.6569 15 11C15 9.34315 13.6569 8 12 8C10.3431 8 9 9.34315 9 11C9 12.6569 10.3431 14 12 14Z" fill="#212121"></path> <path fill-rule="evenodd" clip-rule="evenodd" d="M5 4C4.44772 4 4 4.44772 4 5V19C4 19.5523 4.44772 20 5 20H19C19.5523 20 20 19.5523 20 19V11H22V19C22 20.6569 20.6569 22 19 22H5C3.34315 22 2 20.6569 2 19V5C2 3.34315 3.34315 2 5 2H13V4H5Z" fill="#212121"></path> <path d="M20.5 3.5L19 0L17.5 3.5L14 5L17.5 6.5L19 10L20.5 6.5L24 5L20.5 3.5Z" fill="#212121" data-color="color-2"></path></g></svg>