<svg width="580" height="188" viewBox="0 0 580 188" fill="none" xmlns="http://www.w3.org/2000/svg">
<path d="M299.325 14.9938L301.678 11.6456L304.017 14.9938H299.325ZM291.251 20.8631H294.916C295.108 20.8631 295.292 20.7682 295.403 20.6099L296.809 18.5993H306.549L307.954 20.6099C308.064 20.7682 308.248 20.8631 308.442 20.8631H312.273C312.494 20.8631 312.699 20.7386 312.8 20.5402C312.904 20.3419 312.885 20.1036 312.756 19.9222L304.378 8.19617C304.266 8.0401 304.085 7.94727 303.893 7.94727H299.629C299.437 7.94727 299.258 8.0401 299.146 8.19617L290.766 19.9222C290.638 20.1036 290.621 20.3419 290.724 20.5402C290.823 20.7386 291.028 20.8631 291.251 20.8631Z" fill="white"/>
<path d="M320.252 20.8639H323.465C323.794 20.8639 324.06 20.596 324.06 20.269V12.4609L332.889 20.7036C332.997 20.807 333.142 20.864 333.294 20.864H338.157C338.486 20.864 338.752 20.596 338.752 20.2691V8.61067C338.752 8.2836 338.486 8.01562 338.157 8.01562H334.942C334.615 8.01562 334.347 8.2836 334.347 8.61067V16.2542L325.688 8.17608C325.577 8.07474 325.433 8.01562 325.281 8.01562H320.252C319.923 8.01562 319.657 8.2836 319.657 8.61067V20.2691C319.657 20.596 319.923 20.8639 320.252 20.8639Z" fill="white"/>
<path d="M360.776 16.136C360.304 16.6065 359.485 17.0433 356.715 17.0433H351.746V11.8364H356.715C359.485 11.8364 360.304 12.2731 360.776 12.7436C361.173 13.1445 361.367 13.6993 361.367 14.4399C361.367 15.193 361.179 15.731 360.776 16.136ZM347.837 20.864H356.715C360.645 20.864 362.77 20.269 364.297 18.7416C365.356 17.6825 365.937 16.153 365.937 14.4398C365.937 12.7267 365.356 11.1972 364.297 10.1381C362.77 8.61064 360.645 8.01562 356.715 8.01562H347.837C347.508 8.01562 347.242 8.2836 347.242 8.61067V20.269C347.242 20.596 347.508 20.864 347.837 20.864Z" fill="white"/>
<path d="M503.202 34.0983C503.202 34.0983 496.573 46.4761 490.197 57.4467C485.32 65.8392 478.666 68.7634 475.341 67.3751C472.018 65.9891 473.429 61.0923 475.066 58.0353C476.904 54.607 488.147 34.1046 488.147 34.1046C482.223 32.5898 474.465 34.0983 474.465 34.0983C474.465 34.0983 465.623 47.8347 461.461 57.4467C460.87 58.8096 460.511 60.0944 460.309 61.3117C454.48 65.7823 447.57 68.778 444.644 66.7569C442.821 65.4974 444.693 61.0923 446.33 58.0354C448.167 54.607 459.41 34.1046 459.41 34.1046C453.486 32.5898 445.728 34.0983 445.728 34.0983C445.728 34.0983 436.887 47.8347 432.724 57.4467C428.846 66.4025 433.943 72.6621 439.492 73.6578C447.368 75.0735 455.659 71.5672 460.832 67.3498C462.161 70.7338 465.142 72.9384 468.229 73.6578C475.807 75.4258 487.366 73.7909 494.797 62.5163C504.198 48.2547 510.734 34.1046 510.734 34.1046C505.79 32.7671 503.202 34.0983 503.202 34.0983Z" fill="white"/>
<path d="M225.578 65.0999C217.701 59.602 236.426 33.2112 245.049 38.859C245.69 39.2789 246.093 39.9202 246.302 40.7241C240.327 40.1924 239.159 47.6482 244.414 49.414C240.237 58.2897 230.713 68.6864 225.578 65.0999ZM248.914 59.8171C251.494 55.6694 252.977 51.8296 253.53 48.3761C256.992 46.855 260.22 44.241 262.02 41.0089C262.02 41.0089 261.473 38.9856 260.195 37.6269C258.537 39.5552 255.452 41.0848 253.201 41.2662C252.231 37.9561 250.072 35.2936 246.882 33.4581C238.889 28.8611 228.948 32.2703 221.566 39.4033C214.181 46.5385 210.021 55.7834 211.011 63.5324C212.002 71.2835 218.831 74.0727 226.023 74.0727C234.646 74.0727 242.876 69.5261 248.914 59.8171Z" fill="white"/>
<path d="M303.293 34.3903C303.293 34.3903 298.293 45.2217 289.044 62.0342C283.434 66.0975 277.107 68.6672 274.343 66.7558C272.52 65.4963 274.39 61.0911 276.027 58.0362C277.864 54.6079 289.107 34.1055 289.107 34.1055C283.183 32.5886 275.425 34.0992 275.425 34.0992C275.425 34.0992 266.584 47.8356 262.421 57.4476C258.543 66.4034 263.64 72.6609 269.189 73.6587C274.132 74.547 279.229 73.4838 283.626 71.5364C272.71 89.8088 259.119 106.817 247.206 101.663C238.881 98.06 246.775 83.3382 256.394 81.7813C234.752 71.8803 227.062 97.3658 243.752 105.429C260.442 113.491 281.086 103.518 297.194 75.855C309.061 55.4751 317.238 34.7996 317.238 34.7996C310.403 33.498 303.293 34.3903 303.293 34.3903Z" fill="white"/>
<path d="M531.992 64.9479C531.992 64.9479 530.732 62.6356 528.815 61.6061C526.804 63.7854 524.954 65.6378 523.492 64.9733C522.139 64.3571 523.222 61.5301 524.985 58.0364C526.739 54.5638 537.657 34.8441 537.657 34.8441C531.026 32.8673 524.04 34.1056 524.04 34.1056C524.04 34.1056 514.973 47.2429 510.81 56.8549C506.933 65.8108 509.279 72.1041 515.468 73.3299C525.304 75.2792 531.992 64.9479 531.992 64.9479Z" fill="white"/>
<path d="M534.923 25.6737C539.204 27.6948 544.599 24.8298 546.51 21.6948C549.092 17.4584 548.462 12.6608 544.301 10.5195C538.898 7.74097 533.248 10.6799 531.463 15.0807C529.681 19.4796 530.643 23.6526 534.923 25.6737Z" fill="white"/>
<path d="M209.118 91.0761C206.602 87.403 205.31 82.2849 203.941 76.8671C201.414 66.8628 198.587 55.7107 187.369 49.468C193.16 49.0946 200.239 47.5649 205.958 43.0249C211.496 38.6282 214.321 32.2314 213.716 25.4741C213.089 18.5077 208.973 12.3452 202.701 8.98429C193.182 3.88303 179.051 8.4526 171.418 15.6046C171.386 15.6363 171.367 15.6763 171.342 15.7123C164.719 21.4612 159.626 29.5627 155.635 36.78C153.698 40.28 151.791 44.0228 149.945 47.6431C142.01 63.2107 134.51 77.9051 125.261 73.9114C122.622 72.77 122.333 70.4197 122.552 68.6517C123.128 64.0293 127.852 58.2001 133.312 57.3161C133.569 57.2761 133.772 57.0672 133.805 56.8078C133.841 56.5504 133.702 56.2972 133.463 56.1875C123.153 51.468 116.767 55.5799 114.438 60.5314C111.742 66.2656 113.714 74.4979 121.685 78.3523C124.459 79.69 127.263 80.3587 130.096 80.3587C141.717 80.3587 153.835 69.118 166.23 46.7929C167.928 43.7358 169.489 40.7949 170.966 38.008C176.924 26.7757 181.494 18.1701 188.433 14.4464C191.473 13.0203 194.517 13.0498 197.112 14.744C200.348 16.8621 202.159 19.7693 202.49 23.3896C203.059 29.6471 199.085 36.4826 194.89 40.4785C189.317 45.7907 177.245 47.6706 176.555 47.776C176.536 47.776 176.517 47.7803 176.498 47.7844L172.973 48.2844L176.35 48.9258C185.899 56.4133 188.025 67.2066 190.078 77.6498C191.547 85.1204 192.933 92.1816 197.013 97.3611C199.469 100.479 204.209 103.905 210.15 104.161C210.376 104.171 210.6 104.175 210.825 104.175C215.469 104.175 219.857 102.106 223.553 98.1628L224.977 96.6437L222.965 97.1817C222.885 97.2028 214.728 99.2767 209.118 91.0761Z" fill="white"/>
<path d="M109.203 94.1784C106.764 93.7459 103.141 92.1361 98.5549 90.1003C86.3965 84.7035 67.0713 76.1254 47.7145 81.1635C49.5078 78.6803 51.1133 76.2457 52.4973 74.0199C58.2527 64.7476 63.1578 53.7243 67.9026 43.0638C73.6959 30.0404 79.1707 17.7386 85.0083 11.8525C95.96 0.803815 111.083 7.46845 111.234 7.53593L111.779 6.48314C101.874 0.706745 92.3671 -0.626661 83.5167 2.51476C60.3645 10.7511 46.6302 47.3065 38.4254 69.1485C37.4444 71.7605 36.5477 74.1445 35.7271 76.2309C31.8177 86.1889 25.3767 94.0687 19.3197 96.305C16.7141 97.2693 14.3027 97.1742 12.1487 96.0265C9.41446 94.573 9.23091 91.9253 9.55582 89.961C10.3448 85.1994 15.174 79.2563 20.8408 78.3406L22.7754 78.0284L20.9927 77.212C10.3659 72.3511 3.71818 76.7583 1.25189 82.0074C-1.63422 88.1404 0.329948 96.8747 8.60641 100.873C11.5178 102.28 14.3955 102.904 17.2183 102.902C26.8619 102.902 35.8178 95.6131 42.8854 87.3261C50.896 84.7796 60.5818 86.1741 70.4342 91.4907C73.9448 93.3873 77.1031 95.2459 80.1601 97.0434C88.4662 101.932 95.0274 105.79 101.994 106.444C102.977 106.537 104.066 106.596 105.228 106.596C112.18 106.596 121.65 104.385 125.401 93.305L125.939 91.7122L124.517 92.613C124.465 92.6447 119.125 95.9442 109.203 94.1784Z" fill="white"/>
<path d="M99.1804 30.7863C95.1065 31.3538 91.8301 33.5732 89.9609 37.0332C87.6507 41.3096 88.8174 45.0502 89.676 46.8476C86.792 47.6156 79.6168 50.2739 76.2434 58.2993C74.121 63.3437 75.0239 66.9914 76.1527 69.1644C77.6864 72.1096 80.6633 74.3164 84.1169 75.0612C85.1211 75.2806 86.1465 75.3798 87.1739 75.3798C94.212 75.3798 101.442 70.675 104.081 66.58L104.218 66.1686C104.227 66.0906 104.368 64.1834 103.206 62.7783L102.607 62.0525L101.915 62.6917C97.1487 67.0885 90.2204 70.4197 87.3363 68.1223C86.4566 67.424 86.1718 66.2509 86.0874 65.3901C85.8658 63.1074 86.7562 60.4238 88.3511 58.5482C91.2309 55.1727 95.8702 52.93 101.763 52.0671L103.995 51.7402L102.142 50.4533C101.881 50.2696 95.7731 45.9384 99.077 40.5332C100.341 38.4635 102.339 37.8201 103.79 37.6472C106.499 37.3307 109.649 38.3412 111.442 40.1303L112.368 41.0523L114.275 36.6618L113.858 36.2336C109.841 32.1028 104.353 30.0689 99.1804 30.7863Z" fill="white"/>
<path d="M427.348 94.1784C424.909 93.7459 421.287 92.1361 416.703 90.1024C404.542 84.7015 385.215 76.1254 365.86 81.1635C367.655 78.6803 369.261 76.2457 370.643 74.0199C376.398 64.7476 381.303 53.7264 386.046 43.066C391.841 30.0404 397.316 17.7407 403.154 11.8525C414.103 0.803815 429.228 7.46627 429.38 7.53593L429.924 6.48314C420.021 0.706745 410.515 -0.626661 401.664 2.51476C378.512 10.7491 364.778 47.3044 356.573 69.1443C355.592 71.754 354.693 74.1445 353.873 76.2309C349.963 86.1889 343.522 94.0687 337.465 96.305C334.86 97.2693 332.448 97.1742 330.294 96.0265C327.56 94.573 327.376 91.9253 327.701 89.961C328.49 85.1994 333.32 79.2563 338.988 78.3406L340.921 78.0284L339.14 77.212C328.516 72.3511 321.866 76.7563 319.397 82.0074C316.513 88.1404 318.476 96.8747 326.752 100.873C329.663 102.28 332.541 102.902 335.364 102.902C345.005 102.9 353.961 95.6131 361.031 87.3261C369.039 84.7796 378.727 86.1721 388.58 91.4907C392.09 93.3873 395.249 95.2459 398.306 97.0434C406.612 101.932 413.173 105.79 420.139 106.444C421.122 106.537 422.213 106.596 423.374 106.596C430.325 106.596 439.796 104.385 443.547 93.305L444.085 91.7122L442.663 92.613C442.612 92.6489 437.279 95.9442 427.348 94.1784Z" fill="white"/>
<path d="M417.327 30.7863C413.251 31.3538 409.977 33.5712 408.105 37.0332C405.795 41.3096 406.962 45.0502 407.823 46.8476C404.937 47.6156 397.759 50.2739 394.388 58.2993C392.265 63.3437 393.168 66.9914 394.297 69.1644C395.831 72.1096 398.806 74.3164 402.261 75.0612C403.266 75.2806 404.289 75.3798 405.318 75.3798C412.357 75.3798 419.589 70.675 422.226 66.58L422.363 66.1686C422.369 66.0906 422.513 64.1834 421.35 62.7783L420.751 62.0525L420.059 62.6917C415.293 67.0885 408.365 70.4197 405.481 68.1223C404.599 67.424 404.316 66.2529 404.232 65.3943C404.01 63.1074 404.899 60.4238 406.496 58.5482C409.378 55.1727 414.015 52.93 419.907 52.0671L422.127 51.7402L420.287 50.4533C420.025 50.2696 413.928 45.9193 417.219 40.5332C418.485 38.4635 420.483 37.8201 421.935 37.6472C424.646 37.3307 427.791 38.3412 429.587 40.1303L430.513 41.0523L432.42 36.6618L432.004 36.2336C427.985 32.1028 422.489 30.0689 417.327 30.7863Z" fill="white"/>
<path d="M578.833 35.5248C578.833 35.5248 576.633 39.7632 570.534 38.5881C564.808 37.4847 563.858 32.4719 556.36 33.7864C550.276 34.8539 544.506 40.605 544.744 51.2929C544.98 61.9787 551.696 72.4514 550.204 83.0571C548.607 94.3905 539.679 95.0804 536.113 92.2598C531.841 88.8778 534.006 79.4283 540.852 78.7975C526.092 70.7805 519.486 88.7575 530.451 96.3504C542.634 104.787 564.24 95.1373 561.922 74.81C560.453 61.9323 553.654 47.9237 558.993 40.3899C558.993 40.3899 559.377 47.7275 568.057 49.0629C576.949 50.4321 582.553 39.913 578.833 35.5248Z" fill="white"/>
<path d="M509.562 135.896H70.4648C62.1525 135.896 55.4141 142.635 55.4141 150.947V172.929C55.4141 181.241 62.1525 187.98 70.4648 187.98H509.562C517.874 187.98 524.612 181.241 524.612 172.929V150.947C524.612 142.635 517.874 135.896 509.562 135.896Z" fill="#C0A02F"/>
<path d="M104.843 160.95C106.587 160.133 107.44 158.783 107.44 156.859C107.44 155.88 107.298 154.612 106.181 153.497C104.702 152.017 102.632 151.518 97.9774 151.518H81.3569V170.751H97.7975C102.383 170.751 104.872 170.133 106.389 168.617C107.27 167.735 107.698 166.584 107.698 165.1C107.698 163.121 106.76 161.75 104.843 160.95ZM101.877 158.209C101.522 158.563 100.916 158.882 97.4366 158.882H86.5037V155.918H97.7207C100.633 155.918 101.478 156.167 101.852 156.539C102.057 156.746 102.138 156.98 102.138 157.374C102.138 157.883 101.998 158.087 101.877 158.209ZM86.5037 163.18H97.4366C101.032 163.18 101.734 163.581 102.109 163.956C102.258 164.105 102.396 164.315 102.396 164.842C102.396 165.311 102.293 165.595 102.032 165.858C101.609 166.28 100.434 166.453 97.9774 166.453H86.5037V163.18Z" fill="#002C4B"/>
<path d="M139.781 160.95C141.524 160.133 142.378 158.783 142.378 156.859C142.378 155.88 142.235 154.612 141.119 153.497C139.639 152.017 137.569 151.518 132.915 151.518H116.294V170.751H132.735C137.32 170.751 139.809 170.133 141.324 168.617C142.207 167.736 142.635 166.584 142.635 165.1C142.635 163.121 141.697 161.75 139.781 160.95ZM136.815 158.209C136.46 158.563 135.853 158.882 132.374 158.882H121.441V155.918H132.657C135.57 155.918 136.416 156.167 136.789 156.539C136.995 156.746 137.075 156.98 137.075 157.374C137.075 157.883 136.936 158.087 136.815 158.209ZM121.441 163.18H132.374C135.969 163.18 136.671 163.581 137.047 163.956C137.195 164.105 137.333 164.315 137.333 164.842C137.333 165.311 137.231 165.595 136.969 165.858C136.546 166.28 135.371 166.453 132.915 166.453H121.441V163.18Z" fill="#002C4B"/>
<path d="M179.659 161.082C179.659 158.281 178.835 156.094 177.137 154.397C174.885 152.144 170.755 151.002 164.865 151.002C158.893 151.002 154.878 152.112 152.592 154.397C150.873 156.117 150.073 158.241 150.073 161.082C150.073 163.923 150.882 166.055 152.62 167.793C154.856 170.029 158.975 171.163 164.865 171.163C169.496 171.163 173.05 170.43 175.437 168.983L180.406 171.395V166.569L178.576 165.712C179.304 164.372 179.659 162.85 179.659 161.082ZM165.318 159.181V164.14L169.932 166.354C168.559 166.659 166.861 166.813 164.865 166.813C159.504 166.813 157.444 165.553 156.692 164.8C155.856 163.965 155.298 163.014 155.298 161.082C155.298 159.375 155.688 158.291 156.641 157.339C157.381 156.597 159.436 155.351 164.865 155.351C169.958 155.351 172.136 156.46 173.065 157.389C174.024 158.349 174.433 159.453 174.433 161.082C174.433 162.07 174.313 162.859 174.06 163.513L165.318 159.181Z" fill="#002C4B"/>
<path d="M217.389 151.105C210.329 151.105 207.014 152.937 205.477 154.474C203.827 156.123 202.956 158.425 202.956 161.134C202.956 163.841 203.827 166.144 205.477 167.793C207.014 169.331 210.329 171.163 217.389 171.163C221.903 171.163 226.036 170.31 228.728 168.822L229.04 168.649V163.735L228.141 164.238C225.345 165.803 221.325 166.737 217.389 166.737C213.658 166.737 210.698 166.003 209.472 164.776C208.591 163.895 208.181 162.737 208.181 161.134C208.181 159.478 208.583 158.305 209.446 157.44C210.641 156.245 213.62 155.532 217.415 155.532C221.287 155.532 225.292 156.531 228.129 158.203L229.04 158.741V153.619L228.728 153.446C226.038 151.958 221.905 151.105 217.389 151.105Z" fill="#002C4B"/>
<path d="M247.787 151.416L234.409 170.752H240.285L243.17 166.503H258.263L261.146 170.752H267.204L253.826 151.416H247.787ZM255.28 162.103H246.149L250.704 155.363L255.28 162.103Z" fill="#002C4B"/>
<path d="M297.475 162.513C298.581 161.407 299.119 159.963 299.119 158.095C299.119 156.23 298.586 154.711 297.578 153.703C296.162 152.286 294.41 151.518 289.219 151.518H273.524V170.751H278.724V164.777H285.08L294.608 170.751H300.808L301.412 170.673V169.731L292.947 164.532C295.01 164.211 296.413 163.575 297.475 162.513ZM289.272 160.428H278.724V155.969H289.297C292.102 155.969 292.977 156.269 293.427 156.719C293.781 157.074 293.947 157.544 293.947 158.198C293.947 159.021 293.71 159.368 293.477 159.6C292.914 160.164 291.578 160.428 289.272 160.428Z" fill="#002C4B"/>
<path d="M322.226 151.518H308.438V170.751H322.226C327.417 170.751 331.069 169.73 333.083 167.715C334.762 166.037 335.578 163.883 335.578 161.134C335.578 158.383 334.762 156.231 333.084 154.553C331.071 152.538 327.418 151.518 322.226 151.518ZM313.638 155.969H322.15C326.602 155.969 328.409 156.839 329.138 157.569C329.966 158.398 330.353 159.531 330.353 161.134C330.353 162.738 329.966 163.87 329.139 164.698C328.409 165.428 326.604 166.298 322.15 166.298H313.638V155.969Z" fill="#002C4B"/>
<path d="M370.928 163.953H381.947C381.851 164.428 381.626 164.811 381.226 165.214C380.439 165.999 378.014 166.839 373.566 166.839C367.811 166.839 366.013 165.705 365.161 164.854C364.298 163.989 363.895 162.807 363.895 161.134C363.895 159.478 364.298 158.305 365.16 157.44C366.031 156.57 368.197 155.532 373.566 155.532C378.031 155.532 382.361 156.438 385.147 157.956L386.04 158.442V153.398L385.709 153.23C383.078 151.9 378.539 151.105 373.566 151.105C367.591 151.105 363.427 152.239 361.191 154.474C359.541 156.123 358.67 158.425 358.67 161.134C358.67 163.825 359.541 166.119 361.191 167.767C362.771 169.348 365.606 171.163 373.566 171.163C379.331 171.163 383.136 170.162 385.195 168.102C386.653 166.644 387.303 164.828 387.303 162.215V159.551H370.928V163.953Z" fill="#002C4B"/>
<path d="M405.278 151.416L391.9 170.752H397.776L400.661 166.503H415.754L418.638 170.752H424.695L411.318 151.416H405.278ZM412.771 162.103H403.641L408.195 155.363L412.771 162.103Z" fill="#002C4B"/>
<path d="M448.822 166.609L438.452 151.518H431.015V170.751H436.189V156.99L445.724 170.751H451.765L461.3 156.99V170.751H466.498V151.518H459.216L448.822 166.609Z" fill="#002C4B"/>
<path d="M500.817 155.969V151.518H476.2V170.751H500.817V166.298H481.375V163.231H500.455V158.831H481.375V155.969H500.817Z" fill="#002C4B"/>
</svg>
