<svg width="580" height="188" viewBox="0 0 580 188" fill="none" xmlns="http://www.w3.org/2000/svg">
<path d="M299.325 14.1345L301.678 10.7862L304.017 14.1345H299.325ZM291.251 20.0037H294.916C295.108 20.0037 295.292 19.9088 295.403 19.7505L296.809 17.74H306.549L307.954 19.7505C308.064 19.9088 308.248 20.0037 308.442 20.0037H312.273C312.494 20.0037 312.699 19.8792 312.8 19.6809C312.904 19.4826 312.885 19.2442 312.756 19.0628L304.378 7.3368C304.266 7.18072 304.085 7.08789 303.893 7.08789H299.629C299.437 7.08789 299.258 7.18072 299.146 7.3368L290.766 19.0628C290.638 19.2442 290.621 19.4826 290.724 19.6809C290.823 19.8792 291.028 20.0037 291.251 20.0037Z" fill="#002C4D"/>
<path d="M320.252 20.0046H323.465C323.794 20.0046 324.06 19.7366 324.06 19.4097V11.6016L332.889 19.8443C332.997 19.9477 333.142 20.0046 333.294 20.0046H338.157C338.486 20.0046 338.752 19.7366 338.752 19.4097V7.7513C338.752 7.42422 338.486 7.15625 338.157 7.15625H334.942C334.615 7.15625 334.347 7.42422 334.347 7.7513V15.3948L325.688 7.3167C325.577 7.21537 325.433 7.15625 325.281 7.15625H320.252C319.923 7.15625 319.657 7.42422 319.657 7.7513V19.4097C319.657 19.7366 319.923 20.0046 320.252 20.0046Z" fill="#002C4D"/>
<path d="M360.776 15.2766C360.304 15.7471 359.485 16.1839 356.715 16.1839H351.746V10.9771H356.715C359.485 10.9771 360.304 11.4137 360.776 11.8842C361.173 12.2851 361.367 12.84 361.367 13.5805C361.367 14.3337 361.179 14.8716 360.776 15.2766ZM347.837 20.0046H356.715C360.645 20.0046 362.77 19.4097 364.297 17.8822C365.356 16.8231 365.937 15.2936 365.937 13.5805C365.937 11.8673 365.356 10.3378 364.297 9.27872C362.77 7.75127 360.645 7.15625 356.715 7.15625H347.837C347.508 7.15625 347.242 7.42422 347.242 7.7513V19.4097C347.242 19.7366 347.508 20.0046 347.837 20.0046Z" fill="#002C4D"/>
<path d="M503.202 33.2389C503.202 33.2389 496.573 45.6167 490.197 56.5874C485.32 64.9798 478.666 67.904 475.341 66.5157C472.018 65.1297 473.429 60.2329 475.066 57.1759C476.904 53.7476 488.147 33.2452 488.147 33.2452C482.223 31.7304 474.465 33.2389 474.465 33.2389C474.465 33.2389 465.623 46.9753 461.461 56.5874C460.87 57.9502 460.511 59.2351 460.309 60.4523C454.48 64.9229 447.57 67.9187 444.644 65.8975C442.821 64.638 444.693 60.2329 446.33 57.176C448.167 53.7477 459.41 33.2452 459.41 33.2452C453.486 31.7304 445.728 33.2389 445.728 33.2389C445.728 33.2389 436.887 46.9754 432.724 56.5874C428.846 65.5432 433.943 71.8027 439.492 72.7985C447.368 74.2142 455.659 70.7078 460.832 66.4904C462.161 69.8744 465.142 72.0791 468.229 72.7985C475.807 74.5664 487.366 72.9315 494.797 61.657C504.198 47.3953 510.734 33.2452 510.734 33.2452C505.79 31.9077 503.202 33.2389 503.202 33.2389Z" fill="#002C4D"/>
<path d="M225.578 64.2406C217.701 58.7426 236.426 32.3519 245.049 37.9996C245.69 38.4195 246.093 39.0608 246.302 39.8647C240.327 39.333 239.159 46.7888 244.414 48.5546C240.237 57.4303 230.713 67.827 225.578 64.2406ZM248.914 58.9577C251.494 54.81 252.977 50.9703 253.53 47.5167C256.992 45.9956 260.22 43.3816 262.02 40.1495C262.02 40.1495 261.473 38.1262 260.195 36.7676C258.537 38.6959 255.452 40.2254 253.201 40.4068C252.231 37.0967 250.072 34.4342 246.882 32.5987C238.889 28.0017 228.948 31.411 221.566 38.5439C214.181 45.6791 210.021 54.924 211.011 62.673C212.002 70.4242 218.831 73.2133 226.023 73.2133C234.646 73.2133 242.876 68.6667 248.914 58.9577Z" fill="#002C4D"/>
<path d="M303.293 33.531C303.293 33.531 298.293 44.3623 289.044 61.1749C283.434 65.2381 277.107 67.8078 274.343 65.8964C272.52 64.6369 274.39 60.2318 276.027 57.1769C277.864 53.7485 289.107 33.2461 289.107 33.2461C283.183 31.7292 275.425 33.2398 275.425 33.2398C275.425 33.2398 266.584 46.9763 262.421 56.5883C258.543 65.5441 263.64 71.8015 269.189 72.7994C274.132 73.6876 279.229 72.6244 283.626 70.677C272.71 88.9494 259.119 105.958 247.206 100.804C238.881 97.2006 246.775 82.4788 256.394 80.9219C234.752 71.021 227.062 96.5064 243.752 104.57C260.442 112.631 281.086 102.658 297.194 74.9957C309.061 54.6157 317.238 33.9402 317.238 33.9402C310.403 32.6386 303.293 33.531 303.293 33.531Z" fill="#002C4D"/>
<path d="M531.992 64.0885C531.992 64.0885 530.732 61.7762 528.815 60.7467C526.804 62.926 524.954 64.7785 523.492 64.1139C522.139 63.4977 523.222 60.6707 524.985 57.177C526.739 53.7044 537.657 33.9848 537.657 33.9848C531.026 32.0079 524.04 33.2463 524.04 33.2463C524.04 33.2463 514.973 46.3836 510.81 55.9956C506.933 64.9514 509.279 71.2448 515.468 72.4705C525.304 74.4198 531.992 64.0885 531.992 64.0885Z" fill="#002C4D"/>
<path d="M534.923 24.8143C539.204 26.8355 544.599 23.9704 546.51 20.8354C549.092 16.5991 548.462 11.8014 544.301 9.66016C538.898 6.8816 533.248 9.82048 531.463 14.2214C529.681 18.6202 530.643 22.7932 534.923 24.8143Z" fill="#002C4D"/>
<path d="M209.118 90.2167C206.602 86.5436 205.31 81.4255 203.941 76.0077C201.414 66.0034 198.587 54.8513 187.369 48.6086C193.16 48.2352 200.239 46.7056 205.958 42.1655C211.496 37.7688 214.321 31.372 213.716 24.6147C213.089 17.6483 208.973 11.4858 202.701 8.12492C193.182 3.02366 179.051 7.59323 171.418 14.7453C171.386 14.7769 171.367 14.817 171.342 14.8529C164.719 20.6019 159.626 28.7033 155.635 35.9206C153.698 39.4207 151.791 43.1634 149.945 46.7837C142.01 62.3514 134.51 77.0457 125.261 73.052C122.622 71.9106 122.333 69.5603 122.552 67.7923C123.128 63.17 127.852 57.3408 133.312 56.4568C133.569 56.4167 133.772 56.2079 133.805 55.9484C133.841 55.691 133.702 55.4379 133.463 55.3281C123.153 50.6087 116.767 54.7205 114.438 59.672C111.742 65.4063 113.714 73.6385 121.685 77.4929C124.459 78.8306 127.263 79.4993 130.096 79.4993C141.717 79.4993 153.835 68.2586 166.23 45.9335C167.928 42.8764 169.489 39.9355 170.966 37.1486C176.924 25.9163 181.494 17.3107 188.433 13.587C191.473 12.1609 194.517 12.1904 197.112 13.8846C200.348 16.0027 202.159 18.9099 202.49 22.5302C203.059 28.7877 199.085 35.6232 194.89 39.6191C189.317 44.9313 177.245 46.8112 176.555 46.9167C176.536 46.9167 176.517 46.9209 176.498 46.925L172.973 47.4251L176.35 48.0664C185.899 55.5539 188.025 66.3472 190.078 76.7904C191.547 84.261 192.933 91.3223 197.013 96.5017C199.469 99.6198 204.209 103.046 210.15 103.301C210.376 103.312 210.6 103.316 210.825 103.316C215.469 103.316 219.857 101.247 223.553 97.3034L224.977 95.7843L222.965 96.3223C222.885 96.3434 214.728 98.4173 209.118 90.2167Z" fill="#002C4D"/>
<path d="M109.203 93.319C106.764 92.8865 103.141 91.2768 98.5549 89.2409C86.3965 83.8441 67.0713 75.266 47.7145 80.3041C49.5078 77.8209 51.1133 75.3863 52.4973 73.1606C58.2527 63.8882 63.1578 52.8649 67.9026 42.2044C73.6959 29.1811 79.1707 16.8792 85.0083 10.9931C95.96 -0.0555599 111.083 6.60907 111.234 6.67656L111.779 5.62377C101.874 -0.15263 92.3671 -1.48604 83.5167 1.65539C60.3645 9.89177 46.6302 46.4472 38.4254 68.2892C37.4444 70.9011 36.5477 73.2851 35.7271 75.3715C31.8177 85.3295 25.3767 93.2093 19.3197 95.4457C16.7141 96.4099 14.3027 96.3148 12.1487 95.1671C9.41446 93.7136 9.23091 91.0659 9.55582 89.1017C10.3448 84.3401 15.174 78.3969 20.8408 77.4813L22.7754 77.169L20.9927 76.3526C10.3659 71.4917 3.71818 75.899 1.25189 81.1481C-1.63422 87.281 0.329948 96.0153 8.60641 100.013C11.5178 101.421 14.3955 102.045 17.2183 102.043C26.8619 102.043 35.8178 94.7537 42.8854 86.4667C50.896 83.9202 60.5818 85.3147 70.4342 90.6313C73.9448 92.5279 77.1031 94.3866 80.1601 96.184C88.4662 101.072 95.0274 104.931 101.994 105.585C102.977 105.678 104.066 105.737 105.228 105.737C112.18 105.737 121.65 103.526 125.401 92.4457L125.939 90.8528L124.517 91.7536C124.465 91.7853 119.125 95.0848 109.203 93.319Z" fill="#002C4D"/>
<path d="M99.1804 29.9269C95.1065 30.4944 91.8301 32.7138 89.9609 36.1738C87.6507 40.4502 88.8174 44.1908 89.676 45.9883C86.792 46.7562 79.6168 49.4145 76.2434 57.44C74.121 62.4843 75.0239 66.1321 76.1527 68.305C77.6864 71.2502 80.6633 73.457 84.1169 74.2018C85.1211 74.4212 86.1465 74.5204 87.1739 74.5204C94.212 74.5204 101.442 69.8156 104.081 65.7206L104.218 65.3092C104.227 65.2312 104.368 63.324 103.206 61.9189L102.607 61.1932L101.915 61.8324C97.1487 66.2292 90.2204 69.5604 87.3363 67.2629C86.4566 66.5646 86.1718 65.3915 86.0874 64.5307C85.8658 62.248 86.7562 59.5644 88.3511 57.6889C91.2309 54.3133 95.8702 52.0706 101.763 51.2077L103.995 50.8808L102.142 49.5939C101.881 49.4103 95.7731 45.079 99.077 39.6739C100.341 37.6042 102.339 36.9607 103.79 36.7878C106.499 36.4713 109.649 37.4819 111.442 39.271L112.368 40.1929L114.275 35.8025L113.858 35.3742C109.841 31.2434 104.353 29.2095 99.1804 29.9269Z" fill="#002C4D"/>
<path d="M427.348 93.319C424.909 92.8865 421.287 91.2768 416.703 89.243C404.542 83.8421 385.215 75.2661 365.86 80.3041C367.655 77.8209 369.261 75.3863 370.643 73.1606C376.398 63.8883 381.303 52.867 386.046 42.2066C391.841 29.1811 397.316 16.8813 403.154 10.9931C414.103 -0.0555599 429.228 6.6069 429.38 6.67656L429.924 5.62377C420.021 -0.15263 410.515 -1.48604 401.664 1.65539C378.512 9.88972 364.778 46.445 356.573 68.2849C355.592 70.8947 354.693 73.2851 353.873 75.3715C349.963 85.3295 343.522 93.2093 337.465 95.4457C334.86 96.4099 332.448 96.3148 330.294 95.1671C327.56 93.7136 327.376 91.0659 327.701 89.1017C328.49 84.3401 333.32 78.3969 338.988 77.4813L340.921 77.169L339.14 76.3526C328.516 71.4917 321.866 75.8969 319.397 81.1481C316.513 87.281 318.476 96.0153 326.752 100.013C329.663 101.421 332.541 102.043 335.364 102.043C345.005 102.041 353.961 94.7537 361.031 86.4667C369.039 83.9202 378.727 85.3127 388.58 90.6313C392.09 92.5279 395.249 94.3866 398.306 96.184C406.612 101.072 413.173 104.931 420.139 105.585C421.122 105.678 422.213 105.737 423.374 105.737C430.325 105.737 439.796 103.526 443.547 92.4457L444.085 90.8528L442.663 91.7536C442.612 91.7896 437.279 95.0848 427.348 93.319Z" fill="#002C4D"/>
<path d="M417.327 29.9269C413.251 30.4944 409.977 32.7118 408.105 36.1738C405.795 40.4502 406.962 44.1908 407.823 45.9883C404.937 46.7562 397.759 49.4145 394.388 57.44C392.265 62.4843 393.168 66.1321 394.297 68.305C395.831 71.2502 398.806 73.457 402.261 74.2018C403.266 74.4212 404.289 74.5204 405.318 74.5204C412.357 74.5204 419.589 69.8156 422.226 65.7206L422.363 65.3092C422.369 65.2312 422.513 63.324 421.35 61.9189L420.751 61.1932L420.059 61.8324C415.293 66.2292 408.365 69.5604 405.481 67.2629C404.599 66.5646 404.316 65.3936 404.232 64.5349C404.01 62.248 404.899 59.5644 406.496 57.6889C409.378 54.3133 414.015 52.0706 419.907 51.2077L422.127 50.8808L420.287 49.5939C420.025 49.4103 413.928 45.06 417.219 39.6739C418.485 37.6042 420.483 36.9607 421.935 36.7878C424.646 36.4713 427.791 37.4819 429.587 39.271L430.513 40.1929L432.42 35.8025L432.004 35.3742C427.985 31.2434 422.489 29.2095 417.327 29.9269Z" fill="#002C4D"/>
<path d="M578.833 34.6654C578.833 34.6654 576.633 38.9038 570.534 37.7288C564.808 36.6254 563.858 31.6125 556.36 32.927C550.276 33.9945 544.506 39.7457 544.744 50.4335C544.98 61.1193 551.696 71.592 550.204 82.1977C548.607 93.5311 539.679 94.221 536.113 91.4004C531.841 88.0184 534.006 78.5689 540.852 77.9381C526.092 69.9211 519.486 87.8981 530.451 95.4911C542.634 103.928 564.24 94.2779 561.922 73.9507C560.453 61.073 553.654 47.0643 558.993 39.5305C558.993 39.5305 559.377 46.8681 568.057 48.2035C576.949 49.5727 582.553 39.0537 578.833 34.6654Z" fill="#002C4D"/>
<path d="M509.562 135.037H70.4648C62.1525 135.037 55.4141 141.776 55.4141 150.088V172.07C55.4141 180.382 62.1525 187.12 70.4648 187.12H509.562C517.874 187.12 524.612 180.382 524.612 172.07V150.088C524.612 141.776 517.874 135.037 509.562 135.037Z" fill="#C0A02F"/>
<path d="M104.843 160.09C106.587 159.273 107.44 157.923 107.44 156C107.44 155.02 107.298 153.753 106.181 152.638C104.702 151.158 102.632 150.658 97.9774 150.658H81.3569V169.891H97.7975C102.383 169.891 104.872 169.274 106.389 167.758C107.27 166.876 107.698 165.725 107.698 164.24C107.698 162.262 106.76 160.891 104.843 160.09ZM101.877 157.35C101.522 157.704 100.916 158.022 97.4366 158.022H86.5037V155.059H97.7207C100.633 155.059 101.478 155.307 101.852 155.68C102.057 155.887 102.138 156.121 102.138 156.515C102.138 157.023 101.998 157.228 101.877 157.35ZM86.5037 162.321H97.4366C101.032 162.321 101.734 162.722 102.109 163.096C102.258 163.246 102.396 163.455 102.396 163.982C102.396 164.452 102.293 164.736 102.032 164.998C101.609 165.42 100.434 165.593 97.9774 165.593H86.5037V162.321Z" fill="#002C4B"/>
<path d="M139.781 160.09C141.524 159.273 142.378 157.923 142.378 156C142.378 155.02 142.235 153.753 141.119 152.638C139.639 151.158 137.569 150.658 132.915 150.658H116.294V169.891H132.735C137.32 169.891 139.809 169.274 141.324 167.758C142.207 166.876 142.635 165.725 142.635 164.24C142.635 162.262 141.697 160.891 139.781 160.09ZM136.815 157.35C136.46 157.704 135.853 158.022 132.374 158.022H121.441V155.059H132.657C135.57 155.059 136.416 155.307 136.789 155.68C136.995 155.887 137.075 156.121 137.075 156.515C137.075 157.023 136.936 157.228 136.815 157.35ZM121.441 162.321H132.374C135.969 162.321 136.671 162.722 137.047 163.096C137.195 163.246 137.333 163.455 137.333 163.982C137.333 164.452 137.231 164.736 136.969 164.998C136.546 165.42 135.371 165.593 132.915 165.593H121.441V162.321Z" fill="#002C4B"/>
<path d="M179.659 160.223C179.659 157.421 178.835 155.234 177.137 153.538C174.885 151.284 170.755 150.143 164.865 150.143C158.893 150.143 154.878 151.253 152.592 153.538C150.873 155.258 150.073 157.382 150.073 160.223C150.073 163.064 150.882 165.196 152.62 166.933C154.856 169.169 158.975 170.303 164.865 170.303C169.496 170.303 173.05 169.571 175.437 168.124L180.406 170.535V165.71L178.576 164.852C179.304 163.512 179.659 161.991 179.659 160.223ZM165.318 158.322V163.281L169.932 165.495C168.559 165.799 166.861 165.954 164.865 165.954C159.504 165.954 157.444 164.693 156.692 163.941C155.856 163.106 155.298 162.154 155.298 160.223C155.298 158.516 155.688 157.431 156.641 156.479C157.381 155.738 159.436 154.492 164.865 154.492C169.958 154.492 172.136 155.6 173.065 156.529C174.024 157.489 174.433 158.593 174.433 160.223C174.433 161.211 174.313 162 174.06 162.654L165.318 158.322Z" fill="#002C4B"/>
<path d="M217.389 150.246C210.329 150.246 207.014 152.078 205.477 153.615C203.827 155.264 202.956 157.566 202.956 160.274C202.956 162.981 203.827 165.284 205.477 166.933C207.014 168.471 210.329 170.303 217.389 170.303C221.903 170.303 226.036 169.451 228.728 167.963L229.04 167.79V162.875L228.141 163.379C225.345 164.943 221.325 165.877 217.389 165.877C213.658 165.877 210.698 165.144 209.472 163.917C208.591 163.035 208.181 161.878 208.181 160.274C208.181 158.618 208.583 157.445 209.446 156.581C210.641 155.386 213.62 154.672 217.415 154.672C221.287 154.672 225.292 155.671 228.129 157.344L229.04 157.882V152.76L228.728 152.586C226.038 151.099 221.905 150.246 217.389 150.246Z" fill="#002C4B"/>
<path d="M247.787 150.557L234.409 169.893H240.285L243.17 165.644H258.263L261.146 169.893H267.204L253.826 150.557H247.787ZM255.28 161.244H246.149L250.704 154.504L255.28 161.244Z" fill="#002C4B"/>
<path d="M297.475 161.654C298.581 160.548 299.119 159.103 299.119 157.236C299.119 155.37 298.586 153.851 297.578 152.843C296.162 151.426 294.41 150.658 289.219 150.658H273.524V169.891H278.724V163.918H285.08L294.608 169.891H300.808L301.412 169.814V168.872L292.947 163.673C295.01 163.351 296.413 162.716 297.475 161.654ZM289.272 159.568H278.724V155.11H289.297C292.102 155.11 292.977 155.41 293.427 155.86C293.781 156.215 293.947 156.684 293.947 157.339C293.947 158.162 293.71 158.508 293.477 158.74C292.914 159.305 291.578 159.568 289.272 159.568Z" fill="#002C4B"/>
<path d="M322.226 150.658H308.438V169.891H322.226C327.417 169.891 331.069 168.871 333.083 166.856C334.762 165.177 335.578 163.024 335.578 160.274C335.578 157.524 334.762 155.371 333.084 153.694C331.071 151.679 327.418 150.658 322.226 150.658ZM313.638 155.11H322.15C326.602 155.11 328.409 155.98 329.138 156.71C329.966 157.539 330.353 158.671 330.353 160.274C330.353 161.878 329.966 163.011 329.139 163.839C328.409 164.569 326.604 165.439 322.15 165.439H313.638V155.11Z" fill="#002C4B"/>
<path d="M370.928 163.093H381.947C381.851 163.568 381.626 163.952 381.226 164.354C380.439 165.14 378.014 165.98 373.566 165.98C367.811 165.98 366.013 164.846 365.161 163.994C364.298 163.13 363.895 161.948 363.895 160.274C363.895 158.618 364.298 157.445 365.16 156.581C366.031 155.711 368.197 154.672 373.566 154.672C378.031 154.672 382.361 155.579 385.147 157.097L386.04 157.583V152.538L385.709 152.371C383.078 151.041 378.539 150.246 373.566 150.246C367.591 150.246 363.427 151.38 361.191 153.615C359.541 155.264 358.67 157.566 358.67 160.274C358.67 162.966 359.541 165.26 361.191 166.908C362.771 168.489 365.606 170.303 373.566 170.303C379.331 170.303 383.136 169.302 385.195 167.242C386.653 165.785 387.303 163.969 387.303 161.356V158.692H370.928V163.093Z" fill="#002C4B"/>
<path d="M405.278 150.557L391.9 169.893H397.776L400.661 165.644H415.754L418.638 169.893H424.695L411.318 150.557H405.278ZM412.771 161.244H403.641L408.195 154.504L412.771 161.244Z" fill="#002C4B"/>
<path d="M448.822 165.75L438.452 150.658H431.015V169.891H436.189V156.131L445.724 169.891H451.765L461.3 156.131V169.891H466.498V150.658H459.216L448.822 165.75Z" fill="#002C4B"/>
<path d="M500.817 155.11V150.658H476.2V169.891H500.817V165.439H481.375V162.372H500.455V157.971H481.375V155.11H500.817Z" fill="#002C4B"/>
</svg>
